<mxfile host="app.diagrams.net" modified="2021-09-22T04:36:14.027Z" agent="5.0 (Windows NT 10.0; Win64; x64) AppleWebKit/537.36 (KHTML, like Gecko) Chrome/93.0.4577.82 Safari/537.36" etag="SdFnTUoRKVB7S0-7V8LG" version="15.2.9" type="github">
  <diagram id="R2lEEEUBdFMjLlhIrx00" name="Page-1">
    <mxGraphModel dx="1422" dy="832" grid="0" gridSize="10" guides="1" tooltips="1" connect="1" arrows="1" fold="1" page="1" pageScale="1" pageWidth="850" pageHeight="1100" math="0" shadow="0" extFonts="Permanent Marker^https://fonts.googleapis.com/css?family=Permanent+Marker">
      <root>
        <mxCell id="0" />
        <mxCell id="1" parent="0" />
        <mxCell id="8KFNnKX_J-wl7DnsQvvH-1" value="" style="shape=image;verticalLabelPosition=bottom;labelBackgroundColor=#ffffff;verticalAlign=top;aspect=fixed;imageAspect=0;image=data:image/png,iVBORw0KGgoAAAANSUhEUgAABFUAAAI8CAYAAAAwSJRjAAAgAElEQVR4AeydCZgU1bn+C2PU/DPRSxJjSEJcCF7DJS6gN2IWQRRc4hrHHRTBDSNKXGPUQUVxC4ricgVRcR8XQFBRgWFTUNkdQJFVQAGZcWaAWXp7/897qk53dc8+08tMz1vPU0/1VFed5Xdq+pzz1vd9x4E2ERABERABERABERABERABERABERABERCBRhNwGn2HbhABERABERABERABERABERABERABERABEYBEFT0EIiACIiACIiACIiACIiACIiACIiACItAEAhJVmgBNt4iACIiACIiACIiACIiACIiACIiACIhAhkWVhXjjwj3hOA6cniORvyOsFhEBERABERABERABERABERABERABERCBVkGgCaKKTwihGFLX3qE/cp97C/kbq2qFEd40Crf8eXc4TgfsO2I+ttV6Jb/Yhs9G7BvNc8/7P0NlndfX8WXZNLx+bQc4Tid0yf+6jgv1lQiIgAiIgAiIgAiIgAiIgAiIgAiIgAhUJ9AEUQXAjncw5rwfR8UNx+mJ3Pk7vNSD2LF8JO7zf9/hUgxeXlI9d+9MTFg5Bbnzv6/1uuSIKt/gi8nno38HKwhJVKkDuL4SAREQAREQAREQAREQAREQAREQARGohUDTRBVU4pvXutUiqng5lTyOm6LChYPdb5yOb2opBE9HhZU63YCaY6lSg9hjrGwkqtTRLPpKBERABERABERABERABERABERABESgFgKpE1WQ4CbU6UHkB2sphXeawkr/ng/i5U21uwvVnUIt34YL8ekTPdGTLkZDH8fTxu1Hliq10NJpERABERABERABERABERABERABERCBBhBIn6jS5xkUZCoO7Y6XcXvPOzHKc0EKzs9Fp2gsGFmqNOA50SUiIAIiIAIiIAIiIAIiIAIiIAIiIAIJBFInqoSn4ZneDEBLi5AO6PD0SlQ3VPkGK968G688SisSazniwGGA2xfmo9AvwmzOQ3//Nfzc/00UJlSoIX9KVGkIJV0jAiIgAiIgAiIgAiIgAiIgAiIgAiJQF4GUiSrhlYPRxxNBdu/3HKaV+RUSf7DYPuj9wSYjuETjqpj7uuLQ/PVxQkz89xJV6mpYfScCIiACIiACIiACIiACIiACIiACIpBaAikQVYLYsSIPN5plkvug5xPz4i1OTH1i8VZ2v/RNLI3qLaX48qlOsQC41VyGYvcZCxhZqqT26VDqIiACIiACIiACIiACIiACIiACIiACtRJIkqjic92Jc9Hpg56Pvo+COCsVlsWKI4luQQmrClULbmvv8/KTqFJrw+oLERABERABERABERABERABERABERCB1BJIkqjSE7nzd0RLGt70Mp7xr7DTcxgeb9CKPhJVohD1QQREQAREQAREQAREQAREQAREQAREoEUTSImoYmq842U8YFyAXKuSeDcfy2QnNs95AKNH34j7zvtxzO3HWrvIUsWC0lEEREAEREAEREAEREAEREAEREAERKCFEUidqIJt+GzEvjGhpMO/8HiJDZ4SxI7lI6NCyu79HkDeR5sRgixVWtjzoeKIgAiIgAiIgAiIgAiIgAiIgAiIgAjUQiB9oopzBfI2u4sqhzfm4dIOXlyUOLFFokot7aTTIiACIiACIiACIiACIiACIiACIiACLYxA+kSVqHiSIJzEBZtNWP1H7j8t7HFRcURABERABERABERABERABERABERABCyB1IkqcTFVOmDfEfOxzeSaIKp0uBSDl5cA2InNcy9Bf2vBwrgqUSHGFler/1gSOoqACIiACIiACIiACIiACIiACIiACGSWQNNElR3vYExcYNm6V//Zvd9zmOZbVjnO/ccGpTUiyqUYPPsp3BQVVvqg9web4DoNAeFNo3CLL/it0+Fq5G2sagTB+Fgujpf37v3+g1FG2GlEUrpUBERABERABERABERABERABERABESgTRNogqiSYC3iF0XiPnfAvkOfRN6EFZ6Fip/zTmz+KC8aqNZxuqLLnfnIp0CyOQ/949LxBJtgPh7s5MVh8X9fzUXIn4/9nBA0139/4uc4dyR7v44iIAIiIAIiIAIiIAIiIAIiIAIiIAIiEE+gCaJKfAL6SwREQAREQAREQAREQAREQAREQAREQATaIgGJKm2x1VVnERABERABERABERABERABERABERCBZhNotKhi45C0hWOz6SoBERABERABERABERABERABERABERCBrCUgUSUxporv76xtdVVMBERABERABERABERABERABERABESg2QQaLao0O0clIAIiIAIiIAIiIAIiIAIiIAIiIAIiIAJZQECiShY0oqogAiIgAiIgAiIgAiIgAiIgAiIgAiKQfgISVdLPXDmKgAiIgAiIgAiIgAiIgAiIgAiIgAhkAQGJKlnQiKqCCIiACIiACIiACIiACIiACIiACIhA+glIVEk/c+UoAiIgAiIgAiIgAiIgAiIgAiIgAiKQBQQkqmRBI6oKIiACIiACIiACIiACIiACIiACIiAC6ScgUSX9zJWjCIiACIiACIiACIiACIiACIiACIhAFhCQqJIFjagqiIAIiIAIiIAIiIAIiIAIiIAIiIAIpJ+ARJX0M1eOIiACIiACIiACIiACIiACIiACIiACWUBAokoWNKKqIAIiIAIiIAIiIAIiIAIiIAIiIAIikH4CElXSz1w5ioAIiIAIiIAIiIAIiIAIiIAIiIAIZAEBiSpZ0IiqggiIgAiIgAiIgAiIgAiIgAiIgAiIQPoJSFRJP3PlKAIiIAIiIAIiIAIiIAIiIAIiIAIikAUEJKpkQSOqCiIgAiIgAiIgAiIgAiIgAiIgAiIgAuknIFEl/cyVowiIgAiIgAiIgAiIgAiIgAiIgAiIQBYQkKiSBY2oKoiACIiACIiACIiACIiACIiACIiACKSfgESV9DNXjiIgAiIgAiIgAiIgAiIgAiIgAiIgAllAQKJKFjSiqiACIiACIiACIiACIiACIiACIiACIpB+AhJV0s9cOYqACIiACIiACIiACIiACIiACIiACGQBAYkqWdCIqoIIiIAIiIAIiIAIiIAIiIAIiIAIiED6CUhUST9z5SgCIiACIiACIiACIiACIiACIiACIpAFBCSqZEEjqgoiIAIiIAIiIAIiIAIiIAIiIAIiIALpJyBRJf3MlaMIiIAIiIAIiIAIiIAIiIAIiIAIiEAWEJCokgWNqCqIgAiIgAiIgAiIgAiIgAiIgAiIgAikn4BElfQzV44iIAIiIAIiIAIiIAIiIAIiIAIiIAJZQECiShY0oqogAiIgAiIgAiIgAiIgAiIgAiIgAiKQfgISVdLPXDmKgAiIgAiIgAiIgAiIgAiIgAiIgAhkAQGJKlnQiKqCCIiACIiACIiACIiACIiACIiACIhA+glIVEk/c+UoAiIgAiIgAiIgAiIgAiIgAiIgAiKQBQQkqmRBI6oKIiACIiACIiACIiACIiACIiACIiAC6ScgUSX9zJWjCIiACIiACIiACIiACIiACIiACIhAFhCQqJIFjagqiIAIiIAIiIAIiIAIiIAIiIAIiIAIpJ+ARJX0M1eOIiACIiACIiACIiACIiACIiACIiACWUBAokoWNKKqIAIiIAIiIAIiIAIiIAIiIAIiIAIikH4CElXSz1w5ioAIiIAIiIAIiIAIiIAIiIAIiIAIZAEBiSpZ0IiqggiIgAiIgAiIgAiIgAiIgAiIgAiIQPoJSFRJP3PlKAIiIAIiIAIiIAIiIAIikEECixcvRkFBASZMmIC8vLzofuyxx6KmfZ999oHjOHH7/vvvX+O1p59+ejQ9ps18uK9bty6DNVbWIiACqSIgUSVVZJWuCIiACIiACIiACIiACIhARgh8//33Rsh49tlnjcBhhZJEYSTx78MOO6xGocQvvNjP1157bY3XMo3EdP1/U6Bheaz4wjJSdNEmAiLQOglIVGmd7aZSi4AIiIAIiIAIiIAIpIhAJAI0dE9REZRsIwhQQLEWJxQraEHiFzH42YolFEIoivB6a0HSiKyadKnNxwo8F198sRFVaionz1mxhfexbtpEQARaNgGJKi27fVQ6Ech6AnagwePDDz8cZy5b2xsg+7apviMHLfZtkj36B1Eyw836x0sVFAEREIEaCSxatAgzZszAW2+9E9dPcDJbX9+S+L2dpLOfGTnyCcyYMdfsxcXFiFCZ0ZZ0Auy/KVCwn08UJhJFCbr5tPSNZaxLFKIgxOeMdZbI0tJbU+VriwQkqrTFVledRSBNBCiU2EECB5t2IFqTX3LiGyX+zYGRvacpx/rMb/152jdYVoixprgSXtL0sCgbERABEUgyAU5UrWhiLQPq639sv9Pr+OPh7n3R6/jadvcaf19S02fbv3BSPPIJV3QpLi5Lcm2zPzmOJxJFFOtGwzFGtll1JFrf+J8tK7KwztpEQAQyT0CiSubbQCUQgVZNgJ0+O3UOaOobtFphxP9Wj/faPR1vX2xgOuZpzXAbIvhwAGPNcTmwaw1vvlr1g6XCi4AIiEADCFgXnbUbN2Lcyy+bt/nsa/wTUH7m5JviyIBBl2P4iBEYP/4lzJg1F9NnzkUgGEbQ7qEwgqEwAr69KhhCVTDs2/l3KHpNMOzewzTWrv3apMl0h91zD+665x70PuEE9Ox9QrUyWQHnjjvuwIy5c1FcVgbatdg6NaD6WX0JxwTsp9n3+tuT7UvL1rbYD3PswjEUxySWCZ9tjr84NtEmAiKQGQISVTLDXbmKQKsk4BdQOKhJfONn3xixc6dQwQ6eA4DWuFnxxboksb4cANtBjD3yvDXJlVVLa2xplVkERKA1EuDv7bhx46pZLvC3uVevXhg69EaMGvUUCmbPRzAU8YQSHr3PFEkCYVQGQmavCoQQ3T0BxX7HY0WVu1f67uH5qNjiu9/eV+UJNBRpmG8gFMHqtV9jxqyPMWz4AzjzzHOq9SucLA8Zcr2xsGmrnkMcN3AcYccYftEgHS9fWsv/g3WB8otOZMUxSVsUnFpLu6mc2UlAokp2tqtqJQJJIWA7bA5u/G9FOGilwGAtNzgAakuCAutLsYUDF4oqVmDhkQMacmmrb9GS8uApEREQARGogQAnijW9pT/z7LPxn0ceM5YnoXAEtByh9Ql3K3pUBsNRYYQCyS5vL+exMujb+Xfse3tdnUdeH5dGEEzX7kaQoTDDPRgGy0LhhdYwLGtRSQkmTXkX1/7zBhx6ePe4PoX9CS1waImTzRvFEvab/pcXrHu89UUQFevGYexN3dDrwHYup0690OWqB3Hnp1tQkc2A6qmbterxj0n4mZY+2kRABFJPQKJK6hkrBxFoVQQ4gEkctFIsYOecjT7LyWocK7RwEGjfrvlFFg5s9IYtWbSVjgiIQFsgQEuNRYsKTZ/kn2wf3v0oDBs+Ags//zzqqlMZcsUKiihGvAh4okb0GDZiyc4KV0DZWRkE90QxxAgq1USVMHZV2b0GwcWIKtWFlWhaNi8j5IRdscUrly1rVTBiBCAKLd8VlWDi5HdwyWWXxfUn7IfHjXs55iaUBQ8B+0WOLWy/yXamuFK9vwygbOkQXPI7iik52LNHLnqc9zf077MvOjkOnJxzMXhleUqJhNffgYv36ogDn12JQCpzCs/HmxftjT1Pex4FocZnxJdcHMfVz7TxaesOERCBmglIVKmZi86KQJshYN9uJIoBtEyxIkqbgZHEivKNKgeGNXHl+bZk2ZNErEpKBESgDRBgv8TfSb+F5KFHHGXcedZu2GiElGCY7jSuJQotP8oDFFNcwcJYlVjBxBMyjChSGQJFFSOmeJYqrgVKELuqvN27r7zKTZPpms/827/zvPddVJixaZhjTHyJCjj+svBzNC9XAHJdi2LikGvJEsGSz5fjuutvirPioAUp47C01i1RTKFgFG+VEl+zyJaHMPTgdnByTsKJU9aiJLqoUhAVG1/D82cdi6tXpFZUCc7PNQLOnvd/hsr44iX3r2A+HuzkwOn0IPKDzUuaL3SsIEmRhf9X2kRABJJPQKJK8pkqRRFoFQQ4eOGgzLqusLOlACCLitQ0Hy1Z+ObIDm7InRMG8U4Nb6UqAiLQ+ghQbPbH0uDvJS1S1lFIoUsPrVF88U3oVuO671DACLuCiSeaGPGEVinGwsQTODyLEt5jY6TEueb40qbFi3EZsu46CUfrxmMsY5iede+JHmPuRm4ZPauYqJjjldezYokrr7V88aVr47S88fZ7GHjZldG+m4ys9UpraXFO7K0VBcUU9o91b9uw5KHfwHHao/19n6K47ovdbyNbsW7GCDw49Bzk5uYid+jDuG/uRp8Yw8sqsO2Th5H30Pv4uLwCWz99wLv+JgydsgrbosJNGTbPeQiv3NkFHRwHu/d7ALc99BDyHpqCgrKYKUmk/HMsmJiHB7w8z8l7CiM/qcEtKfAFFuTfiGH9cpGbewOufmU+Pi8PM0QxAhtfxxvP5aJ/BwdOh/7Ife4F5OWNxhPLS0wQ44ZUvaZr/OIKn5m6BKya7tc5ERCBuglIVKmbj74VgawiwAErrU/8E3sKKepc09vMNi6Avx04kah/YJnecio3ERABEUgHAcYL8Yv8Z555NgpmfxR17TFiiufW48YpoSuOjVniuvVExRMjSMRimtB6hRYgFD0oTLgxVkLRmCsm9ooXRJaBZANBdw+GYQLLMu+6dgahdV133EC0Jg2bXjSui5u3EUZYD8+yxq2LtVixli3++th6uhY4bh2YXwjffV+CUaP/L9qfU6Rg/86lmu0KQulou8bkwb7PWh+x/2twnxd6F0/+aTc4Ti4Gr2xA5JTAYnx486+RQ7eguP0Q/HZYAVZFxZJt+GzEvnCcUzBoaBd0jrv2CHR9ZjlKTAWXYfKgHyWkxbRPxEWLdroIyl7CA3/5YfVrck7CSTO+BSUTbpGytzH2wp8kXJeDvS5+AwvCIWyb8Mcayp2Dnzy8BFVeGs05UFyxghbHf9XdrJqTuu4VgbZLQKJK22171bwNEeDAxT9glYVEy2n8RIsh2zYtp4QqiQiIgAikhoC1TLET3/79r8LqtRvMSjmhMKJBZimEVA8Ua2OcuG44MZHFs0LxLEZcESU+MCytXhjQlnm4R362f/McQFHFrhTkrt7jLZsct6KPd867vub03MC5ZvUfu6qQJ6xErVuiApEVVlzLG1coitXdijD2PtaNdXn2pZeiAW6tuNLSlmWmdQrb2ZavUU/U1hG4IseB0zEPY3dGFZFakijCF0/9N3KcjvjFvyZiRhGjn9BFaBxGnb0XHOcY9Ppgq2f1YUUVB07nC5E7cQU2BgMoW5WH6+hq1P5ajNhC/5sIgqVr8PXkvjjAcbDHbVOxeM0aFK7ejlJbnLLX8OBxtyNv7jpsDfJkOYqXXIP+7R04f34SU41By2Z8du+v4Did0fmh2a51SvAbrJ91HQYe9Agm8ZrgNmzbMBK3H+DAOeB2jNywCYWF67HRWLLUUuVGnqaQQstZ2x56sdZIgLpcBGogIFGlBig6JQLZQoBiCk1r7YCVwgrfFGlreQSsf7m1XuGRb5S0iYAIiEC2EfBP6tg/9R8wCGs2bDACgevmkhAfpYZYJBQY6LpjrU/c+1xLFL+4YQWRcAQIh/17BOFw2LXqMNNmTp2TuzP92O7lHaFY44oxbjldEceKP/bI+lj3JtY1JipZMcm1cLHuS3RVmjbrIxzQ6b9Nn88+5K233vHEg8w9QWxrWkSwnfnSoEnxxDbnoT+tSBoSY2TneNz9P+3gdLgRI7f7A5KEsWvuGejqONhtyFSsN0isqHIYjpywMWpNAmzGvGE/g+P0RO78HVF4jY6pEpmN8af+EM4B9+CFighgy9b1Xrywy6ox0eRjH5IYUyWWaPVPHCPaMQdFFm0iIAJNJyBRpensdGcaCPAHP3GXKFA/eA5arJjCt0LsLJs0kKk/K12RAgLyfU4BVCUpAiKQcQK0nnjrrbei7gc9e5+ANes2xFmkGLHEBoD1iQlukNiQF5DWE1MCIWNN4rrcUKiImD0cjiAc8e8ARRVrveEeI4jwQwo3ph/b3fyNuEOBx+4sK5eB9sruBuD1XImCESMaue5LVmiKWa641jmua1C5z73puRdfizI+7cyzsXbtRrfuKaxrTUlTULHuPs2atDdCVIlsuAXnUoDp/yYKEwtlLV6OGOVahcCKKvHiCWo5X7+oUo7iL15C/pM3m7gqN954PC46gm5LVyBvcxB1ls1f1jSJKszSL3rxxRv/1iYCItB4AhJVGs9MdySBAIURiiX0/2VHSwHAigDWqqKhR4oG9n6mx51pt0URgZ0h62/ZqYNMwsOawST8vs98xtviM51B/MpaBEQgiQT8kze+HZ805T2EIu4KPkY08CxPossQ+wLMWqsUxkdhPBIT44SuL9xDrttOTKSgRUgNFiip1U8aTMoIOj6LmDhLFk9ooeuRtWIxMV98QXLp+lPdcsW1ZPFbrTDmyj9vuNmMBzhOYjDbdCJge1tBpdlWlzvH4vaOXDb5SuRtqnsxYyt81CiqVLyA4XSriVq8JFFUCSzGtNsPcpd3djpj3z5n4oQTDsKxB3IJaFdUqbNs/icojaKKzda6iLPNJKxYKjqKQMMJSFRpOCtd2UQCnAjSX9OKJ3bC7z9aUYTXWGGER96XaKnCztl/DTsC3m87b3+6VnCxaWVzR0GhyppxagLexIe1Bd7GZ5bPL59rPs9aDrEFNpKKJAIiUCeBRYWF0f6JE/2i4hITbLUy6K6aEy8SxFxdrCsMj66A4rrNGCsUY+HhE0/SqRjUWdvmfekXXYzg4lncxFyGPCHKxmVhPBbfakHGTaiSXN0AvdNnf4yDOnU2fcill1+OopLmrSLTkNolVVBhhpGlePuyH8NxDsEf8jf43HRqKI21ajl9PD5OeCailiLR75IlqgRRVnAyDnHaY58bpmBBNP7JQrxx4Z5RUSWa/7mvYmFC2eJqkgFRhfnbuDccV2sTARFoHAGJKo3jpasbSMCKKHaSb4UOTvYpnPCHm2JJKkQOijjWCoYdQ6LYwr85Sc0mNyLbEXLS3ew3Qg1sY12WXgJ8Xu2zzP+jVPzvpLdGyk0ERKAtEGCfZEXhCZPfBd1bKJIwZkh5VdCsykNRJbqbALOuq4tddYeCQsjuxrWH7jPVXWuygWdUVPHqZ92YGEiXbkIhL8huFZeX9gLf+mOvGIGqkjxdtyBaAW0vLsWgy68y7XDoUUdhzfr1UbekVDCzMVSSNx6pQtH7fXAI3XqOug0jNyWsABRcjxWv/hv3Ld8BVE3AqB67wcm5BEO/8l9XivUvdEN7pwM6PL0SbrSVxokq4ZWD0YdLKt84Hd/EgduBNeMOgeN0Qpf8r2PfBD7E2JO5IpBrqRItW/urkLfRZ3ET+RZfvrwIq63QEp6GZ3rvDqfDv/B4iV03KJZsKj9ZixWOk7WJgAg0nIBElYaz0pX1EKCQwh9jTuz9Igp/mClyZHLjBNQKPXZiyjJS9KHI05oFFtsBsl5yD8nkU5aevK3VCtu7NT+36aGlXERABDJJgP0r+9ojjjoaXDaZK9VQCLDuPrsqg+BOIcC4rjDwrOfqQuHFCAk2NooX9JXzTiM82AloJiuYxrxZ3airUIQrCnHnKkWuO5QJbOu5Bllhha5U/Eze5PnM+FeiAtfChQtdN6kkc7QveZI+KY+swMxbvGWSO52GHrc9hlsefRhjHzwb/ziByx0fhh5TtphVd76Z8CezPHK7Y6/DwFenYfr0MZjwn2PQM8dBu173Y3yRWYoHtcVOqfX89pG4lqv5HHIlBk5+H5OG3Ywn1lWa1YVcS5Uc7HXR4xhdMBNzpt2P0Rf/zFse2RNVUIzV4/6A9k4O9jz537j69Q8xfcIdePSa/XFgu2swYqst10pMvToHjnMUuo2cjKkT/o0h76z3hKDUP3RWFMv02D31NVUOIpA8AhJVkseyTabESTw7Tr9FCn+M+XaiJb9JZ7nZ8duOwwosPNeSy+1/yFhOKxBRWNHWdgjw/4viJXcJK22n3VVTEWhNBPr3728m8H/t2RtFxWVR6xS/VYX9zGNVMIRAiLsXJyXkBpq1Ikprqnuqyxq1ZqHQ4q0mZGKvBEKo8lYNovsPBRW7MxYLBasFSwqj/cfCJcvNikjJEqk4LmG/xLFJSrbAMnz0WC+cbOKUONEXeO26nYe+T3+CVQFPIYpswufjj0+4rgP2OX8UxmyiCGK32ixVtmPxQ1z6uHoA2y/GdjOCjXl5mHMuBq8sdxOLi6nCsnXAPgPuxYhLfwInxyeYBJZg5vBDYmmYVY1OR6/xy7A1KnCFUbHielzyO8ZjYVod8aunV8Bn22IrkJJjytsxJaVWoiKQWQISVTLLv9XmTvXaWkjwB5/uCC1dSKkNthVYrDDEAQHr1tKtPqwgRCFIW9sjQDFFwkrba3fVWARaAwE7PuBSyXTdibn7uJN8E3DWm/y7SyGHjeUFLVNcNxfPGqWNWqXU18ZWBLGCE5eKJjfGnaG4Yph6Fj8UVWxwW9dqJVRNWLHp1Zdvfd9bS8pUi/2R8nX4ct5byM+fhEmLN2JbMKpG+IoYQbCsEEtnvI78/A8wdeV3KK12WQTB0jUoLPymWhqR8o1YXcN5oAJlq9/HJKa5ugR+iSb23SRMWvItSmlRxPQ3lyVcF0TFljkoyM9HfsEyFJbVJJfw3sX4ZFI+Xv9kHbbWWEdfdZP8kWN6ju951CYCIlA/AYkq9TPSFT4CFFMooLjKudMqxAdf8ev9yPpZsYJ1bKniijWp5jF7tx1Y/+bf0LXrTRhhzGvrqGn4E0y88jB0HTwRC9LrflxHoVL/lRVW+FawtVhYpZ6KchABEcgUAU7Ox40bZ8YIFFTsyjX+ST2tUqw7CsUWLodsV7uhOFBt3pupyrSyfMnNiCtmaWY3oC+tfmidQv7WKsiKLAuXLo8K80VFZVGLleZUm0I/x4jasoMAXzaqPRdVbxYAACAASURBVLOjLVWL1BOQqJJ6xlmRA602rNjATpNvI1q6JUdzwLNu9k0bxRWKFy1l0krhh2Vie6R9i2zHhg+uR16/Dt6ygTnYs8eF6HX365i4Jf59jSlb2at4+MQfwcn5K/40eWPdEfurVaY2s9xqFwIZipRfQ0nSfsq+TcpugS3tWJWhCIhAEwgwTgf7p0O7H4VtRd+7FhMJE3ojpHjxUmIxU1zLlCZkqVsSCFDYYnBba/VjAwPTvSrqCmSErRCmzfrItNfh3Y82oooRtSJNawvGrWPb86gt2QQCKJ5+AY7u0gVd6tmT+XLJvsBrKePfZFNVeiKQTAISVZJJM0vTooBCIYWdJYWGtvTjSnHFWuaQQUsYLPDNAfe0twN9lJ883PMD7ox9TxqES/p3w5l/3Ms8G+36jsUMG2PN/C9UYfuUY9HB+AM7aHfeK1jQqFeQElUa+pNiBcBUm1w3tDy6TgREoO0RKC4uNn0T+8rtJTtigko0xgctVGIxUziBj67g0/ZwpbTG1mqF8Va4YhBdsKxbEC1WzM4YK4EQHn7sKdOHDxv+gBFimuoKZF1/0j42SSnJlpJ4EGXzrsDp9QgqFFySKarYl3gtYezbUlpC5RCB2ghIVKmNjM6bAJg2ECqFhbY8YWPHYmOu0EIkU4MGa5WQfh/XCmyd0sssZ9iu150YuW5nzEQ7UoRNH9+Myw4fEy+qRJbi7ct+DKdDL/TttQecnIsw9KsarFlq/V+TqFIrmoQv+DxyIpMR66WEsuhPERCBtkeAq9IMGTrUTM7fePs9E0PFupxwAk/rFGuhYpZHNssDu64+jdLa2x7aJtfYiiNsGy7DTO5cKYhLMVfQJcgnrvQ64STTdus2bDTX8p7Gbux/UhagtrGF0fVJI8AXqhTMtImACNRNQKJK3Xza7Ld2STxO1BQI1X0MOHG1ppDkQqEl3RsHLRR30r5VTcCoHrvBcU5E7vySBmUf2ZiHAe0d7H7jVHw5oQfaOx3Q4emVtS4JGClfgNlPDUK/3Fyck/csxn65EZ+N2LeG6PtBlK97Ac/cdj5ycwdj4BPT8WXxS3iwkwOn04PID3rFi6zCZ2PvxJ3vfYVdZdPw+h3nI7ff/Ri5aod7QXA9Vrz3bwzrl4vc3H64aMSbmPRtddEnUr4U814egqG5ucjtNwy3vL0Uq+0KAwyiWM/3DYKVhIvss5kpwS8JVVASIiACrZAARZE16zeZSfkZuRfElkw2lhBu0FQrqhhBJRQ21hOc9GtLPYGIXZKaLkFmKeYwAmEvzopnRbRq7Ub89Of74bg+JxrxhSJMY5uHL98UfyP17ZnuHCSqpJu48mutBCSqtNaWS2G5rSsB3zi0ZeuU2hBTTKGowo4m3YIT88xE7IzwsoH4M914+jyDgga9wNqJDS8cihynO3q+/x2wZQSubO/AOeZRTKqqPlSLlL2NsRf+xDBlHc2ecxSOOXqPBFElgLKlQ3zLDLrXtvvTsfgr0/eLKjbOyklX4pqTmQ6v7YQu+V8DgbmYOPiXyHEctOt2MnJ77m0+O52vwNAVnujCB6D8fTxvytUBe/c8w3N1OgTdJm5yH4/6vq/tIUrBef6vso4y000BXCUpAiJQKwH+ol96+VXm92fNho0mCK1dzjc+IK1rLUErCE70taWPAGlzN7FWPGHFWKtY16yqEOj+wz5kxqy5RlhpbAtJVElfe6YzJz4TslRJJ3Hl1VoJSFRprS2XgnLzDbd192lrsVMaizORVWPvb8r1mfNtrcK2CX80osMPb5uN7Q0pfHgmxp+6B5yu9+KFXYx657kCOafgokU+0cKktRmf3fsrOM4B+O09Bfi8PIRg6UeYef8fvPgtPZE737tn16t48I+7wcn5O86ZsRElkQDKVj2JR87zBJmaRBUKJ73ycM+Stdjw+XTM3LIdXzz138hxjkDXJxdgg1mmsBzFn12Oc9s7aHfG8/jICEdBlH7QGx2cjvjt/61ABcsaKcHWBS/ghS9Znvq+bwio5F6jwU9yeSo1ERCB2glY9xKuHMPfngFXXeWuMhPwlk2m20/AjeVhXX4aO1GvPfeGfxPBVix67M/VA3yeehVyR0/GpI0+d9aGJ9sqr/SLK8YVyHMDYgDbbcVuO15y2WAjqlCAMTFvGlhTay3ZwMt1WSsgYF/WpN/lvBXAURFFIIGARJUEIG31T79IkG7ri9bM3Fr18JjqzYoq6Xc7qsQ3r3Uzg+Y97/8M1R1kqtc8vHIw+jg5+PFdH6PIfG0FCP85777K1/DAH9rB6XAjRm63vjsUMFZh2g20CLKiSgSVn5yDwxwHu187Fev8o/OSx3Fzx1osVXLOxcBlZbFC2vyqWc2sxvTr94bjDMAtGwIAAiia8hfjtvTLkYtQ7M/PpFbf97Es0/VJokq6SCsfERABiioMhDpqlBvodMGyQiOq2BVmTFDaIIOkRhDyXH7STc2ICJFCvH7hnnAcWhyeia6HHoFTTvoNuud4VpGd/o7Tpn6Ncur/TShgaP0duHivjjjw2ZWoasL96b6FdaRYQqErEHSD1dr4KgOuuMa4AbHNoqJKA62KbMw3WTinu0VTl5/aNHVslXL2EZCokn1t2uga+QUVqdGNxhddejnVwkrrEVW2YclDvzFiyGlzvo8BLXkcN3VwYtYr9pvNeehP15xzX8XCuBFtYqBaK+4cgM4vrosf/FpXn5osVfznmKfNr3t/9P3nP5HLWCm5ubj66tPwjz4ceFsRB4gUjcPdf/mhGYzvc/69uHnqCmw0li1u4ev73lYxXUeJKukirXxEQATcyTlwxlnn4MBOB5tYKlZQYZBad6WfCIJc5ScDLj8sn9kpqlzg/rafN6/MBGullUZo51osnXAxzvldOzg5pyN3XhEa5N3qa3qmH5ifi06OA750MBaNvu9b4kfLxYoqXGqZokp5ZRBvvD3VvEB5e8pUsxIQ262hQWs5lmQflAkX5ZbIORvKRJeujMTxywZ4qkObIyBRpc01efUKW5cfCSrV2TT0TDosVri8Mwcs6bckCmNnwUnoSDeaS97A5xyR1bVFg9p2xr59zoyaXJ9wwkE49sB2cGycFZuGFTn6v4lCe84caxNVvLgo/mubIqp06olOvXtHy8elCM1++gMYu4WWKtwiCGyZgPw7D8VR5q1mDvY8eQQe32Ttder73ksmDQc7oJXvcxpgKwsRaOMEXCuViJl4M8bYgEGDzcR8FyfnnqASDIYRosVDY5WKJLBlN2WWE44AwdBSvGZElWNx7twS7Kr0uScFK7B50t/cle3OexkLzTLP/OUPoXzj+5gy5mo3SDmDoj88ERO/rXSFGvYOkRJsnDUSLw87FB1oQXnR/bj1wYdwx4NTMKM05F1XieLCFzDGBFbPRe7QhzHi029bhPjiCiZuGzKQMOPfkA3HGXfe84BZrSnkWSPV1+3bJmMwfT4P7I+0tW4C9kWexhStux1V+vQRkKiSPtYtMicrBqR/ot4icTSrUOlgyTcGGVk21waabX8V8jZawaEmXGHsmnsGujo52LPHGdUEi7P67Gve6MW571hRpVoQ3NpElRpWEWqKqFLNMqam+thzEQSLZuDD+9w4L7tdMRlfxo0y6/veppO6o8x0U8dWKYuACMQToKgSCkewZt0GMwl/ZPQY0EqFooqxUgmGvFVkImig90h8Bs38yxVVXMEgGCrEq+fTUuVYnDenBDsrQ2a3VjVVO9/BCLqgOhfin6sqEI6EUDpvIHpZ9yAbPN3E5xqOp7cE3VgjkRWYOPBHpv4UImL7ibhwwQ5EIt9j9RsnoCfTyemO35xoXY6OQNdnluP7uD6kmRVuwu1WVKGbT8AnqnQ7+i84ru8pxvKI1iwUp1jUhgQXthNxWas0oUFa2C20UpFA1sIaRcVp0QQkqrTo5klt4ewkLNVuK6mtRctK3Vr9pMqn2AaCo9VKWrfIF5h2/U/hOO2xzw3v4XPfksIcbgWLpuH1619HQfl2fJznLoMc5/pjC7tzPO7+n3Zw2l+LEVu8+Cmhd/Hknxh89lLcst56pEcQ3PIU7jKuNzF3HLsKUbvzXsGC6IB0J7ZOP9MdAPtdfWoSWliO8DQ803t3OPUKRECksjLeR96mecQoTArV/72tdjqOMtNNB2XlIQIiQAL8+eWEe/rsuUZMmDZ3vhFUdlUGPbcfb6WfSMRcm25qFAy4LDCFn6rA53jFE1XOnVOCsoqg2a24UhFYh8lX/dyILud+XIZQKIiSj29Er5tfxstffY+dtF6p2oClj3dDe6c9fjb6c1RxeeJwGOVF67Fu0hk4wHGwx7/exYJVa1C4ehuKw2FUFl6L09u1w14XjsWb3wXcsnz3DkaftRecnItw3Zeu1Uu62dj8rLWRFVUYVJhCU+8TT0XvvqcYcSwQcjmSZ0NEFaZtXzClP/6brZmOzSXAF62ZsYxubsl1vwhkjoBElcyxz2jOnJRTgaYIIDPN5DWF5ZoqH1TrApQJISyy9UncYUSOHOzZ5x/IfeBpPPbYzRh9Ww+cTLee9tdj5OoxNcdNiSLe6Ikuh+AP+Rs8//VirB73B7R3crDX2cNxx7szMO3VSzHkT4xlwrd/MVEFgRl4PncvOM5h6HzbKxjz4RhM+M8x7ptAXtsQUQXl+GbCn9CZ1jQn34ahb89Efn4+Zn0wCs/f2ROdTxnvrf6zHUse7ITfXDMaI94pwAcfjMf7o4/BUU4OfvTvWfgWpfV8H610yj/Yt4My0005amUgAm2eACfXrmgRQcGc+eZ3esacT7GrKmyElaqQXTqZ1g2ZwWVFFePWEizEK+e5lipWVLGCCo+7Krfjo+Ed4TjdcNx7W8DloKtCEbAelcEwAiHXkiPw5W04jeLJXR+hmN8FwubaHR8NdGOq3PMpvq9yzweC32H+PfvDcU7GRZ+WmnSYVlUwgO3vnYYOzgE45IW1CDVyhZ1k0/S3JevJuvfuS1HlVCOwuHFxGFel4W3JMSXHQBxjpuoFU7I5KL0YATue4IsabSIgAg0nIFGl4ayy6kq6kHDCqg4v+c1qLYBSNcG11irpfwsUQXDTeDx9zf5mABkzde6AvU/5N67/eDO2myWI26P9fZ+iuEa0Yeyafy560Iz6islYZa8JLMa02w/ypdsR+171PD4Y0x05flGFMU42jcbwE30m1zkn4JjxE/HcgB81UFTha9ZN+Hz88a4Y5DfbzjkGXR+ejw1mIlCBrTNycaqJA2NNuztgn4Ev4L2yEID6vreVS+3RDmA5iJVAmlrWSl0ERMB1AwmH3QC002d/YsYSPFJUYTwVihG0EGnMRDzZXE35QhQxKHLEiyo7jJBCMcXuG/Dutb9wLVU+KkG5EUtCqCrfhML3xuLpR27Bdf0GIu/a7jiC/UW/N/C5dZepCmPH3MuNpcr/u3c+ihivpTKEquByvGasY45G1yF34NyLBuDc/gNxXv+ByBv4O7RnYNsRn6LccMqMNQ+Zx4sqrkhkRJUTPVHFCEGeC1AjBDKOLVvKi7vI1kkYl/ckxn65A4FvJ+H1e/shN7cfLnrkfXxs+nLf0xcpwqb5T2L8cF6Ti9x+w3D96wuxymedG0uvFOUb8/HiHecjN3cwBj3/mXddOb5f/gQeG3qOuf+W91dhW43saOVbgA+fGIR+JmD+Dbj6lfi8fCVLy0fbbnL7SQtuZZJlBCSqZFmDNqQ6VoWWz2tDaDXtmlT6otpJNDu9tLsBGRxBVHz3KT6ZlI/8/Fko+LosusxypHwjVheux8byOiITRkqxfXUhVmwvTzALr0DZ6vcxKX8SJi35FqUchAS3YXPhN9jmW3HHLcI3WDvvLZP/zC1MJ4Jg6RoUbo6VhaJH6aYVCef87RlBsKwQS2e8bixVXv/kS6wqrR4vJlK+CsvMNR9g6srv3HL5kqnve9+lKfloBdL0i2wpqY4SFQERaOEEjNtIGEawmDZrXlRU2VkRjLqM2DgcmaoKBR0uC8xYIRWBFTFLlbnfGzHFLiFMd5eKinl4otfucJwLcMOKctCFacfaZzGsjyfedzoWBx93PM44oaMr/F/0OpYG3GC3FGjK5niiyj3z8V150MRrqQis9FyOfodfHn8GDu12NA490t0PO7IH/nD4ubjgg81uMFiz3HQdfWaKIZqulssreyKUK6qcZqyOaI3D87HllRteGPuCiRbRmXyBFzSrM3XEr/9xLS7hSk/RFyk52OuiFzCDa2mbbQM+Hf5b5ES/ty9TOuIX/56OVd5ltafH66Zg4TunJsTjOQJ/ePFLlMehiyDw1d24zljkcqnvU3DiH/gMJpYp7qaU/uEXVDLZXimtpBIXgRQSkKiSQrgtNelUTvhbap3TXS4rXKXKWsV2fnLfSnfLtqz8rO96qp6zllVblUYERKAlELCiigluGgybSeqwe//jBqmtYoBaxhtx465kqrzxosryqKhyztwS49ZiRZWKqiB2LLoRx3EiffzT+GBXEOWVX+PDm35lLFd6v74K31aEUFYexK41I3EBr7voDSzxVspxRZVBrqWKEVUC7rUVy/HK+fvAcS7Bv74sR8muIErKAyjZFTDxXHZUBI24Q0saNxhsZgL6sn2ioopnfXPgwb/H38/vHxVVWEa7klJj3bkorPAFEPdMCf+uCEKB5DB0vnsKZhRVIVg2A29c3R6O0xXdJ27yXvBswCf3/g3nvDAPC8wLlgiCxRMx9nyKa6dj4LJd5nGOpXcEujwwDR+XVaLi2zF4oKfnspxzInq9vAiryitQvOQa9G/vwDlkGMaW+oSzwPsY87c94HS+DIMXfOe+mAquwaJHfo/2zgE44Lkv4UWdS8u/kBXA2E4SVNKCXJlkIQGJKlnYqHVViT+WVOk1CauLUnK+S7V4ZTvBTL8FSg4tpdJYAlZQyUR8ncaWVdeLgAhkD4GoqGLiioRwYGdOwi827j8UKxiboyWLKlyhiLFCqoJVKP1qHIYdvwcc52j8ZeIGlJQHUV7xGZ45mRPky5G3rsKIJKXlAZQuuQ2nUFS58PWYqFIRxI6l/0JvLqk89H2sZhBcY61SiqWjD4Pj/DeOeHENinYF8f2ugEm/tDyIOFGFLkAM6MtVdqzRRBofF2ZJdy2KYV+t3WTGiI88OTYqkjVHVGE17EugTI09rQiy+5WT8UWUbwQVc083Ytie938Wtbatjn0H1ow7BI7zZ5w2p8R8HU3v2qlYF02vFF8+1QmO0wG/HP25zyplJaZenQPHycXglRVe8hFUfnIODnPa46cPL8ZOf6Ylj7tx6Rq1OqE/gcZ9puWzHUtwLJkZ6+fGlVlXi0BLJSBRpaW2TIrKZeNx6IczRYB9yU6YMMEMTih+pGprCW+BUlU3pVszAQ6COPjhAFWCSs2MdFYERCB1BDiPpAhQFXTFiQGXX4Of7rsfyqvcGCYUVYItylLFuv8chN8OvB3n9BuAC/v1wy2X/w+OMMsmH47DRy/EuoogSiuCKK/ahA9v+jUc53Ac9tAUvDTpXUx95Z8YcCjdMzxRpcp1/2Gg24pvn8FgWiMcfAUue+s9vHbXPXjsy13YseYxDDqoHZwDz8BJj76N5yZ/iAlTJuLNx/+By7r2x00ry437TzDTokqE7QmwHOPGv2bq+Nmyla6owqC91pom3HRrGvZbfNFEfjymcwxqRZBE8aTm84xzMhfTX7wL/ze8Hy699O+4NZcWLZ3QJf9r809V832V+Oa1bnHXuf+B2/DZCHdFxNz5O7x/Sntte+x93s1u7BYTUyUXt/2rB07hs+QPup+if2VaDjEWmx1LsI20iYAINJ2ARJWms2uVd/IHlDEYkrFFyj9DweOnY1APrsZC08rO2Pes69HvxQWxoF7lH+KFQYehS5cT0GvMEmyNqvpeCULT8fzJP8E+l03AAp9lZDLK1xLSoCllsnjXVp9MvwWqrVw6n3wCHATxmeL/G5c81CYCIiAC6SZgLFUiMPFKaPHxxttTzW/SMy+9bmKqcHLesixVGIi2gzdOsXEyHDg53XDgJSNw16wN2OwJKhRVyioCKFv7Au7oy8m0d33On3DU8JtxaUcH7QZNwnLGYjHCCpchLsLip3rFAq3nnIPBS3agrLwC337yH1x33E9j6Zj0OuCn5z+B17YGTLwSE9Q3cWyUxkZl1tZS5fCjjgbdf2jNw511bK6lir8qtJK2TPk5HRP5mkUQoPr5Mmye+ncvOH0O9uxxBrp3/z3O/CPHuKkQVdw8unTpgvj9aHS/syAaw8XPLxmfKWhZ6xSOJ/gCUJsIiEDzCUhUaT7DVpOCdf1JxmQsUvY2xl74E7dz7NQTnftfiSvP7oRjzUopHfGrp1fAhPzcnIf+0UHJBRi8Ms7QEQjm48FO6VHlM9FQtuNKdd7+t0ByB0o17fSnz/a1VmYcBGXKNz39NVeOIiACLY2Adf+hu0iViS0SxEGdf49u//vnFhaoNmyEH67ms+v7LViy/CssWr7aHBcXbsLmXTFrk7I4UYXCShA7d27Fslkf4uW3ZuH9dWUoKS/Hpq/WYPm2CjcYrSc8cNWjnRXl2Lp8Dl6fMA2TV2zHdxVeDBW6+pRtx8p50/HKhHfx6qR5mL3+e5QEXCufYDi2UlKm2pmiCuO6TJ8914zp8kaMjIoqrptUqMkxVWqqEyf11mqF/VkqrXmZf3XxxC1VtfOlY3D7we3gHHUr7lu304uzYq1KUiGqHIDOL65LCNhfE7HknOM4gkKWfTHD8Wk6RK3klF6piEDLJyBRpeW3UdJKaGNwUFxp1hZZhvf+wTc4HfGLW9/FAt9KL5Hypfj02RNx+JM1iCqOg90ueRPL/G9kslxUSRrzBjYYBTN1mA2E1Uou87cprZ40CGolDadiikCWErDL8FIQqAy6Fg0MVEsLhAlvT/UC1XJJ5bBZsjcTGJg3hQJaWdDiYmdVyLj2UCxhPJOdlbHdnuN5frY7g8pyZyyU721MlF0B7CgPmBWCKrwVgLg0s7m33I2nYu/nkfFTzO7la5dxruCyzUErqLisMsGJeVpLleP6nIj2P98PW4vKDDOujOS6/qRmeWxaSFj3Ex45XkpF/1ZNPPFAJ56PrB6K0/kSsP+bKIw2RjG+fOrgJFuqAOGVg9GnpjFxNN/kfUgUUyho6cVM8vgqJRGwBCSqWBJt4GjNLptX1QiqFvbDMex4ejyE/F1+haSGlK2lyoV34f5+jKDeCyfO2BpT5msVVYIo3zgZ74y5GkONr+lgDHx4IiZ9WxnLJLIKn429E3e+9xV2lS/FvOeuQL/cXJwz7FVM3MLr6Bs7A+8+3B+5uYMx8Inp+LgsFLs/+onXFeDDJwaZ+3Nzb8DVryyMuTBFr2v8B2sdlOo3Mf6S8S2QXWaXAku6TGz9ZdDn5hPgM+MfcGoQ1HymSkEERKD5BCiq2Ik4J92cfG/5rtRYqzBo7fbiUndFGyOqZCb4KkWVkCesUMCgmOEXO3Zw2WTuVmSh0GLElpCxQuGqPiY4bTktTmI7zzGtcsZSCbg768/YKtxteuZo8mC+ITA9nmMexq0mGEZViGV0XW/qGUk1v9FqScFaHU2a8q4Rxe685wETG4fxcUzQYcZT4eo/Jp5Kakrp7+s4ZqFVZjJjriSKJxZFtfPWUqXzIAx8Zy4++OB5TPnPkTjKxN1JpqUKh6cL8fagveE4h+C3NzyL0VMLMHHiayiYdAvuv7wLDn22+av/cPxpraUpeEpMsS2vowikhoBEldRwbZGp8geVriHN24pR+CgDW3VAh6dX1r/kmxVV+r+Br5ZejtNyHLQ79Sm8V+51zjWKKkHsmH8+epmOzOf/7Dho12s4xmz1Fpqz9550HW61rkieq1G7Xnfjpfn34/a/eEvcmfM52Kv/q/jI+CVZChEEvrob1/2J13XA3j1PwYl/YDC6HOx10QuYYctpL2/CkZ0ZhY10b5yE+01skz1QSXd92kp+iQPMdApybYWx6ikCItA8AlZUCYTCRlygC8yEKdPMxPyfN9xirFUYzNauatO83Bp/N0UV5s1YISb2ibUmqYxZorhCiCd0VHKJYwapdS1vWB+KIMbaxHMNsqIMr2GadI3hTnHFuAB5wooRZ6LWMLSSCbu7+d4TVQLuKkkM6MsgsamRK+rnRlGlqKjMWLge9LuDsW07l5ymUOaJKoEQQiGKKqm3OmJfZ8csVgRIRv9XTTzxsIQWXYQjHAexALb+mCru2LPdkVfh/jsOQ0fnEHSbuMncWXN61k0odp2bjQ1UeyIuWhTv/h4pexevDNk/FovHjl+PvAwD533XpGeCVim0brXB7MmRL9n0Uqb+/wVdIQLNJSBRpbkEW9H97Ky4N29bhsmDaHHSA30LiupPKiqqvInCyHpMu54B2w7BH/I3wMSltcJIXKTzIMrmDcZxt7yC19aUuEvdBdfh8ycORXunPX42utCN12LvpQBywWMYs6oEgYplmDV8f+SYzqkjfjH0NUz6dhcCxRMx9nyW+8/oW7A9Vu7A+xjztz3gdL4Mgxd85+W1Bose+T3aOwfggOea/7YgU6KKraRfXGFZ+OZCHayl0zKOfCtH0cu6bqXSFLpl1FilEAERaM0EbLBaBqWltYoRLqpCOPO8fkZYefPdqUbQoIUDJ+Tp3ihScKdgwVWKXOHDCiZuLBVXGKELk7dqkXdkfSrpnhMNRutd7wkodHmimGSCu9IaJuy68ljLFd5vd3vOpMU0A25+vJ/3RYWndAOK8ongrz17mzabPmuuEZZoSUPhiFwC3so/6RR9rIWF7Q955LilyQFVg9uwuXA1VpfGvVEDIqXYvmJFwvkIgqWL8cmkfOQXLMdqureb+7/BtqBHoZb0IuUbsbrQd51pU6a3BoWrt6O0RogVKNswEwX5+cjP/wBTlyfeX/+DQSGF4pO1UOY4j2MIvsxLpsVP/SXRFSLQtglIVGlD7Z8cUWUh3rhwTzhOT8SWh6sDol9UYSe+MQ8DuFzcIbfh8e2hRgWqtf6uzbcJKAAAIABJREFUe9w9D2XM0ooqHW7EyO2e9QoHUZ6vqnPCU5gasL1YAEVT/oL2cRY2EVR+cg4Oc9rjpw8vRtw7hJLHcVMHB865r2KhTaKOatb1VaZFFVs2O1BhedTpWiqZO9qBEP8vbZvwczLezGWuVspZBESgLRCwogrdV7iEMsUDTsS/LSrF4UcebZZYXry00BVWeHGaN+Zo90AoFF2pyIoaFEYofFA0MEeKHFwKOhSJnqsKuNfw2uj19jqzwpFrCUNxpIpBe5leyN1tWtE8uDSxtzwxeVGQCXluVLacaUZk+PS/9HLT/+Tde58rPHnWOmxLWx+WNf0t6NKgkOIXC9hX8m9aY7RlwYDjOTLwjx+s+KSXZun+T1J+IuASkKjShp6EliCqAFvx+aOdkeMcgN8+ugTlVhiJs1TxGiW4Aas+eBjPPjrYxFW5c2gXdKcgYIOI1XZvgpBjm7i6yaY112yPvc+7GbkmdkuuOd72rx44heJPTeWyCTbwyEFAJtx/aiueNQ+18TpYPpqKtvVBSm28knneCin+QaIdCHGQpE0EREAEWgsBGqBwp7BCNxhOxBlv5LPFK/DTn+9nLO8WLlkedW9J98TcihUMWMu4INwpFHCnEGKEjTCFlJjFiFsf91z0e88axX8PLWDc+rsuTnTjcZeS9gQTb1npaBpe/iyDPZcptx9qXNzvuGOEEVQGXH65K4oZNybXtYmWNYZTyA1Sm+lnkn0nBRZarFgLFo5dOI7hOb6MyGaRxYooHDsk1p9Wrk224sl0wyp/EcgiAhJVsqgx66sKRZXmx1RZj1m3cuWfzuiav77+txc1CRxFo3Ezl61rfxXy1k2rYUnlCAKbRmP4iXTXobDRE51698ZZffZ1fU+TLqrkYM8eZ6BLly4J+9HofmcBVjVzJNjSRBX/c8KOmh1yosDCc3rb4SfV9M8c6FGwqklI0UCo6Vx1pwiIQGYJsGs04kKE1ioUK9wJOcWVBctW4mf7usLKks+/MAKEmcxnoMhuOV03JCsEmaPfUsQTGmwZzT10z/Hv/utpCZNwj3HlYewRn5VMfN6x9Ow1GcBhyj1kyC1mfHX4kUcZNx9racS242da6VixiWVtaZsVGfyWGhxrUXDgOb7IYv/aGl9WsMwUiTgOq6l+stRpaU+jyiMCLgGJKm3oSWAnw06neVsltkzogfYNXQquJlEF5dj86pEmPkr7Yffi1k6JFiFrMetfPzMuRr0mrEGJ7dET00qapcoB6PziuvoFoiaAozBB5q1h8mwFFn+AM5bdduCtcXDShCZr9i0UUTgg4tszv1hlLVJaw7PQbAhKQAREIOsJWGGAcVPs8sU2hggn5wuXLjeTXP72zZw5L2qxkm4wppwURMxeXQxxv6/hfPQee6/rBlPv9QmiipuvLw2bbrpBGCEogv79rzLjkl69++C74lITP4btFRVUvDgqtKhhXVvDxvEJX16w300cw3Acw3Mcy3AczP6ZY7NMWrawvCwDy8wy2ZeeLKt/Z7mtJY7GYK3hSVQZ2zKB5s6w2zK7Vld3diT8sW72D7O1NHF6oteUDaiII1GO7wtH4foXV6CE5xOFEHutDRBrOxC/m01kNsafytV4rkDeZhsrJYLAyqtxWlLdf2LxV3a75E0sS8HoIWnMLbc0HWsTBvj8+N8CZXJQkiYUdWZDk2QOjDgo4oDNL6JYVhw0Nft/rs5S6EsREAERyAwBCgauNUfEuL8wuGl0gk5hZUkh2v/sF2bs8chjj7sWK57okJkSt81caVVTXFwWFRwGDLrKuPeY1YsSBRUTXNh1b+J9rXVj38wxmBUtEvtnv3jBcY3deb1/54sQpmX3yZMnG6FjzJgx0XP2O5ufvd9am9QmmtgyUDyxYyumoTFDa33qVO62TECiShtqfU6A+QPOSV7ztgpsnX66t+TxIfjNZcMx+NGnMfbRqzB80G+Ni85uQ6ZiPTOpTVRBFYpnnIqjahJVYC1VjkDXh9/DaxNfw+w3B+Dyw7jUcTJjqnBktxBvD9rbrEj02xuexeipBZg48TUUTLoF91/eBYc+27zVf/iGgW/pWvvmF1kS3wJZc1sOHvhscXBBsSHbNg5yOLjiYKkmAYUc7JswMtAmAiIgAm2BACfeJhaJL8irnawzNsd3RSU4vPtRpv8+66xzUFxa6i613BbgtIA6UheZMWNuNBZH3vD7TXBhCmDGsshbHjoamNYuhd0Cyp6KInA8wz7aL4BYQYVHK3Qk6+hP24otVqhp6y+mUtG+SlMEMkVAokqmyGcoXyr1nBQ3fyvD5llDcMMJXtwTK47kHIVON4xH/pZKN4utI3BFjk8I8WccWYGZt/zaLH/c7rxXsCD6RiQhpgrTzvkzut13C67o6KDdFZOxiunU4/4Tvc7L0w1Um4OfPLwEVb5yRMrexStD9nfjtdh6OA7aHXkZBs77rlnmr5xoU1jJxo2DEooorF9tAxGet0KDFVxaquBgB1pWOLFvmGp6u8Vztl68XgOjbHzCVScREIGGELCxRUwAVq5+4wWDtRN2CisUWa674V9mwsp+cdKUKa6wYuKSuK4xDclL1zSOQHFxMYZc78ZPIfcZcz+JE1TYLlw+Oiqo0Eolg+5Jjatdeq62Y4Orr746TnDh2IfjGf+ejS+U0kNZuYhA6ycgUaX1t2GjasCJItX3pE0CI6XYvnIqJuXnI79gGQrLAgnlqUDpphVYsb28ZnEiuA2bC1djdWnifRRNvsHaeW8hP38WZm7h/RUo27TSd62bduHmMngSjps3y7Rihe86r0gmr/XYWB5OKCP/rEDZhpkoYD3yP8DU5d9gWzCq8tRwff2n+BaErDnpbisbrTk4wODbmLpECfsGiOKEfYvDAYp9i8OjX4TxD1r8nznIoSmu/1ziZ//bKH+5mG+i1Y0tF48cgPpFIabDtLWJgAiIgAjEE2BvaQK1Rrj6jbu6jt8SgsIKRZZpc+bhoM6d4yan/t9d+9u7aFGhCahqc+Fkta7f63Evvxx3Pe8bOfKJWvNhWnSH8bu3sP+qLQ/2VYsK48vEPGw/Z/sx/5HfWcHJ1oN5+K/xf6ZQX1wWX6b68rD1TqwH0/3f//1fdOzY0TA46+xzUFyyw4hbxooo4AYVtoKKXdnIrkjUvNGPrW12HPnscXxin1OODdrSuC47WlG1EIHUE5CoknrGLSoHiinsGNhBNGWznUpbOzaFFQc17Hy1uQTs2x5rCUKBg8+hHVTWNphN9rNmxRLma61NWBYrmnDQq00EREAERKBxBOKElUjEWKxYSwiKKjbWyraiEvzPoUdEJ6k1/cZPmvJeVJCgYPDWW+/Uef0RRx1tro9aWURQq0Bi80vMw750st8nHnsd39fNgyv8RCJYu3Zt1KUm8Vr798KFy8FAvjZY7WmnnVZnPfpferm3UpJ7z6JFi+q8nvmsX78pZl0SAfbb79fRe3L2/i9MePs9Y4lSFQjDWg3ZY3R5aePy467m1LhWz+6rE4U2jlM0Rmj9bW5fvvnHoxwH2vGo/1jX2NR/nf3sH1cyTZuXnpvW/9zUVwOJKvURysLv+Q/Pjrgp1ip2oNDWjo19DPgjSkb8QdXWdAK2M6rpaN8c7bffftFOq6brmvKcN73EulMEREAE2i4BCismeC0tVhhjhUsthyLRFWZ2+YKijn3uZXT/3x6mr/zJ3u1xyRVXYfKHH2Jx4QoYV6IwrV5i++KlhZg192PMnDsvbp819xNsLy4z19qgubyvuHgHCmbPx8zZ7vUFc+bjkcefxl0jHsLEd6YiFEFc+rznkceewl33jMBdI+431915zwPgPuyeB7C9xM2DljgUSrgvWbIMw4aPwO133YNhd40w1/Fafn5j0pRo+rZc24uLo9ebe7y0eQ///q6o1FcPNx+6StWUR8/jTsDY8S9510cwfeZM/LXX8Ybn7rvvjt//z2FYs+Ebd8lkWgol7Gwb7iFPUDFWNW330a1Wc75o4UsYO97lmEPuPdUwtcgTbCeOB2nx7BdLbFvWdrTCiP+YKJIwPbv7r7Of6xJhmK99sWfTtS/0WiRIFapRBCSqNApXdlxMtZT/2E21VskOCqmtBX9U+cOpDjh1nNmp2Y4xdbkoZREQAREQgcYQMMJK1B2IwgXMxL48EAJFFbvvrAhiZ2UIH87+BMf1PdX8nv903/2MiPHVuq+NdYVfVKkKhlAZdN2IrNWLPdIihrFcgiGKMK5YYgQdBmP1hBybL+/hOaZnRAWfcEPLDbrE8Ht7/a5KN8/qecDEJ+E9FTboK91qGKeE6bA8nisUl5wOhmPXG9eoGu6pMtexHm5d7D01XW/yDIZRMOsjcHlk2x8OuPwqfLV+ExJ5sz6su1x+6n+aE62WOPHV1jIJ8MWZtTihsOEXwuz/BMfk/M6KIbyeoks6rEfsyz4+Q8zfWmjXF6+P92kO0TKfudpKJVGlNjJZft6+5ec/rbbkEqAyzh9yHrWljoDlTNbaREAEREAEWg6BqCuQtzyvEThCkehEn4LKjvIgSsuDKCkPoGRXAB9QXDnJFVf4uz7g8n+gYM5HRvjg/SYWiBE7KMbEdisW+IOtUlyhyEIBgcLNDuZXEUJZRQg7KimYcOUbT/gIRYwYw3t4PYUHlo/Xlplj0AgsPO+6y7jLRwdCEdethstIB8ImTSPEmPRDpq4USVh2V1xx72MavN69xxNvKt3rKZ4k3sPrTblMHiFTny3fleLhJ8biwIN/74pRP/8F/nnTv/HVhk2mXuVVLI977U7v6IpDblDaYNBaqDAwbct5bjJdEk7Q/ZYGnPimY+Kd6Xq3pvzZRhz/cR6TKEyw7awFCOc3rcFSmc+XXxSqqU4U+XiNRJaW/aRqNtKy2ydlpeM/JtVc/vPqnzR5mK0VEH/YtaWWADtM+xYitTkpdREQAREQgcYScF2BvOWWw64rEEWDqGhBQWVXAN/vCqB4p3ssKQ9i/tKVGHDVkOjv+4EHdcawe+7HV2s3YpcnprgiCYUS19qFIoIreLgCRnQFoqqYMOIKOEGU8h4rqgTc1Yp4PXdaqFCwoZjCshjBpzxghAyKFLRCCXjWJ8zP7hRpmKbZK10xw14ftT4JuwIL76GgE73Hdz2FFlqgRC1cwq6YRGa8/o0pH+KSK90FB9j/UVR5+PEx2FZcYsrmXufmbxnZMvE7ps16UlSxgYWlqbhPNscUfisHTs41Pm7sf33yr2cbUFBIFFHYVn4BJfk5Zy5FW2dattDCxo51eeT8giKLxL7MtU9tOUtUqY1MGzjPHyn+g/JHSVvzCfBHkD92/KFvDep482uc2RQkqmSWv3IXAREQgfoI2NVvwuGYuEKrCysqlNJKpdwVVYp2BsD9+12uBcum70ow8vExOPzIo6OTim5H/wWPPDkOny1daYQOWqEY8cJza7GCAUUJuvdQBKFIssMTSiiWGCGmIugKJJ4ViRVHeP2uKtcKxlqplJW7wg3LzOviBA8KJEHXKiRqGcIy0fIk6mYUNi5JvI9WKzVdb+pRGXTdc3x5ML+3Jr+HS64YDLpG2cnVJVddh/fnfGIEIlMnT5hhOtxZR/e8a2VjXZLoTmXbwohe9TVgG/mek1fLlkf+rS1zBDieprsM5yf+dqHAQCuVtigocMxLMYXzDMuE8w2KTZzPacs8AYkqmW+DjJbA+o3yn1Jb8whYNVm+t83j2NC7Jao0lJSuEwEREIHMEqC4QjcTBnd13WYiRlixYoe1IqHVCi1E+DdFAQoitE5ZteZrDL35NhxxpBvYlpOKgw7+PQZccQ3efHsqthWVum5CnhVG0LOMoZUIY4tQ4LAuQxQ/+DdXw3Fjl7hHCjK8PmpNY12MjAATcxUycV4YiDfiufOEWBfXfcek7YlGFI9YVxvnhXkZNyjjzkPBx7XaYVmsAMN0Plu6HKNG/x/Oyr0gOnlifc849yKMfel1bPyuxIgptLjhbsQTz2LHiiouN1fcYZoUZ1gWI6hEGEw4s89DS8mdk3c7diNjTlI5ttCWGQJkz/lITaIB28pswW3YXFiIwtXbUdpGn2O+uE0Uneh5wDmdXupm5tllrhJVMse+xeRsf8AkBjS9SSxDvd1oOsPG3ilRpbHEdL0IiIAIZIZAzGKFlh6xgK0UE6yFB8UBv1BgLEQqXFGFwooVH1at22RcXo7re0p08sVJ2BFHHYVLBl6GZ54bjwVLV4LCCq1DTJBXL4CssdhgIFkb2JYijAkK6x2NhYsbw4TXmt1YwbjChBsE1xOIPKGI5yhamHy8Iz/znLEM8a6L5uO54PD77d+XYubc+bh7xEM44+zz4txPDur037h40FWYMGWqWRWInKwFiuUUFVVooUL3I4pQHlO6MrGezIfMWU6KKrYtMvMktJxcae3gj19BC4DoxL3lFDPrS0LmtD7xtwUtVBKtLyJl0zBh2JHodWC76P99u27noc+oD/FxWSjrOdVWQfLj/M1vwUKhUHO62oil7rxEldSxbTUp8x/S/jPyh01b4whYQYVHbekj4BdV9GYpfdyVkwiIgAg0hwBfLtt4HhQdaMlhRQkrnLiBVsMmYKxZJYjiihd81ViDmPgmrhvRtNkfI+/eB3Ds8SdGJ1v2TXfP3n0x8LIrzTLJXI55yefLvaC0sZgi7nLHXL7YPRcVP3xii2tl44kSXDaadYgureyKLEbEid7jBoA19fRcbmbMmItx417GncNH4Kyzz8FBvzs4rrwHHNTZiChc1nnh0uWGCbm4q/jYQLhu4F0KUHa31jxkx+u5m+C4XC6ZeZslkyOmzM1pt2y6l2Nd+4zwyDf82tJLgHMPvoikdRDbgKIK24Xn47cIAptG4fa//BCOk4M9/3Qp+g79J274Zx8M6rGXOfeTh5egKv6mpP4VWjkYfdu1Q6rzAUrwxVOdkeOciIsW7Wx0HWilwmfZz1TiSqMxNvkGiSpNRpddN/qFFYkDDWtbMrNmo2LWMGbJvEqiSjJpKi0REAERSA8BChJmj1p6UFhx3VOs+411jaGFCuOTmKMRVWLxS9y4Ja6w4lqguEFYlyxbiXEvvIZrb7gVPXv3iU4w/JNoTuB69u6N0848G3fcfbfZRz76KGbOmWP2aQWzwX36zDlGmKA4sXDRYrz11gTjwlRcXIYZM2aBQgn3mXPmYdKUKbh92HCzD73xFvQ6vi96HX983OTdluGA3x2Ms3LPxZ1334cJb7+HVes2GqsSY1nCVYmMC5FrKePW3Q1UG3Pv8dyZKmIWPLRMoQsTBRWW1woqxjLFY56eFm65uXDcZl+EsS04+Uy0iGi5pc+OkrEN/GIKx9F1tkFkId4etDcc5wD89p7ZWBXgr4e3Bddj5VuXoM/zKxGw51JwDM7PRSfHwZ73f4bKFKQfS3IbPhuxLxynJ3Ln74idbuQnMqaYYq1/eJS40kiITbhcokoToGXzLbaz4Y8c/ym11UyAZqPWukcuPzUzSvVZPp92gCpLlVTTVvoiIAIikFwCdrJvLSlcdx0Ylx0GmTVLKHvxUFw3IW/FHMY6YQwRv/VKZdCs3GPdXShKRK02gmF8V1SCmXPnYvxLrxqrlb+fcz569j4Bhx7ePdqP2P4kWUeKKn/t2RvXXHe9EVomTXkXtJbhyju2bDzSVci4DnmBbSmOWIsd4xrl1dXEhInWOxaHxboaMS3XPcmzTjGWNGHFT/EeW/+4jW3MMVxbDHia3P/ixqVGSxRrRcF5Rv1jtwiqFvbDMY4D54SnMNUvqNSadTm+X/4EnrrtRFzQtSu6XXILBj4xDQVFftmlAltnXo9zrn8TBbu+x+op1+OOi7uj6wXXY+DzC3zCzTasfHUg7r7sN2jvONjtpCH4+6WXIrffE3hhS9ArQQTBormY9dIQDL+8B47ucjp6DnkQtxasR4lP/zEXR77FV1P/jQeH9MRJXS/AifeOx9gvS10rsvIZeOPW0/GPPnvCcTrhN5fdgdzcXJwzcg5WJaZTa92rf5EortTPvHoaOtMwAhJVGsapTV1FkYAdDpVN/fNVb3r+QLFT4C7ltzqfdJ6xg189p+mkrrxEQAREIPkEOG+gm41rYeEe6RpkAsh6q+wYCxYvvoqxYGH8EG+1HXuk65AVJXikSGHji7gCRshYc1jhhQFcad1RVFKGmbPnRffps+dh+uy5RoS5664R+OUvf4V2u/0A7dr9ALvtthsOP7wb/vPwKPA6ex/La4PkugF5XXHI5muOvjKVV3mWJkY8Csfq4sVFMfFRPEud8sqgsWChcFQZZB1o4cP4NIwHE0Eo5Lr4kCMFK20xAnbcZscMfIGoF4cxPqn+5Be0Gje3KEbho/vDcTqgw9MrYWWMWssb2YTPnzwcnSnC0FXoj39E9xx+dtCu110YvanCu9VahPwVp5z/W2OFYp8Nx+mIX46Yj2/N/9AyTB70oxqEV597TtlLeMC6JvU4A2f12ddLrzu6v7YGNkfElc0tk8kz51wMXlkObB2BK7yyxsriwDliFCYlIWSMX9BizBo9/7U+RU3+QqJKk9Fl9400xbNqMv3z9M8Hw8Au76Y3HC3j+bcdj0SVltEeKoUIiIAINIeAFQQorvAzBRYb48QVJvyuMYw34u6u+GBdhVxXGWvlYb9zhRZ3KWWKM2b3lmKOWo7QwsXbKbpQwKBoYdxqgmGMe3Y8Djzod/jB7nvgBz/cA7vtvgdOO+PvWPXV2uh9Ni33fubDlYHsKkSuiGJdelxrm1h5XWEoFmzWrlzkujfZVXxsUF3XxceKUNbyxxwlqkQfQ45h7ViBR70Mi6JJywcbv4ZzCn5u3GZFjT/jtDkl9dwaRvmC/jghx0G7U/+DsRt3uRYgwTVY9DiFlhzsNeRdz+rDiioOnM6DMGj2RpREwqhYdx9u6r4bnJwrkbfJtWyJlG/Epsl9cYDjYI/bpmLxmjUo3FwWcwMqy8d/Th+Fxxdv8VYjCqJ81Y24pL0D589PYqoRRMLYNf9c9GAZLhqLiduZdhAVG1/D82cdi6tXlLt/F32M9/71UzjOMeg7+SsUFq7G6lK/hU09COr5mnM565HA9tDYuR5gjfxaokojgbWly/nPZ2OGNE5Zzj5KfoVXIlPLaV87UFLH0HLaRCURAREQgeYSMOKKDQbrBVqluEIBgS4u1nrFCi1GuPBbrXAlHL/bjF0e2Tv6g97GrEG82C3eMs5+a5fEz7cPuxs//cUvsfue/y+69x8wCCtXranB2sRzW6qpPFEXplisGGNdY6xRXLcgI+rQGsWsVERLmFigXwbLtayayzzb7mfQTuumzbECx7Fy90lfK3MO4X8R2bSlfhfijQvpDtOQGCMb8XEe45H0QN+CoviKVk3AqB67wWl/PUZup8phRZWj0OuDra74Yu7YjHnDflYtv0bHVInMxytn7wGnYx7G7uR/6HrMurW9Sfe0OXWFVrDlakh946vYmL84ZrYvzhXCoDHk6r5WokrdfPQtYAJI2X8+iixtqVPiD4/tlNu6sNQS/xmsqFJnkLOWWHCVSQREQAREoEEEIpGIcWexsVdCYVdcMa5B3mo7FB6qQq5bTExoiXcDcoPexqxAjJhi3GxctxsjwvjEl9j3DAob72bEv7/ZVoTb7xyOn+33K/zwRznRvf+Ay/DN1iJvtaKYWBK1QvEtD23EGi7dbGOreLFgXJcef9DZMEIhu2KRXRZZ5ii1PUD+SSPHCXJ3qI1Uas5TULFjZ76IbPrWCFHFChnOFcjbnOgoZC1erFhRm3hR8/l6RZVIETbNfwovPzQQ/XJzceONx+OiI3aDY8sSmY3xp3L1oprK5qdTc/7+K5L12f/inNYr2ppPQKJK8xm2iRT4z2djrbCD4j9gNosr7JCtlU7TTBbbxGOR8UpaUUVKe8abQgUQAREQgZQRiLm2ROKWMnYtV9zArNZVyAgsUZGCMU1cNx4bW4WxSVwxwxU8zPLNtE6h1YhnpRI7umKKFVV4tLuN4fLN1u0mGO0P9/oxzL7nj/Gz/TqY4LTfbCt2XX8YfNYLphuN7+KVy4pArkWKG0MmFPG59oQpKrn1NgKTYqbU+Zz5x6ocIzTe5aTO5PVlPQT8gkrzXa2shUdndM1f77MoqaEQwXw82ImxSmoSLhItUGoTL2o+X6eoEliMD2/+NXIYxyWnO35zyqk44YSDcOyB7WJlqbNs/rrUnL//imR/tu5AElaaT1aiSvMZtqkUaL5n/wHZWVF4yCYrAXYAVl2nmMLOmR2EtpZJwFpQSVRpme2jUomACIhAKglY1xcew3SLCbsCi99VyAovwXAsNgrjnlgxg5+t4EI3otgei7tiv/dbr9hz5hgI4Yuv1qD/gIH4wQ/3Mvvue+yF//r5L3D7sLuwbXtxNC4Ly2HLRFcmE9zWWqGw/GFvyWnf0tMKPFv/U+R/887xKccHfEGmLX0EkiuosNyV2DKhh7vyziVvYlmdxlnWquVCDF2dsPBx1IrFflebeFHz+dpFlSDKCk7GIU57tL91KpaVhz3YtixW4LF/D8AtG+qKkVJz/qluQTuvk7DSPNISVZrHr83eTXGFJn12UkvXGE5sm+YzmVmMtLjhD0liXSSmZLZdGpK7tSaSqNIQWrpGBERABLKXgA3Qat2EGOzWBrw1YgvFDG+VHAobxn0o6LrYuCsAMSiuuxJQ1GrErLDjnud3Nggtj64YEn8Pz61esw79LxmAdj/YHe12c/f9DzoI48Y9Z/JnHBSW0QhBXhltmW0dsreVUlMzjuM4DrXWqxwbaAyXGtZ1pWrHZM23UPHlUjQaNx9Mq4+e6DVhTcIyxeX4vnAUrn9xBXZiG5Y89Bs4zgHY//+Wg6Ff3S2C4Lpb3cCxfZ5BgdE9ahMvaj4fXjkYfRwHu984Hd/YZM1xB9aMO8Qsgdwl/+vYN4EPMfZkv7uPLdsh6Pri6tiKQAhgx8qJmLrVCi2l+PKpTnCc7uj5/nex9NLwyQorGk83HbZElaaz051wV8TxW3ewQ6MMInpQAAAgAElEQVSlB80tW7J7EMtGUcjfCdPnNqkdgZ6QlBOwHbg6gZSjVgYiIAIi0CoIRF2FrKWHcZeJdxuiiGHdhczqQlxlKMzVhuwec7+JWZXUd87e61qfTJs+A389tiecdruZpZgdZzfsv/8BGDduXDS4rN/SRtYoTXu8ON60YgqPzYvh0bQy6C6YcT/5J388VoGt009HL7PccGf8on8ernp0LMY+ehWGD3KXQ95tyFSs5//5pntw1e/awck5AT3+8ybGTpuKaa9eiiF/+iGcnFNw+pxtngtRzeJJLICtjb3itez2kbiWq/kcciUGvv0OXrv+bjyxjtYw1lIlB3td8Age+nAW5ky7H6Mv/pnrDhR1RYogsOp6nM80Op2Ong+9gTffHY1XHzwGx7Y7GN0mbvIyCqBoyl/Q3snBjwY9gRfy78c9Q97DQmsAk+IHzY6pW/L8LcUImpW8RJVm4dPNfgLWesUvVPAz1U+KFZm0YuEPBDteCifWIsUvAGWybH6G+tw4ArYDSH4n3rhy6GoREAEREIHWQ6BG4cUvwiTx8wwTo61n3MSfYyO5pjTveaElin27zvEcx3bZ5I7ePDrpvZttQf4ck6Vm24GtH9+AG0/4Udz/kZNzFDrdMB75W6y7TwBlS/9d7bp2Rw7ERdM3+ixEahNVtmPxQ7+qtvoPxZYvxnZDZ8ZNMbFTzsXglZ4tTGAxpt1+EDrZ75wO2GfAvRhx6U/g5FyDEVvNmsoAyrB52gU4l6JP9NpD8JvrXsXUMnsNgPL38fyFP4le067vWMzwfZ0avm6qqW/HVJY+82lLVMl8G2RlCShSWBEj9uPhdnr80eUkmEJLsgcV/EFgmkybbyvspNuWgT/61iJFQkrrf/Rs+0pUaf1tqRqIgAiIQDYT4ITf/9KJ4xL2YckeB2UzQ1s3viiz8e/IkZ81prN00n/keJvtkHILh0gptq+cikn5+cgvWIbCMus2k1Dn4FZsXPw28vPz8fonX2FDNNaJvS6CYOkaFBZ+g23B+EAtkfKNWF3DeaACZavfx6T8DzB1dQmsjOOmaL+bhElLvkVpxEt/c1nCdUCkfBWWzXgd+fmzUPB19e9NesFvsHbeW8if9CkWltZSR1uVJB+t5ZcEysaDlajSeGa6owkEOGiwIou/I7Rihx1ccIBB0YOTZP/O8xyM8N6+ffuatxM333yzGZDwu9rS5Hm+yWDeKf+xbwIX3dI8Amx7Pjt8ZrSJgAiIgAiIQEsnwJc+NYkrGqM0rOXIz29xzDEeX6hpyxwB+8IycyVQzskkoPZsGk2JKk3jpruSQIBCC5VQiifWqsSKJ36xpa7PP/jBD/Bf//VfZoDCifUVV1xh3vpocJKEBmoFSVhRhUdtIiACIiACItBaCCSKAxzrUCCQxUXtLZjo7kOG2jJLgON4PruybEhROxSNxZ1Hd0GXLvXsR9+MESbOS/PLYS2PJFY2jqVElcbx0tUZIsAfa3amdhJdl9DC72ihYi1eKN5okJKhhktxtvaHX6JKikEreREQAREQgaQT4KSFL5b8lhcSV6pj5hjOb5FMSx+9PKvOKRNn+PzymdWWIgJlr+HhU7qmVVThvIltyqO2hhPQf0HDWenKFkSAHay1cqF44u9s+UNQ287JNyfidAfij4VU2BbUqE0oiu3MJao0AZ5uEQEREAERaBEE/j975wIlRXWt/xqXBrNuK5c8L0kIegmGEA03oitBk79wjUhiDN4kozHyMIoSNRG5Bh+JZiQ+iEIkvk3EEMVcZAwO+ASjjq8gKgYfCIIQREAdBAOjDjoj/f3X7undc6amuqsf9a6v1pqpruqqc/b57VN9zvlqnyoncUWEFmnj0t5Pkb6eKTpJny/tTCJRafNGSP97v/32i5JJtKVGAnJ9yThKfn+4lE+Aokr5rHhkDAiIUCLhoDqdyGyIiwktcsdDBuXy4yGNN+9+xMDReRMpqsTHV7SUBEiABEigNAG5YWROcZF+S5rFFW3jtf8mN8S4RIeA+EN8k8lkomMULfGEgPiVokplKCmqVMaLR8eQgCiuIrbIj0OlU4jkeDlPzucUoug5XztcjFSJnm9oEQmQAAmQQHUEiokraREVpN8m7bqKKSIsST+MS3QIyA1M9Q9Flej4xStLKKpUTpKiSuXMeEZCCEhEijmFyP40fm0szLU07NLQm1OIEoIjlsVQUUXCT7mQAAmQAAmQQJIISD/FFBekPyJ9lSQ/oFXKbEYZS/k53SdatdoUVPbaa6+cuBItC2lNLQREwJTfGhkjcSmfAEWV8lnxyJQQkB8TuRtU6RQifTAupxAFV1FUVJEffy4kQAIkQAIkkEQC0i9xEleSNujR6SR6M0v6YVyiRcAUvUT8mjp1am4ALvu5JIOAXoeM0K/MnxyJVMaLR6eUgPywSKdGBvEyJaiSB+OaU4h4t8XbCkRRxVueTI0ESIAESCC6BKQfYu9/iNgi++O8SN9IbkypmCKD9aQJRnH2j9puF1RkW/rH4jcKYEop/mv5jZGIOC6VEaCoUhkvHk0C3QhIgyINvwzupWNT6RQiCaGMe2eoG5CAN4SddsICzprZkQAJkAAJkEAoBKTvYO9vxFVckX6UKRTJZ94hD6ValcxUhC9zWpYpeokgJt/xxmFJhLH4UvvVaXl+k5dOoajiJU2mRQJArlGRHyVzCpEO/EutpSNhTiFip8K9OumPv3DlQgIkQAIkQAJpIuAkrkh0bFz6D2K/OVAX2zkwj14NFp+Ywpf4zVy0LxafaJV38Or872L//c/BtPXvm0VJ/WfxMwWy6qoBRyLVceNZJFAxAenkSMMjUS0inpgNVCmxRe4+SUdDRBo5nx2OLvTakFNU6WLCTyRAAiRAAukhIH0C6VeY4oS0iVEXV8Q+7fuI7faBeno8GO2Sugkqar1O35J+WfSXLXhm2idhWcNRv/Sd6JsbkIU6pZ5RKtUBp6hSHTeeRQKeEZDQV+lM6BQie8dIOx3mWo4RsUXOkXPj0Yh5hqyQEEWVAgp+IAESIAESSDGBYuKKRA9E6WaM3GAybyrJNCbpB3GJJgFT/JLPxRapY9I3lb/oR0pRVLH7UaZzyThDxhZcqiNAUaU6bjyLBHwlII2TCAaiFksjJj9ypqhS7LN0VHQKkZwf/YatNoymqMJOWW0seTYJkAAJkED8CUj/wRwIS39BBrpyEyZscUUGbmKL9mGkvxK2TfH3uH8lMOtRKUFFLZB+mPhX+qLR9itFFfWZrOPjN9Pq6H2mqBI9n9AiEihKQEQSfTBupVOI5G5V0qYQmaKKfOZCAiRAAiRAAiSA3E0Vc1Bsiith8NGpBSqocIpBGF4oP0/TX5VEL0j0tPhYhJWgb+xlWxbiTw03YNbqd9D+xkLccdlY1NePxZhp87HwDfPZKaaoshUtT1+B6ZOPRX39OZh8zxpsyTpwyrZg/cPT8sfVo37yTPz2iY3Y3u3Yndjy1Ew0zFiMJW07y0g3i45tzfjb9RMwtr4e9fW/wBlzn8Wa9m6JOhjj3S4VOkUM483J2rhSVKmNH88mgUgQEEGh0ilEEnJrTiGK44+pNNjaQaOoEomqSCNIgARIgAQiREDaSX3ehbaX0v5LnyGIRSIWzGhbGbyxvQ6CfPV5qDCi4kilUSd6ftAD9Y6l9Rhg9cNnfzYJJ36hrtA/lHLUjfgNrt20Mw9FRZVB+PLIfTHQsoxjv4r9b34J20187cvxt3M/i0y34+ScQfj8Rc1YU9BANN2jMGHyYJd0s2h/5WKcdegesKy+2Hv4URh1wO6wrAz2HDMHD7cVEjUt8fSzCJvCJmg/eVqICCVGUSVCzqApJOAlAWkEpeMidxvkbpXZqdGOldNa7i7I8XKenB/0nYZKGWgZ2EmrlByPJwESIAESSAsBaSPt/QC/xRWdVqDttORf6QA9Lf6JSjlVEBGf1TKNx/S99CeDWDpFlbzYceECLGppQ7ZtJZ7+/ZfQx8rgo1MexKs5Q1T8sGANPAH1C1ZiY0c7Wtc04Kz96mD1mYRpb3bkTd6Gl2/8IjJWP3zq/AV4eFs7gA7s3PgnXPXDPWFZh2DEAy3olEAqSLd9MW767kdgDTwFpy97C7k4mo51+EfO1n2wz59XQy3wmp1cgyq01uJjr+2Ke3oUVeLuQdpPAhUSkIbOnEIknSrt8BRbi4otnSFzClGF2fp2uNpMUcU3xEyYBEiABEggIQScxBUZWHndhupdcG2j4/O63YQ4uopiSP9Q/eVF9ILclJO6JWlKH9Lvm3Qqquz+07vxshno8e4sXNjPgtX3fFy3fRcAFT+G4KCmjZA9nctmPHnRx7u/FejdW3Hxl+tg9Z2CK7eaMscuvPfEMdjfsrDbmYtsYo1bulm8/9SxGGL1wcdmLse7mr2st1+Hc/pasI67Hc+aZTCPqeGzXOfa75cbqBQ5a4BpO5Wiig0IN0kgrQTkh1buUEjHRxo/aVC1cS22lh9mOVbuQohQIw1y0Iva5nWHMOhyMD8SIAESIAESCIqAtPc6uNJ2VNrzWttS8y64pCt9CekfcIk2ATOyxAtBxSyt9BG1jslnvwbyKqr0uvyZzsgPNSK7FHN/+BFY1kQ0bBZhREUV+yuVe+7PbjgPx8m0n3HzsULT03XLNEzMWLC+ehUWfig7e57feah9//t4fd6BsKw+2PtH56I+9zwVeaZKPS44fxiO6mPBGjAdjaaGo3lWuTanAfKarBKiy2kUVVwA8WsSSDMB+RGWDpY0gqJo6x0HbRyLraVjZk4h8qsBFd+oDey0pbmmsuwkQAIkQALVECgmrlQTVSADc7OfIJ+rSaeacvCc6gmIj8wbabUKa06WSN2QvqH02SQvqXdeL0VFFTyLv57QqypRRdN0FFV2zsEl+5gCiF080RLa96uokkGvYcdg8ODBtr+vY+hU81ktmk7la+l/m6KW3Dj1s09euYXJOYOiSnJ8yZKQQGAEpHHUKUTSSNrvdqnQYa6lEZVj5QddGlOvGm3NQxoNLiRAAiRAAiRAApUTkOk65sBa2la5OVKuKCLtunk+pxZU7oMwzpABtimE+SF2mOWSvqP2GWUt+Xk1yFcBpEekyq4HcfPhu8PK/BzTWiSkxC5yqIUO+zc3YJxEqoy+FUts03EKUSyF7xzOzyVt36+iyj4YeNv6/PNY1AZv1nLdSr9Yr0npf0vfnYt/BCiq+MeWKZNA6giIUCIdM51CpIJHqbU0qvLALPnxl8a23A6cwtW0KaooEa5JIBoE5Fr2u4MejZLSChJIBgG9q60DMW1f3QQS+V6PlXN53cejPgQtqJhUpI6ouCJ1RvqNlfb/zPTks4oqdd+ajlu3ygNlZcmifeUZGC3TdEbejObcA1TsIkf+UCex5YMmXDVsN1iZEzH5FX17kBy/A6/OORB9rL7o+8dV+YfKlp/urlWnY6Q8j+XE+XjBJtaoNdWspR9uXo8ipnh1E7Mae9J0DkWVNHmbZSWBEAhIIyk/6CJ6iHhi3hHRTpjTWhoCaRhEpJHzi93JkOPkfIoqITiXWZJAEQLmXW+5RmvtLBfJhrtJwBcC2q44tU3cZ75+lp9L1Yeo90v0DTBSBhE1wlhEXDGvN7GpWlFORRUpT91hZ+Hk2xfjkbvPxJRvymuLh+KgptfyD6UtX/wA2vB606G51yN3pvkgHnroJjT97hAMz8irmi/HrdtyD1SpLAIm+yzumrB352uZfzEb1y5qxoIF89C88DxcfupgfGV2+W//kfZV2lwVqaT80n+mmBJsjaaoEixv5kYCJJAnIGGI0nBKp0MaVLMxKNZJkbsZcqycI+dKg6GNcdQ7L3Q8CaSBgHTu9Jo0r2O5dqXTx4UE4kDAqQ6b9ZmfKaaUUwei3C8xoxnkc9iL9AnFDmkrhK2sZbuS5+WpqPKRs6/GH0/6ODIybUf+Mt/A0FnPo6UQEVJMVNmK5TM+0/3tPwImuwkv3votfGffukJElmX1Re/jr8JNm3IvQ87jqyzdbOt9mHtmfwxQO/PruoNOwclPvlVyWpDcaJR+sCmMST9a6hxvYoRTmymqhMOduZJAxQTKacB5DDt6TnWg4srGE0igCgJmdIrUQ4lKk7ufZp2UwSo7fFXA5SmBElBRRdYySEn7n1zHpaJMjzzyyNQzMuuI3iSSfVFcTEFFBuVRW+xigbQhYqe0MaXaDxVV5JkqHdlt2PjUnWhsfBSPvNlmEyiy6NixDitWvI4tHQWlJYch27YRax32yzSijtYVeP7hO9DY+AAWrXoLO7qfmptqVHm6O9G64RE0NzZ2pvtST5vUPyI8SZ0yr0UVn/i8FKUU3pqiSnjsmTMJVETAHJjwM8WTSupARRWNB5NAhQTs0SnSyTMHE9LZs3cCGbVSIWQeHigBFVXMehyoARHNzIwOlTboox/9KKcYOPgqyvVHBAvtP8jvcrGp1Q7FCnyX2CaRKmYEi9guopXsk7KYIospqpjxI4Eb7lGGcr1JWymCkkbwaPlF6OT0Ho9Ae5QMRRWPQDIZEvCbgDaCXFNQqbQO+F03mX56CdijU2QwoZ1cEVOk06uLDFDNumseq8dwTQJRIGAfFMsARvbxr5PBl770Jey333449NBDycSoF/p7Z68/UajTYkOcBBUnZtKmSJujfLU9EcFB9s2dOhj9LAsf+eW9iJuoIgKJ+Ed/a7RsspbyibAi32v76sSH+8IlQFElXP7MnQTKJmD+wJZ9Eg9MLQHWl9S6PpCCO0WnmNEnpoAinV3tCDJqJRD3MJMaCeigTSNVdNv8XeVn3uCw1wF7fdHtGqujJ6fLoF3tlUG6/iZ7knhIiajIIlErZjSkllP2iRghfhBBQhjIOWEtkr/8iT3yJ78rOlVMbZa17BdxhSJKWJ6qLl+KKtVx41kkEDgB8wc38MyZYewIsL7EzmWxMdgtOsWpcyud+GKii3Yik9DJj40TaWhJAiqi6KBYt/VBkDoo4prPm5E6oO2tvb7odsnKFsCXIiTIb7DYKeswhQW/iyuihYgRwr6YaKH+ku/1T443/1SEUSGk1FraNvNcjTaRtJ3aQ83fFH1kmlOS/eK336OQPkWVKHiBNpBAGQT0R1jWXEjAjQDrixshfl8pgUqiU6T+SYdSOppmXZR9Kp5IB9LscNqFl0rt4/Ek4BUBqadSb6X+yqLbsuZCAnYC+htnry+6bT8+yO00CSqluEq7Ywou4hu5nvVPfejFWtoyTVcjZSQ/EU7Ehig/x6YUQ35XmgBHZ6X58FsSiAwB84c+MkbRkMgSYH2JrGtiaVgl0Sl2ccRNPJHOpllfpTOqwkssYdHo2BOQOih1UgfFui1rLiRgJ6C/X/b6otv244PalsG7KVxL9AWX8gioCFMqQkW/Ky9FHpV0AhRVku5hli8xBLTRljUXEnAjwPriRojfl0NAOpY6oJQ6ZRdMKhFESh3rJryUYyuPIQGvCGid10GxblNU8YpwstLR9tZeX3Q7jNJSUAmDOvNMMwGOztLsfZY9VgS00ZY1FxJwI8D64kaI37sR8EMEcRNPSuXpZi+/JwGvCKiIooNi3aao4hXhZKWj7a29vuh2GKU1I1TCtCOMsjNPEgiDAEdnYVBnniRQBQFttCmqVAEvhaewvqTQ6R4VOQjhQzr5Zh2VwapO+XHL36NiMhkSKEpARRQdjOo2RZWiyFL9hf6W2euLbgcNR96GozbJZy4kQAL+E6Co4j9j5kACnhDQBlLWXEjAjQDrixshfu9EIEixw0k8MQchpWxxsp37SMArAiqiaH3UbYoqXhFOVjra3trri24HWVoKKkHSZl4k0EWAo7MuFvxEApEmoI02RZVIuykyxrG+RMYVsTDESeAI6hXIdvFEwtbFHlnc7IoFXBoZOwIqouigWLcpqsTOlYEYrO2tvb7odiBGALnX1qst8jvKt8wERZ75kABAUYW1gARiQkAbSllzIQE3AqwvboT4vRKwixoycAx6Ko6IJzpw1bprDkhK2ajl4JoEvCKgdVHroG7LmgsJ2AnYf7O0vmj9sR/vx7a82UftoKDiB2GmSQKlCXB0VpoPvyWByBDQxlLWXEjAjQDrixshfu8WBRKGkGF/dTOjVlhPwyBgHxTrNkWVMLwR/Ty1vVURReuLbvtdgqampoKg0r9/f0ao+A2c6ZOAAwGOzhygcBcJRJGANtoUVaLonejZxPoSPZ9EyaJSgomb2OJ3OeyvcZa6bA5OStnut21MPx0E7INi3aaokg7/V1pKbW/1d0rri25Xml4lx8vvtbzqXmyQtWxzIQESCJ4ARZXgmTNHEqiKgDbasuZCAm4EWF/cCKXzezfBJEqCRamoFbvwIoMJ8xkw6fQuS+0VAfugWLcpqnhFOFnpaHurIorWF932q7QUVPwiy3RJoHICHJ1VzoxnkEAoBLTRpqgSCv7YZcr6EjuX+W5wKcHETWzx3bgiGdjFE6nX5kDFLrzIYEafB1MkSe4mAVcC9kGxbsuaCwnYCWh7q79NWl902368F9vyEFqNUJH8ZQoQFxIggfAIUFQJjz1zJoGKCGijLWsuJOBGgPXFjVB6vncTTEqJLVGhZBdPzGet2IUXRq1ExWvxtcM+KNZtiirx9amflmt7qyKK1hfd9jpvEVTkN1DzlYfUciEBEgiXAEdn4fJn7iRQNgFtPGXNhQTcCLC+uBFKx/elBBM3sSVqhOziidRxc9BiF15kYMOolah5MR722AfFui1rLiRgJ6Dtrf4eaX3RbfvxtWzbBRVOe6yFJs8lAe8IcHTmHUumRAK+EtBGW9ZcSMCNAOuLG6Fkf+8mmJQSW6JOxi6eMGol6h6Ln332QbFuU1SJny+DsFjbWxVRtL7otpc2jB8/vhChIp+5kAAJRIMAR2fR8AOtIAFXAtpoU1RxRcUDgEKni/UlfdWhlGDiJrbEhRajVuLiqXjaaR8U6zZFlXj602+rtX+mIorWF932Kn8KKl6RZDok4D0BiireM2WKJOALAW20OUj2BW/iEmV9SZxLXQvkJpiUEltcE4/oAZVErcg14fUgJ6JYaFaNBOyDYt2mqFIj2ISeru2t/r5ofdFtL4pt/n6zHnpBlGmQgLcEKKp4y5OpkYBvBLTRljUXEnAjwPriRihZ35sdbvG9dLr1eSJuYkvcSVQatWJOF4p72Wm/PwTsg2Ld5mDWH95xT1XbWxVRtL7odq3lkwfRah7y+yXPVeFCAiQQLQIcnUXLH7SGBIoS0AZV1lxIwI0A64sboWR87yaYlBJbkkGgqxSMWuliwU+1EbAPinWbokptXJN6tra3KqJofdHtWspNQaUWejyXBIIjwNFZcKyZEwnUREAbbYoqNWFMzcmsL8l3dSnBxE1sSSodRq0k1bPBlss+KNZtiirB+iEuuWl7qyKK1hfdrrYc8jsur4iX9GUt21xIgASiSYCiSjT9QqtIoAcBbbRlzYUE3AiwvrgRiu/3boJJKbElvqWuzHJGrVTGi0d3J2AfFOs2RZXunLjVSUDbWxVRtL7odjWcKKhUQ43nkEB4BDg6C489cyaBighoo01RpSJsqT2Y9SWZri8lmLiJLckkUrxUjFopzobflCZgHxTrNkWV0tzS+q22tyqiaH3R7Uq5yG+XRqhI2s3NzZUmweNJgAQCJkBRJWDgzI4EqiWgjbasuZCAGwHWFzdC8freTTApJbbEq6TeW8uoFe+ZJj1F+6BYtymqJN3z1ZVP21sVUbS+6HYlqcpDaOVhtJqmPFOFCwmQQPQJcHQWfR/RQhLIEdAGVtZcSMCNAOuLG6H4fF9KMHETW+JTSn8tZdSKv3yTlrp9UKzbFFWS5mlvyqPtrYooWl90u9xcKKiUS4rHkUD0CHB0Fj2f0CIScCSgjTZFFUc83GkjwPpiAxLDTTfBpJTYEsPiBmIyo1YCwRz7TOyDYt2mqBJ71/pSAG1vVUTR+qLb5WY6evToQoTK+PHjyz2Nx5EACUSAAEWVCDiBJpBAOQS00aaoUg4tHsP6Eu86UEowcRNb4l1y/61n1Ir/jOOeg31QrNsUVeLuWX/s1/ZWRRStL7pdTq4iomg6FFTKIcZjSCBaBCiqRMsftIYEihLQxlbWXEjAjQDrixuhaH7vJpiUEluiWaLoWsWolej6JmzL7INi3aaoErZnopm/trcqomh90W03qydNmlQQVCRahQsJkED8CHB0Fj+f0eKUEtBGm6JKSitAhcVmfakQWAQOLyWYuIktETA/liYwaiWWbvPdaPugWLcpqviOPpYZaHurIorWF90uVSh5EK2eLw+oleeqcCEBEogfAYoq8fMZLU4pAW10Zc2FBNwIsL64EYrO926CSSmxJTqliLcljFqJt/+8tt4+KNZtiipek05Getreqoii9UW3i5WSgkoxMtxPAvEjwNFZ/HxGi1NKQBttiioprQAVFpv1pUJgIR1eSjBxE1tCMjmx2TJqJbGurbhg9kGxblNUqRhlKk7Q9lZFFK0vuu0Eobm5uRCh0rt3b8jvDxcSIIH4EqCoEl/f0fKUEdBGm6JKyhxfZXFZX6oEF9BpboJJKbElIBNTmw2jVlLr+kLB7YNi3aaoUkDEDwYBbW9VRNH6otvGobmP8vsvQoqcJ2vZ5kICJBBvAhRV4u0/Wp8iAtpoy5oLCbgRYH1xIxTe96UEEzexJTyr05Uzo1bS5W97ae2DYt2mqGInxW0hoO2tiihaX3TbpGQKKnIeBRWTDj+TQHwJcHQWX9/R8pQR0EZb1lxIwI0A64sboeC/dxNMSoktwVvLHIUAo1bSWQ/sg2LdpqiSzvrgVmptb1VE0fqi23q+PIRWHkarx8szVbiQAAkkgwBHZ8nwI0uRAgLaCMuaCwm4EWB9cSMU7PelBBM3sSVYS5mbnQCjVuxEkr9tHxTrNkWV5Pu+mhJqe6siitYX3ZY0KahUQ5bnkEB8CHB0Fh9f0dKUE9BGm6JKyitCmcVnfSkTlM+HuQkmdrFl9OjRfKWmzz6pNpbV3GoAACAASURBVHlGrVRLLn7n2QfFuk1RJX6+DMJibW9VRNH6ottig+6TY839QdjHPEiABPwnQFHFf8bMgQQ8IaCNtqy5kIAbgXjWl3a8veIuTD/rJJw4+S9Y8V7WrZiR/t4umEinWt/w4CS2NDU1Rbo8NA45/5mDI/sAqZTwkhR+bW1tuPTSSzFlyhTMnz+/aLGkjssxt9xyS9FjovqF+lgHv7otay4kYCeg7a29vuj2+PHjC1N+5DMXEiCB5BHg6Cx5PmWJEkpAG21ZcyEBNwJxqy/Zd9bioetPw8EZq7Pz2fd8PLRjl1sxI/m9k2Aig21d7GILo1OUTHzWpcQTt+lC8Smls6WrV68uDBDld0bqu9Migot8L8JK3BYVUXRQrNsUVar3ZLZtI1au3Iod8dbKHQFoe2uvL7JNQcURGXeSQOIIcHSWOJeyQEkloI22rMNdOrBz/Z8w65wDMWLfus7O9YARGHzadEx9+k3sDNc45p4nEJ364uaS97Fl2a04a3g/WJlDcOJF/4sf9LFgxVRUsQsmMgiLV3TKGjx6/qdQ94WfoWH9+z2dt+1aTPnsHuh9fjM29Pw2VXvcxJNSwkucQdlFFREFnRaKKk5Uqtnnck1Wk2Tg56zGg5P7wLKGYfjilsBz9ztDbW/tosqRRx5ZECDlAbXyXBUuJEACySQQ9ugsmVRZKhLwgYA22uGKKu1off5MnPgFEVMy6DWsHsN+9F2MG/lJDLAsWJnjcPqqNh9KzyQrJRCN+lKG1btW4eaRA3DwxOvx4Opt6NjxEM7pGz9RpVR0inSk7WJLdKNTnsVfT+gFyxqO+qXv9HTg5gaMk2t93Hys6PltKveUEk/chJc4ArOLKvJbs3jx4h5FoajSA0mVO1yuSZdUd736a4zfsx/2nb0K7S7H+vf1Bjx9yedRV3c06pe+7V82IaWs7a1dVNH9FFRCcgyzJYEACVBUCRA2syKBWgho4yzrsJbsmzMweb86WJlvY9Q9/8T2QhhvB3ZunIdbvn8YzlhJUSUs/5j5RqG+mPYU/Zx9B6+t2oh3tC7FUFRxEkw0OqW5uRn9+/cv3K3s3bs3ov3sFJcBHEUVx6rsJp7YhZcBAwbgpptugtSPuPxpwU1R5ZprrsnV7YMPPhjyrBVzcRJV4lJWfe2tTN0Qm4cOHZorZzjTf1yuSRO6w+eOpfW5mx69Ln8GDrFnDmdwV6UEtL1VUeXLX/5yt998RqhUSpTHk0D8CIQ3OosfK1pMAqES0EY7PFFlC56b8TlYVh/0+e3TKOdeU7b1aTz2lzMxub4e9fVjMWbaHbhj47vQ8XMOaHYNnpk1FVPvfwXvtT2PJ/88EWPr63HsRbdjwZvSBcyiY9vDuG/mONTXn46Tr38IS1o/7O4LI4229pex7P/yeU6eid8+/UaPKUnZthexbEEDrph8LOolr4YbceVT5tSlndjy1Ew0zFiMJW070fL0FZieO/YcTL5nDbZoAdqW4P4ZDZjatBItui9vWba1GU1Tp+Lyp1oQxpNBwq8v3V1U9laMRBWn6BQVTKQTPWnSpELHWvwR3egU0zsuAzgnUSW7DZuW3oBbLxmbu57qx16Es+94FmvazYviLbxy76VomHEPmotcvw1/egZrC6e04V8rbsJNFxzfmWaRa9m0PAqf7eKJDM71mSP33nsv9txzz251wrxOo/5Z+ZqiyrZt2wrlERHFXJxElaiX0c2+aIgqZbZPaMXmx2dg7tTB6GtZ2H3sFbhgxgyHa1Da2Gb87foJuba3vv4XOGOuef0a+b23DStv/ynG1p+OCU1r8C7Kva7bO9vUhrlY2GLGy7jlLV2Azj5C998HAO0v4u9/nNqz/dX997+C7WaF9PGz1hsRVeR633333XPXRa9evQrXv4/ZM2kSIIEIEKCoEgEn0AQSKIeANtqyDmX58D7ccOhusKx6nL7K7ckpWbRvugoXfnOPQoe7YP+AH+CYh9/oEho6GjF9gAXr22fhlyfs1e34uhEX4y9LL7elk8Ge427H381+WYk0clE1i1/rElZa/4IrnOzKfBvfLti1Bc9M+yQs6yhMmDwYA2W6Q+Hvq9j/5pc6O2sfNOGqYbvB6jMJ097sMNzyLjbM+Qoy1gDsd9u6rrIaR/j9scte0/bofC5afhdRJcrl0ruRcmc7XtEppjcqFVU6w/ozhetD61g/fOpXD2FNQSRRUXZ/DF2wqZuwmn31PByfsVD3o7lYljv+baz7639juDy0ODMUnxv1OQzNPcDYuPZMkyP2uVjUigzIo1x/3WxTzKaoIvuKRaskUVT54he/qBgCXNuvyTLbJ7yAuyd81KHOjcKYf7ybtz+L9lcuxlmHSlvdF3sPPwqjDhBBIIM9x8zBw21yQWp+38aJEz6PwrWemwLYmr/Z4nZdt+bbVHNaYTl5i6jyPO465d969D12rTodI+V3p+/5uG673rrI4oNnx+IQK4N/+80SbAvIS3rtTJw4ERKNaG4HZAKzIQESCJlASKOzkEvN7EkghgS0kZZ1KEvLNEyUgU2/Bsx6tzBScjalfTFu+u5HctOEjrxjJTZ2ZIHsNmx+7EQcJw8hHXQBrtuajzZRQUQ6cT++Bjet2Y72nS/g0Uv65ztv/fCpyfOw8I330P72Asw6XjqJ38CRzVu78jbS6PWdizHtuTfxTnY7Wp6c0DO/1nmY/t8XouGJ9WgRu9CGt5/7OcaJXd+4AYtyZmkn0oI18ATUL5AytKN1TQPOkulPBRFlK1ZcvS8su3iSXYK59b2M47pMDeqTWV+i+LkohxiLKsI5ntEppjd0ALc/Bk+9JfcsGLn7qn9zrx6O4TKQKTxTZQOeuuy7OHbOk1i2Q5TOLDoK1+lonPzCe/nEdbBjYbeJd2N14SdEBchBOKBxA3Yhi/aVZ2B0XR32HDMLC7bm09zWiOt+uCeszBhMfiUekxgkaskcYJnX4dy5c2EXWXTqgOmNKH62iypmtIoILLo4iSr6XdTX6hvxiX4W/33iE58IwXS9JlWQKLd9yqJjxzq8dveR2Mey8JELFmH5unVYsdZ4A4+21QNPwenL3uqcHtSxDv/4/ZfQx9oH+/x5NXYVRBUROb+NI+9YjpfXL8HiZRLdWd51nS2koWWQSJN8P6FE3p23KvQ3oh/6z34lf5NC94mIOwxHNqt8sgOrbxxg2+e/y/TaNuuK7IvLNe0/IeZAAsknENLoLPlgWUIS8JqANtqyDmXRsP8B09FoBmX0MGYX3nviGOwv4caTFmF9YfAkB27EkgaJABmCYfe82XmmCiJ9p+DKrV0JF+5CHXEjFhWmEbRj2z3fRB+rL/r+cRUKRxfSOAvT3jBDWF7Fo7+UNw4MxfDFb/WwtLAj+xhuPXoPWPtcijk7xWDttA7BQU0bjUiTzXjyoo93e4jnrlcm45hud9kBvfPeffBYyC2QD2Z9ieLnohBiLqrYB9ISsSKRK/FZdACnESdF1gVRxalk72DdnwblxM/vPW4E4O96EDcfvnt3sbGHAPkGnrnsP3JRYmP+YT4otwM7Hjgcfa19MPC29d0iXZwsCHuf0/Qv8zo844wz8OlPf7pwR1s+y9ShKD9zRJnaRRXZrwKKlFFEFnOf+UrlKJfPtM18pop+lrKJn4Jf9JpUQaL89klsLf5MlSzef+pYDLH64GMzl0NjV3Ll235d5wPDj7sdz2Y1ymQffP7q53pOqSnrulabtQzl5t1JW9vUrmi2VVh0RiZ//WSQufwZ5H4ttC3vFr3iv8f02pYpniKsSEST7KOo4j975kACUSEQ0ugsKsWnHSQQHwLaaMs6lKVsUaUNG247IBe9MbjxNZupH2BL09eQsTLYa+Zz+EC+VUHELtZofrbBm2MHsVgaKGZLG95++S9ovOHc3HNVpkz5FsZ8VaY2TUTDZpFq7B1ALYbDfh0UFu6g650yFyFHk/RpHXp9qbZcLqJKtcl6fV4p8UQG1NK5Nn0gESw6PchrW7xNTwdwQzHspmY0NjZ2+1t6Vz2O6hapIrnLcxGewEO3/QZ/uGQsTjrpB/hlvYiZA9D9N0Cvja5pcTpY6hJgNf9hGDy5ofN5KrlnMtXj4lM+hz6Whag/cFMG5+b0LxXW5KGnZp2I22etZ06iijykVh5WK2XSaBUVWkxRJW5lttsrAkvwi14TKkg4tEM5o5z3O7aZuePfx+vzDsw9J23vH53b7Vq74PxhOEqiN3Pt8jsOU3dMCuVc13bbys07n4+KJRol+u4sXPiZOmQuuQFXi1B7yNVY+EEW2U0NODFjYfcpD+F100SfP2s9URFFI1Z02+fsmTwJkEAECIQ0OotAyWkCCcSMgDbasg5lkU5MPwn//SkaNpnRIHZrtPNkH1DJcVnsfGJ0LhS5MDAqJoh4Iqpox82wpX05HrzwPztfAW0NxCdH/g+OOOI/cdi+8proKkQVvI83m4YVomd26V27QRdh1g6d521n5P926PWl2iLGRFSR4rmJJ6WEl2rx+H+efQBny7HHddmKzYt+gKNz14+8Zv0YDB36JfzP1+SBrMZ1l09GRZTOO847se5PX0KmWySZ5t95bQ4ePBjd/36E4wrPPrLZFvKmU3SKKabddttt2GMPh+dM9XgeTZHooJCPU7xOoop8pyKK/PbIMbqdBFFFHzwqg+XgF70m/BJVOq/b7teZXHdfx9CpzViT3eEiqnRFZxa/rrVfoGXQttktb6Wtwo3crGjJR9jI53X5Z7rIs97eybfFRiSsnu7zWttbFVEoqvgMnMmTQAQJhDQ6iyAJmkQCESegjbasQ1kKD4vTZx8Us0I7S+b8Zz1WI0eM73wVVbQjNggHLtgkYTFobf4OBll90PsX92BZm4oe2mmtRlQBsPVKnNXXgnXEjXju+dMwMuCH5Cldcx16fTGNqeRzjEQVLVYp8cRNeNE0orPWa0EHPzbL7KLKjptwoTxn6OBf4rfr9c1e+hvQU1RBIbLrJJz3z2Wd04H2vwxz3tN5gpr/T3DehlLirc2ukDeLRaeIWfGrA6VhFhNVzGgVEVKcRJXSKUfnW/ugWLeTKaq4TamzCyIOfnK9ru1p6G+EW95deemU4N2n3I2l8tyUXNRKe15gkT7FY/jb2Xt3n17Ydbqvn7S9pajiK2YmTgKRJhDS6CzSTGgcCUSSgDbaoYkq+ADbFo/EILlbevAFuHKT7Q1AHa9i5e2/wm9fas0/fd9C3XFzur+lp/0JzB0jD5o13iDkpaiSGY36x1o6H7YnXtQH4RXy02c92AZ77X/DrO/IHeQqRZXCs2KGYdQoeebKKNQvNZ4lEUKNCr++VFnoGIoqUlK3KIVSwkuVpHw6TUWN8kSV7NrJGN1jOtDbWH3jfo6RKihEdg3Af/7khxjRQ4DsEkI7H1zrUzE9SjY5fi8fSDFRRVJ44oknClOcRFiR3yEzUqX8XMI9UkUU+yA5jqJKlxjRc0qMfrfbifPxguqaPdDbBZEeB8D9uu6ZRnl5G3np2/b2H43v//cesEbfiiVicz6Ktm70D/GDfvYHYRvn+/hR21t7fdFtH7Nm0iRAAhEhQFElIo6gGSTgRkAbbVmHtmRX4pHzPtv5Vp4B38OwC67BeVfPxKzpP8TPjhCxJB92m30Wd03YG5bVD5/86bWYdm8zHr/vElx76n8gY/XDpy56HBu0A+elqCKDu8wRGPa7+Vi46PeYfeZncs9v2fPUu/BiLj+NVJHXRV6Ha5sfweMPXo5rx388/6ahakWVXXhv6XEYpuH5+fndofkJKAxsQq0v1QCIqaiiRY1/xEJlogo0UmXgBJx87xN44IFbcM/vDsLBuVcg28RLhfTmNPxUnteQu16OQvcH0gLZTZfitC/UwRrwfRx5472Ys3gxHnjgVtz3hzE4beA4nP2KTdDVdANex9/X1QErJapIivbnCVFUqY5z11n2a7KnQNF5bJH9W6/EpNxb936Kk+9ejIUXnYvr1+ffoFVoqwfh87+YjWsXNWPBgnloXngeLj91ML4y23z7TxGhVQ0teV072FZG3oWH0efy0Neyy2+H+bD6tXhIIlRyvyddz2tSs4JYd+bd9WBauygXhA3MgwRIIFwCIY7Owi04cyeBuBHQRlvWoS7tL+Dv14zAd3LPUNCBkYW6A3+EI//4FNbk39STbb0Pc8/sn392Sf64zCHY//KH8WLhbT7uD6qtm3g31hgF7nzonvGgW/lOhZl9zsKMa7+WH9B1drx6nzwH97fmX98sx3Z7pkr+mJ9chmkn7QUr83NMa5FjHTqAORu2YvmMz3R7+0/BtA/uxvVy98zqi/+49kW0Fb4I50Nk6otb8bNbsey232P69OmdfxdPxHAZkGdGYOLFV+T3/wGL/qmv5nVLMPzv4x298ALuniACqfk6ZINpfvpP13VpPlOl8zqvO+g0XP7rIehn6bQ743z5mH0ZD579sdwgqG7kDbj/A1VY9bh2tD7/K0zJCbX5347cgKkveh9/A+ZtM65nPSXAdbz9WzsoN1HFjFaR3yGKKrUyt1+TlbZPW/DyrAMxUEX/zHE4fVVXC+XYVlsW6g46BSc/+RYcX4fsVKSS17Wzze55mxnpG4PkN+EI1C/dkf9Sn2sm7cZJOO/V3CPwzRN9/6ztrUamUFTxHTkzIIHIEQh5dBY5HjSIBCJLQBttWUdhybatx+on70Rj40IsXL4RWzrsAyOxcidaNzyCZnmDyMKnsHTrTodXoe7Ejk0rsWJza9e0HTk1uwNbV67E2h225yp0bMHmFa9iY+F5KIaokntTwS60vfYgFopdz72BHU5miV1rFxvHZNGxY51hQ357xes9ypVt24i1DvuRfQZ/HWub2hSio6JWX4qiyP4Ttx8/oFtkjWl75+fhuOTJfxVNIqpfxDOSIV/31251vnYcr0s5ZzmeWtiIxuaXsFauzdx12vP6UV91Xkdre17feoCsO1qwcfldnW8fWvgUlrxu+40wjw3os0zjcnqzj2QvYos9SsN8UG1AJvqejZuoIgbo1B+5fimq1OoS+zVZRftUaPMewKK127u3tTnzjLa68QEsesm8dovnZy9Z8eu6VBql8rblIL8/a1dghf33Kfd7s8Jow23n+bypbRZFFZ9BM3kSiDCBaIzOIgyIppFAVAhooy1rLjYCGqlify2z7TA/N7u/1cTPnMpLm/WlPE5+H5X2qAa/+QaVvptgEp9n5nhDTIQV+Su16DHbtm0rdVgkv7NHGui2rLmQgJ2AtrcUVexkuE0C6SHA0Vl6fM2SxpyANtoUVRwcGbqoshUrrt4392DO/W5bB32nkIOlge1ifQkMdVkZxTNqpayiJf6gUoKJm9iSeDgJLaCKKPZBMkWVhDq8xmJpe2uvL7pdY/I8nQRIIAYEKKrEwEk0kQSEgDbaFFUc6sOuZbj//GNR/8tFeDYURWMj/vGHMagf+0c0hvy8B6XD+qIkorN2ilqR6SKyX5ZSg/folCI9lrgJJvRXcusCRZXk+taPkml7qyKKvf74kSfTJAESiBYBiirR8getIYGiBLTRpqhSFBG/MAiwvhgwIvbRHrXSu3fvnKAiZspAfvz48d1E1CQ+lyNiLulhTinBxE1s6ZEYd8SOgH1QrNuy5kICdgLa3lJUsZPhNgmkhwBFlfT4miWNOQFttCmqxNyRAZnP+hIQ6CqzkYG5iCWmn8yoFbvwIg9HlX1c/CXgJpiUElv8tYypB0lARRT7IJmiSpBeiE9e+jtury+6HZ+S0FISIIFqCVBUqZYczyOBgAlooy1rLiTgRoD1xY1QNL63iyf2qBW78MKoFf/8VkowcRNb/LOKKYdBgKJKGNTjm6e2tyqi2OtPfEtGy0mABMolwNFZuaR4HAmETEAbbYoqITsiJtmzvsTEUfkpP3bxhFErwfnPTTApJbYEZyVzCpKAfVCs27LmQgJ2AtreUlSxk+E2CaSHAEWV9PiaJY05AW20KarE3JEBmc/6EhBoD7Nh1IqHMMtMqpRg4ia2lJkFD4shARVR7INkiioxdGYAJmt7a68vuh2ACcyCBEggZAIUVUJ2ALMngXIJaKNNUaVcYuk+jvUlnv6XgTyjVvz3nZtgUkps8d865hA2AYoqYXsgXvlre6siir3+xKs0tJYESKAaAhRVqqHGc0ggBALaaFNUCQF+DLNkfYmh0wyTGbViwPD4YynBxE1s8dgUJhdRAvZBsW7LmgsJ2Aloe0tRxU6G2ySQHgIUVdLja5Y05gS00aaoEnNHBmQ+60tAoH3MhlEr3sJ1E0xKiS3eWsLUok5ARRT7IJmiStQ9F4592t7a64tuh2MVcyUBEgiSAEWVIGkzLxKogYA22hRVaoCYolNZX5Lj7EqjVsaPHw8RELh0ESglmLiJLV2p8FNaCFBUSYunvSmntrcqotjrjze5MBUSIIEoE6CoEmXv0DYSMAhoo01RxYDCj0UJsL4URRPLLyqNWjFfzRzLAntktJtgUkps8cgEJhNDAvZBsW7LmgsJ2Aloe0tRxU6G2ySQHgIUVdLja5Y05gS00aaoEnNHBmQ+60tAoAPOptKoFfPVzAGbGnp2pQQTN7EldONpQKgEVESxD5IpqoTqlshmru2tvb7odmQNp2EkQAKeEaCo4hlKJkQC/hLQRpuiir+ck5I660tSPNmzHIxa6cnE3OMmmJQSW8x0+Dm9BCiqpNf31ZRc21sVUez1p5o0eQ4JkEC8CFBUiZe/aG2KCWijTVElxZWggqKzvlQAK6aHMmqlp+NKCSZuYkvP1LgnrQTsg2LdljUXErAT0PaWooqdDLdJID0EKKqkx9csacwJaKNNUSXmjgzIfNaXgECHnA2jVjod4CaYlBJbQnYhs48gARVR7INkiioRdFYETNL21l5fdDsCJtIEEiABnwlQVPEZMJMnAa8IaKNNUcUroslOh/Ul2f61ly7NUSulBBM3scXOkdskIAQoqrAeVEJA21sVUez1p5K0eCwJkEA8CVBUiaffaHUKCWijTVElhc6vosisL1VAi/kpaYtacRNMSoktMXc1zfeZgH1QrNuy5kICdgLa3lJUsZPhNgmkhwBFlfT4miWNOQFttCmqxNyRAZnP+hIQ6Ahmk4aolVKCiZvYEkGX0aSIEVARxT5IpqgSMUdFxBxtb+31RbcjYibNIAES8JEARRUf4TJpEvCSgDbaFFW8pJrctFhfkuvbckqW1KgVN8GklNhSDjceQwJCgKIK60ElBLS9VRHFXn8qSYvHkgAJxJMARZV4+o1Wp5CANtoUVVLo/CqKzPpSBbQEnpKkqJVSgomb2JJA17JIPhKwD4p1W9ZcSMBOQNtbiip2MtwmgfQQoKiSHl+zpDEnoI02RZWYOzIg81lfAgIdg2ziHrXiJpiUElti4B6aGEECKqLYB8kUVSLorAiYpO2tvb7odgRMpAkkQAI+E6Co4jNgJk8CXhHQRpuiildEk50O60uy/VtN6eIYtVJKMHETW6phxHNIQAhQVGE9qISAtrcqotjrTyVp8VgSIIF4EqCoEk+/0eoUEtBGm6JKCp1fRZFZX6qAloJT4hK14iaYlBJbUuBGFtFnAvZBsW7LmgsJ2Aloe0tRxU6G2ySQHgIUVdLja5Y05gS00aaoEnNHBmQ+60tAoGOaTZSjVkoJJm5iS0zdQbMjRkBFFPsgmaJKxBwVEXO0vbXXF92OiJk0gwRIwEcCFFV8hMukScBLAtpoU1Txkmpy02J9Sa5vvSpZ1KJW3ASTUmKLV0yYDgkIAYoqrAeVEND2VkUUe/2pJC0eSwIkEE8CFFXi6TdanUIC2mhTVEmh86soMutLFdBSekoUolZKCSZuYktK3cZi+0jAPijWbVlzIQE7AW1vKarYyXCbBNJDgKJKenzNksacgDbaFFVi7siAzGd9CQh0QrIJK2rFTTApJbYkBD2LEUECKqLYB8kUVSLorAiYpO2tvb7odgRMpAkkQAI+E6Co4jNgJk8CXhHQRpuiildEk50O60uy/etX6YKMWiklmLiJLX6Vn+mSgBCgqMJ6UAkBbW9VRLHXn0rS4rEkQALxJEBRJZ5+o9UpJKCNNkWVFDq/iiKzvlQBjafkCPgdteImmMycORO9e/eG1uH+/ftDxB4uJBAUAfugWLdlzYUE7AT0t4qiip0Mt0kgPQQoqqTH1yxpzAlooy1rLiTgRoD1xY0Qv3cj4EfUSqnolPXr1xciBLT+Tpo0CSLCcCGBIAmoiGIfJFNUCdIL8clLf6/s9UW341MSWkoCJFAtAY7OqiXH80ggYALaaMuaCwm4EWB9cSPE78sh4FXUSqXRKUOGDMHy5cvLMZHHkIDnBCiqeI400Qlqe6siir3+JLrwLBwJkECOAEdnrAgkEBMC2mhTVImJw0I2k/UlZAckLPtaolYqjU7RgUnCELI4MSJgHxTrtqy5kICdgLa3+tul9UW37cdzmwRIIHkEKKokz6csUUIJaKNNUSWhDva4WKwvHgNlcrlpODIdx6xbo0ePLkzPcRJe5HvzeHM6j/3ZKYxOYSWLCgH7oFi3KapExUPRskN/41RE0fqi29GyltaQAAn4QYCiih9UmSYJ+EBAG21ZcyEBNwKsL26E+H21BJzEE4lGkcVpupDURRFM5DxZnJ6dwsFHDg3/RYSAfVCs2/IAZfnMPzIw64C2t/o7pvVFtyNSrWkGCZCAjwQ4OvMRLpMmAS8JaKMtay4k4EaA9cWNEL+vhYCTeFIsasUcWDA6pRbqPDcoAvZBsW6bv6v8bHWLQiMPC/pbp/VFt4Oqt8yHBEggPAIcnYXHnjmTQEUE2GFhB67aOlBRRePBJFABAbeolccffzyXGqNTKoDKQ0MnYB8Uz549OzdglkEy/zoZSHtEFt3rg0bj2etP6BWaBpAACfhOgKKK74iZAQl4Q6DaATXPoxjjTQ1kKiTgTKBY1Mpll10GmS7B6BRnbtwbXQIcFJf2jfYrSh+V3m9Zf9Lre5Y8vQQoqqTX9yx5zAhoPvX4pQAAIABJREFUJ4ZriiSV1oGYVXWaG1MC9qiVXr169ZgewHD4mDo3ZWbroLh///58forDM2S0DRJO/OvJQMRkYcTfu5T9cLC4qSZAUSXV7mfhSYAESIAESMA7Ak5RKzK44Jt9vGPMlPwnoKKKigdc82ZGNXWAoor/1ypzIIGoEKCoEhVP0A4SIAESIAESSAgBiVrh3dqEODOFxZBXfzMCo2cEhjJRgUG3uXZmJc/i4UICJJAOAhRV0uFnlpIESIAESIAEAiVw7rnn5kLgA82UmZEACfhOQEUV3zNiBiRAAiQQEwIUVWLiKJpJAiRAAiRAAnEiIKHvMvjiQgIkkCwCFFWS5U+WhgRIoHYC7O3UzpApkAAJkAAJkAAJ2AhQVLEB4SYJJIQARZWEOJLFIAES8IwARRXPUDIhEiABEiABEiABJUBRRUlwTQLJIkBRJVn+ZGlIgARqJ0BRpXaGTIEESIAESIAESMBGoKmpKTf9Rx5ay4UESCA5BCiqJMeXLAkJkIA3BCiqeMORqZAACZAACZAACRgEREyRwRdFFQMKP5JAAghQVEmAE1kEEiABTwlQVPEUJxMjARIgARIgARIQAhRVWA9IIJkEKKok068sFQmQQPUEKKpUz45nkgAJkAAJkAAJFCFAUaUIGO4mgZgToKgScwfSfBIgAc8JUFTxHCkTJAESIAESIAESoKjCOkACySRAUSWZfmWpSIAEqidAUaV6djyTBEiABEiABEigCAGKKkXAcDcJkAAJkAAJkECiCFBUSZQ7WRgSIAESIAESiAYBiirR8AOtIAESIAESIAES8JcARRV/+TJ1EiABEiABEkglAYoqqXQ7C00CJEACJEACqSNAUSV1LmeBSYAESIAESMB/AhRV/GfMHEiABEiABEiABMInQFElfB/QAhIgARIgARJIHAGKKolzKQtEAiRAAiRAAiTgQICiigMU7iIBEiABEiABEqiNAEWV2vjxbBIgARIgARIggXgQoKgSDz/RShIgARIgARKIFQGKKrFyF40lARIgARIgARKokgBFlSrB8TQSIAESIAESIIHiBCiqFGfDb0iABEiABEiABJJDgKJKcnzJkpAACZAACZBAZAisX78elmVh5syZkbGJhpAACXhBYBd2vvY4br7wNIwb93PcsGy7F4kyDRIgARKILQGKKrF1HQ0nARIgARIggWgTEFGloaEh2kbSOhIggfIJdGzFivkX4XsDMjnR1LKG4pyH3ir/fB5JAiRAAgkkQFElgU5lkUiABEiABEggCgQoqkTBC7SBBLwgkEXH682YftwQWNYgHHXuDFwyZhAoqnjBlmmQAAnEnQBFlbh7kPaTAAmQAAmQQEQJUFSJqGNoFglUTGAnVt98HAYcdT5uW7oJO7Nv4aFzhlJUqZgjTyABEkgiAYoqSfQqy0QCJEACJEACESBAUSUCTqAJJOAJgSw6/tWCrTt35VOjqOIJViZCAiSQCAIUVRLhRhaCBEiABEiABKJHgKJK9HxCi0jAGwIUVbzhyFRIgASSQICiShK8yDKQAAmQAAmQQAQJUFSJoFNoEgl4QoCiiicYmQgJkEAiCFBUSYQbWQgSIAESIAESiB4BiirR8wktIgFvCFBU8YYjUyEBEkgCAYoqSfAiy0ACJEACJEACESRAUSWCTqFJJOAJAYoqnmBkIiRAAokgQFElEW5kIUiABEiABEggegQoqkTPJ7SIBLwhQFHFG45MhQRIIAkEKKokwYssAwmQAAmQAAlEkMCdd96J1atXR9AymkQCJFAbAYoqtfHj2SRAAkkiQFElSd5kWUiABFJDYP369Whubi75lxoYLCgJkAAJkEDABCiqBAyc2ZEACUSYAEWVCDuHppEACaSTgAomDQ0NmDRpEg477LDcn0ylqPZvyJAhuTTGjx8PSXf27Nk5QSadhFlqEiABEiCB2ghQVKmNH88mARJIEgGKKknyJstCAiQQOwIioDQ1NRXEEyfRREUVEVhEEDFFkWLRKpKmHitrTaN37949hBkRXERsmTlzJpYvXx47hjSYBEiABEggaAIUVYImzvxIgASiS4CiSnR9Q8tIgAQSSkBFFBEzTBHFFDdELPnXv/7lGwERT1R4EcHFFFvk8+jRo3PRLCL6cCEBEiABEkg7gQ/x9rK5mD59ev6vAROH94Nl9cPwiQ2F/VcvWoe2tKNi+UmABFJHgKJK6lzOApMACYRBQAQMiQYxxQsRMySKRASUKCwitMi0IBFUTDtF7JEoFj9FniiUnzaQAAmQAAkUI/ABNtx+EjIlp6FmsP8lS7CtWBLcTwIkQAIJJUBRJaGOZbFIgATCJyBRHjJlxxQoNAIkDgKFiCxif//+/QsRNWK/CERcSIAESIAESIAESIAESIAEAIoqrAUkQAIk4DEBiTwR8UGn9khEikSAxEFIKYZCBBYz0kaEFikTFxIoRqCtrQ3XXHNN7jqQNRcSIAESIAESIAESSCIBiipJ9CrLRAIkEAoBEVNEQFExRUSIpD2TRIQhmQqk0SsUV0KpapHPVES4gw8+uHAtTJkyJfI200ASIAESIAESIAESqIYARZVqqPEcEiABEjAIiNAgAoqKKfKclKSJKUZxCx8lUsUUV6LybJiCgfwQOAGJTrn00ksL14IKKxRVAncFMyQBEiABEiABEgiIAEWVgEAzGxIggWQSkKgNfWZKEiNTyvGaiCvKQKY9xXmaUznl5THFCaxevTonqEg9kGiV+fPn57YpqhRnxm9IgARIgARIgATiTYCiSrz9R+tJgARCIiDCgU71kbfjpD1KQ3jIQ20lWkcEFj7MNqSKGXK227Ztw+LFiyERK7JQVAnZIcyeBEiABEiABEjAdwIUVXxHzAxIgASSRkDuwGtkhkz14dJFQMQlsunikfZPFFXSXgNYfhIgARIgARJIPgGKKsn3MUtIAiTgIQGZ6qLRGGmPTimG1YzikSlRXNJLQEUVmQ7EhQRIIBkE9PlhySgNS0ECJEACtROgqFI7Q6ZAAiSQEgIqqMh0nzQ8iLZWt+rDe4UXn7NSK814nq+iigzCuJAACSSDAEWVZPiRpSABEvCOAHs53rFkSiRAAgkmYAoqFAjKd7RMj5IOOCMVymeWpCMpqiTJmywLCXQSoKjCmkACJEAC3QlQVOnOg1skQAIk0IOAPENFOpGMuOiBpqwdGrHCqUBl4UrUQRRVEuVOFoYEcgQoqrAikAAJkEB3AhRVuvPgFgmQAAl0IyBRKfLgVfnjlJ9uaCraUGFFIn64pIcARZX0+JolTQ8Biirp8TVLSgIkUB4BiirlceJRJEACKSUg01akA8mH0tZWAUSckkgfEac4fao2lnE6+4knnshdP3INcSEBEkgGAYoqyfAjS0ECJOAdAfZyvGPJlEiABBJGQIQU6TxOmjQpYSULpzg6jYrTgMLhH0auq1evpqgSBnjmSQI+EqCo4iNcJk0CJBBLAhRVYuk2Gk0CJBAEgcMOOyzEyIosOna8io1tu0oXtWML1m1pQ7b0UZH5VqcBcSpVZFziqyEUVXzFy8RJIBQCFFVCwc5MSYAEIkyAokqEnUPTSIAEwiOgURXy9ppAl+xmrGo8HqcM2zN/h78v9j7qfJzx6CbsLBjSjtaXfotp4/pigGXljqs78EcYedUTWNGu8soWrJp9JL4+eDD2P/UW3N/6YeHszg/bsfrm/bHn4P/Fpevft33n36aIKdIhZ7SKf4zDTvnSSy/FlClTcn8TJkwoRKroPllv3LgxbDOZPwmQQJUEKKpUCY6nkQAJJJYARZXEupYFIwESqIWATPmRjmOwz/94G2vnHISBloW6g8Zi5P/+Ar+a/A18/4DdYQ2YjsYOKVEW7WvOw0++UAcrcwgGT/o1fvazozH5qN7IWMNRv/SdfLGfxV9P6JUf0O6D/n94CW3dgGzBM9M+CavbOd0O8G1DnlMjz1bhkkwCOuAqtZYIFi4kQALxJKDXdjytp9UkQAIk4D0BiireM2WKJEACCSDQv39/yOA/0OXdW3Hxl+tg9Z2CK7fmFJRc9tm25/HIjc9gbS4IZSOWNIgY8lUccu8bXdN+stuw8cFbcFdLe95kU1SxYPU5DQ0b9Ts5JDxRRd4AJJ1yPvw30NoVWGYShSKiifnX1tZd0gvMGGZEAiTgOQGKKp4jZYIkQAIxJ0BRJeYOpPkkQALeE5DoFOk0Bj71Z3MDxsl0nkJUilPZVCwxo1JKHXcCfj31APSx+qD3rx7BBp0dFKKoEhpfJ0zcRwIkQAIkUBEBiioV4eLBJEACKSBAUSUFTmYRSYAEKiOgb/0JPJLigyZcNWy33JSc4fNWY0tBADHt34LnZnwOlogk/3sn/t7jWSl6rIovE9GwZgmu/85HYGWOw8kvtOYPCC9SRQyQ6T98ror6imsSIAESiAcBFcVFWJk5c2Y8jKaVJEACJOAzAYoqPgNm8iRAAvEjEJqogp1oeWg0RmTk4bN90fv4aWh4Yj1aOrqrK9mWG/Drb+6Ri6apO+gk1M95Est2mFN7hLkhqmzeiW2LR2KQZWG3E+fjhVxy4YoqMr1K/oJ9Zk386iItJgESIIGoEJC2UX63NVJF1vKWPL7NLSoeoh0kQAJhEaCoEhZ55ksCJBBZAuGJKoKkFZsfPRO/OOKj+Y6riCtX4so1O7qen4IsOjbdij/+vH/X238OOhknLFxjRLeYokoHkH0Gfx0raR6CEQ+0IBvi9B8p5e67754rnzwQmAsJkAAJkEB0CYj4rQ9vlyjDpqamnLEyRVaEFdnHqJXo+o+WkQAJ+E+Aoor/jJkDCZBAzAiEK6rkYXW8ilX3nt4lrgychIb1XS9V7jyqDW+vuA5/KIgrQzF03rr8q5dtogp2Yefzp+J7GQt1R9+I+9t2hPb2H7H9E5/4ROFup7y+mgsJkAAJkED0CJjRKfLwdnt0ofx+DxkyJPd7zqiV6PmPFpEACQRDgKJKMJyZCwmQQIwIqKiid+NCNb39Wdz/v/K2nz74+LUrYJ/k02lbKzbfMxIHy0Nuv3EDFn0oe+2iiryN+WU8ePbHYFmDcEDji3g6pFcqi3Vyd7NXr85XPkuHnAsJkAAJkEB0CBSLTilmIaNWipHhfhIggTQQoKiSBi+zjCRAAhUTkEF/VKamdCytz03zqZt4N9YUK0lHI6YPsGBlfo5pLaKqOIgqoqtsbMBP+liwhp2Haed8PPdQ3Pql7xRL1Zf9cmdT+B5zzDGFaJXA37TkS8mYqJ3A1q1bceedd0LWXEiABOJBwC06pVgpGLVSjAz3kwAJJJ0ARZWke5jlIwESqIqARE8EHUGRbbkPf1r2Ft7vZvF2rL15f2TykSofZtfgyT8tx4ZuD6/NouOVs3GcPOC2VKRKLt1tePnGLyIjUS25P7dXM3czxpMNmXsveUsHXMLFO+3o3PYkAyYSGQIa9SVrLiRAAtEmUGl0SrHSMGqlGBnuJwESSCoBiipJ9SzLRQIkUBMBc+BfU0Jln/wBtjR9DRlrED536hWYfP2NmDHjAsy69GAMF7Fk4GRM29QOtEzDxLo69Bo5CWN+/ydI5/WWq4/DxEPlbUBDcVDTa9iVy9M5UkW+ym77A349VF7dLMJK8KKKiFXyBglZ5K0R8pBDsSVoEStnAP/5SoCiiq94mTgJeEag2uiUYgYwaqUYGe4nARJIIgGKKkn0KstEAiRQMwEZ7MtAf/z48TWnVW4C2db7MPfMrjf6dIoeGfT6TgOmvrS98+0/2U148dZv4Tv71hUiPHLHDfg+Rs19CS2Fty+/gLsnyNt+JqJhc4fNBOPVzZmTcN6rH9i+929TB9nmmyJUwJJycBqQf+zDSFn9LWsuJEAC0SPgVXRKsZIxaqUYGe4nARJIEgGKKknyJstCAiTgKQERVGSgL3fcgls6sPOtp/HUwkY0Nj6ARavewo6CUNJlRbZtPVY/eScaGxtxx1OvYENbZ3yKcQQ6dqzDirVbHc8HdmLHppVYsbnVNt2oKwU/Psl0H4lMsb9BgtOA/KAdfpoUVcL3AS0ggWIE5PqUqEFp55ze7FPsvEr3M2qlUmI8ngRIIG4EKKrEzWO0lwRIIDACOjUliGkpuWiTwnNO9Hknwa79BqsRKU7RKMpaOIjAwiUZBCiqJMOPLEWyCPgdnVKMFqNWipHhfhIggbgToKgSdw/SfhIgAV8JlBICvMw46aKK3KmUCJVSApWyFhbymUv8CVBUib8PWYJkEQgqOqUYNUatFCPD/SRAAnEmQFElzt6j7SRAAoEQ0Kkps2fPDiS/pGUid0VFTBFRxW0qlbKWYyV6hUu8CVBUibf/aH1yCIQVnVKMIKNWipHhfhIggTgSoKgSR6/RZhIggUAJVCIKBGpYDDJTdhJ9Uo4oJaKLRu1wGlAMHOxiIkUVF0D8mgQCINDU1FR4y5qfz06ptCiMWqmUGI8nARKIKgGKKlH1DO0iARKIFAHp/En0hPzJQJGLO4FKBRVNUe9gchqQEonvmqJKfH1Hy+NPQH6DRUSR31J5IG1U2y79zZf2lVM/41/vWAISSCMBiipp9DrLTAIkUBUBFVbKjbqoKpOEnCRTd2TKT7Ws9FxOA4p3haCoEm//0fr4EjCjUyZNmtTjjWtRKxmjVqLmEdpDAiRQCQGKKpXQ4rEkQAKpJ2CKBdJR5dKTgNmZL2fKT88UkHv2iggy8sdpQE6E4rGPoko8/EQrk0MgLtEpxYgzaqUYGe4nARKIMgGKKlH2Dm0jARKIJAGz0yoRFXKHjQtyd0JFaBIhRELNa+Winetqo13ok/AJqKhSrbgWfgloAQnEh4ApaMchOqUYWUatFCPD/SRAAlElQFElqp6hXSRAApEnIHO/ZXqKDPpFABCxJa2LdOZFSBEWXj4I0ZwGlGa+ca5Xen3EuQy0nQSiTMAU+qP87JRKGaqwzmetVEqOx5MACQRNgKJK0MSZHwmQQKIIyHQg8zXAabsjL5EIZvlFXPFykTuWMihXscbLtJlWMAQoqgTDmbmkk0BSolOKeY9RK8XIcD8JkECUCFBUiZI3aAsJkEBsCZiRGnKnMOniiogp+lYJHTT7FUmiU4okH69Fm9hWuBgZrvUjRibTVBKIPIGkRqcUA8+olWJkuJ8ESCAKBCiqRMELtIEESCAxBERM0WkwErIsHUGJZknKIuXTyBQZLI8fP9738sngwWTql3iTFB9FrRwUVaLmEdoTdwJJj04p5h971IpscyEBEiCBKBCgqBIFL9AGEiCBxBEQ8UGfByKDSonqkH1xFASk4yrRIvr8mDDEIn3gqbJMXIVJcIEoqiTYuSxaoATSFp1SDK5GrfC3pRgh7icBEgiaAEWVoIkzPxIggVQREEFCojlUkFBRQASWKEewyJ1QEVI0QkTslggVsTushdOAwiJfW74c+NTGj2eTgBBIa3RKMe+bzzPjW/iKUeJ+EiCBoAhQVAmKNPMhARJIPQHpFNsFFukMilgQpsgidz8lEkTu/plTe2QwLPbJW46iIACJnSryiEgVx6ifNF4EFFXS6HWW2SsCjE4pTdL+Fr7SR/NbEiABEvCHAEUVf7gyVRIgARIoSaCYiCFigQgbIrRIZ1GO82reuIonIuCIgCJTklSkkIGv/Mm2CD9yTBRFC3MakDDiEn0CFFWi7yNaGE0CjE4pzy+MWimPE48iARLwjwBFFf/YMmUSIAESKJuAiAUiooigYY8WUcFD1hI5It/rnxwvAon+idCg3+nanHpkpiUCihwj50rnPQrRKOUAkzJqOYQbl2gTEF9JHeNCAiRQHgFGp5THyX4Uo1bsRLhNAiQQFAGKKkGRZj4kQAIkUCEBETlENNDIEhmYqlCia3ukiQxg9Ttdm8KLpBd3IUIGHCoUSfmjGFFToasTfThFlUS7l4XzmACjU2oDyqiV2vjxbBIggeoIUFSpjhvPIgESIAESCJGADDw0WoXTgEJ0RBlZU1QpAxIPST0BRqd4WwUYteItT6ZGAiRQmgBFldJ8+C0JkAAJkEBECcgzYVRYiXv0TUQRe2IWRRVPMDKRBBNgdIo/zmXUij9cmSoJkEBPAhRVejLhHhIgARIggRgQ4DSgGDgJyAlfjCaKh69oZbAEGJ0SDG9GrQTDmbmQQJoJUFRJs/dZdhIgARKIOQFOA4q+A/XZPtG3lBaSQHAEGJ0SHGvJiVErwfJmbiSQNgIUVdLmcZaXBEiABBJGgNOAou1QiirR9g+tC5YAo1OC5W3PjVErdiLcJgES8IIARRUvKDINEiABEiCB0AiY04DkldNcokWAokq0/EFrwiPA6JTw2Js5M2rFpMHPJEACXhCgqOIFRaZBAiRAAiQQKgFzGpC8eppLdAhQVImOL2hJOAQYnRIOd7dcGbXiRojfkwAJlEuAokq5pHgcCZAACZBApAnI4F3fBrR8+fLAbdW8ubYKfiALdxaBV1RmGCgBRqcEirvizBi1UjEynkACJOBAgKKKAxTuIgESIAESiB8B6Rz37t07N6APYxoQBQR3AYGMejKK35VGi8shwOiUcihF5xhGrUTHF7SEBOJIgKJKHL1Gm0mABEiABBwJSMdYB+5BTwPSfLnuKRyQSXEmjhWZO2NNgNEp8XQfo1bi6TdaTQJRIEBRJQpeoA0kQAIkQAKeEQhrGpApHHhWGCaUSAKsK4l0Kxidkgy/MmolGX5kKUggSAIUVYKkzbxIgARIgAR8JxDWNCAOlH13bWIyYF1JjCsLBWF0SgFFIj4waiURbmQhSCAwAhRVAkPNjEiABNJOQDppzc3NuT+ZmmL/07ekTJo0qcd30mGXc8N4AGsc/WZOA5LPQSwcKAdBORl5sK4kw49SilRGp3z4N8z61h6oO3IWHv4wSF9m0fHmI7jjjhewtj0bSMaMWgkEMzMhgdgToKgSexeyACRAAlEjIOKJiCAimohQIg9NNQdRxT6rqKIPWy12nOzv379/Lm0RYGbPnk2xxaES6DQg4Sk+8Xsx/eV3Xkw/3gRYV+LtP7Xet+iU1r/gim/u0b3dGDACg0+bjqlPv4mdakBY645GTB9gwRowHY0dQRrxAu6e8FFY1iAcuGBTYBkzaiUw1MyIBGJLgKJKbF1Hw0mABKJCQDpcImyMHz8+J3aYAyYVP0RgkTteGqkidzcrWfQ8yUfSGj16dA+xRsQD2S/5MKIFOSFFfSECi9+L5iVrLiRQigDrSik60f/O9+iUzQ0YZ1mw+hyFYedfgPN+Phzjh++NjOzLHIXRj29BMHEaRXzhJKrko1esr16Fhb5Fr7yO5676Inr1Og4nP7u9iHH+7WbUin9smTIJxJ0Ae35x9yDtJwESCIWACCkSJWJGoaioIaKHiCBBLSKgSGfPLuqIoCP75G5qWhfxhQ5ghZGfi+ZDUcVPyslIm3Ulvn70LTrFRKKiSrdIkFZsvvMwDLIs1P1oLpaFqao4iSpO+8wyJeQzo1YS4kgWgwQ8JkBRxWOgTI4ESCC5BOTupAzMTSFFPsvAPUqRIdLpEzslakUHbyKwiAgk36VtUX/5PQ1IWVNUSVsNq7y8rCuVMwv7DN+jU8wCOooqAIrtb38Zz/7fz/Hr8UMx+Os/xqjLbsOc9e/2jGbJvoG195zdedzRp2L0xXMwb+P7nTlnV+Hx6T/GsVc+jjWmYOO0v5uAksXOly7HpecPw1F9uqJr6ut/hp8/+gZ2ablK5a3HuK53ouWRs3Hssddjzpv5eUc5+07A2Hmr8F7rE1h8zbE4+fAhGPbT3/k6VUraWGlT5FqWPgAXEiCBdBOgqJJu/7P0JEACZRAQIUIiPrQDJQKFdKLiIFDIQECmDKmwIB1AEVuCjKQpA7Gvh4jgpYNYP6cBaR6y5kICpQiwrpSiE73vAolOMYvtKJ5k0f7CBBwhU4BG3ozmvFqRbb0Ls07YC5bVF3sP/z6OPupzGJqxYA08BWc8/y9DWNmCl2cdiIFWBr2GHYMjjvhPHLZvHeom3o01knc3ocQwxml/t30fYkvT1zqnJolthb8M9pr5HD7IJeWSt5Fd6Y9b8My0T8KyhqN+6Tudh6ot/+8ETBglz1sxbMiMxrFLtxkMSqde6bfSB9Bnd0kbG6WbK5WWhceTAAnURoA9v9r48WwSIIEEE1AxRTtpcRcjtDwqDklnMC3iShDTgLSeyJoLCZQiwLpSik50vgs0OsUstooq/SZh8mNLsGDBPDx611n4lYgG3Z6p8jqWz9gHGWsYDml8BdtzESYdaFszBSf2sVB3zC34u4aKbL8O5/S1YH3vZjTn3pyTRceOpbjjkY2dD75VcaLblKMiYov92OwO/Ou1K3HhPhasfS7ElRs2YcWK17GlIx/y4pa3WfaSn0uIKlYGe465EXM2vodsditebfoWDpapUif+FS+akTcl06/uS0atVMeNZ5FAkgiw55ckb7IsJEACnhCQjrRMldGBj0SpxCEqpdzCS/lEZDDFlSSVrxgHjdaRcgsDrxetLxRVvCabvPRYV+LhU7MdCPTZVCqqmFEX8nnoaZjw2Kaut/+8Pw9XHFAH65CrsfADUzlYi4fO3huWdQImr81P79l6JSbJ9JwRM9HY6vAkWbtQoi5y2l/uPk3DLW89znVdQlTp90tct90o1845uEREHrtI5JpHdQeEVleqM5dnkQAJeEyAoorHQJkcCZBAvAmYYd4SyZFkscEuHiV9Xrg5DUiijrxeOFD2mmhy02NdiY9vzTZBBs5+CLI9aKio0ncc6v88B3++cRzOPFResTwMhzS92iWq6HEDhmPA4Ydj8ODBub9vfOOLGHXA7t2nyeBVPH1Z/9w0nbqDTsTRM+/EHRuN5644CSVimNP+cvcVCuaSd+E4tw8lRBW7eOJko1vyVXwvfQROAaoCHE8hgYQRoKiSMIeyOCRAAtURkI6yPthVnpmSlmkxQitNnUJzGpDXd545UK7u2kvjWawr8fJ64O1DQSyZjkZ9HuubMzB5vzpYgy7AdVvzERnciC8XAAAgAElEQVSF47qLKiqu7H/CVbhVH+gqyDv+iRduPx6nDNuzMxIz822MWvxa7dN/cmk3YvqAEpEhpfIuuzpES1ThtJ+yHccDSSDxBCiqJN7FLCAJkIAbAYlgECFFBjqB3Yl0MyqE77WDKNNj5OG2SVxkcKS+9noaEAfKSawx/pSJdcUfrn6nGljUSkEs6RJVgC14bsbnYFkDsN9t6zrfqqPHjb4VS8zZP24gOl7Hq4+egYlf3Q1Wn0mYJsJLscgOp/3l7nOywylvp+Mc90VDVEnTjQhHN3AnCZBADwIUVXog4Q4SIIE0EdBOsgywvY5ciCNHEZj02SNJnQ4kUUg6qPVyGpCmKWsuJFCKAOtKKTrR/i6QqBUVS2xTWna9MhnHyJt9jrgRi+Rhs7sexM2H7w6rz0Sct35naXDZd7HjXX1qrRyqAsUojPnHu8CH9+GGQw2RJZdaKzYvOhojJE/TFidRRW3pez6u227mA8At79KWG9+qzQ5v/zHtkzOcbDRSqvaj3nyQazipbWS1bHgeCaSZAHt+afY+y04CKScg0RjSMZLIBb4KsasyyKBB54jLQ3qTuPjxUEEOlJNYU/wpE+uKP1yDTFUFefGl5xGORUQVZJdgbn0vWNYo1C/dDmAnWu4ZgUHymuSR5+D0O5vR2NiIx+6+Ajdfcig+f3jX238+fHYsPjFsMibc/jfMWzAPjzedhFMlUmXQRZi1Q0SQzXjmss/Asvpg75N+j2l334mm3x2C4SKoyENyTdHCUbBYhUVnZGBZB+PAKxfirrnn4Mx7X4XMXnLPu1zPhSeqMDqlXB/xOBJIJwGKKun0O0tNAqknoIKKRGWIiMClJwERVKQznURhxY9pQBwo96xD3ONMgHXFmUvc9voWtdIyDRNFzPjGDVhkvNAGeB8t9wzHQCuDf/vNEmwTYNlNePHWb+E7+9YVIvBy9StzCPafuRQb8tOCsm/+AZfIK5mNNwrVHfRzTH7+X9CZQ9nWuzDrhL26jskcgUNu/Stu+nGvMkSVXdi58myc+AW1ox8+88eVaBcTy8i7PN9XIKp8uAC//6+67naXl0mPoxid0gMJd5AACdgIUFSxAeEmCZBA8glIVIpM96Gg4u5rFVaS+IwVr6cBmYMVd7I8Is0EWFeS5X3vo1Z2YsemlVi5ta0geBSIZXdg68qVWLtD5ApdsuhoXYHnH74jF6lyx1Orsabb9/njstvR8txd+WNewYY22zQdOazjdfzzyTvR2PgoHnlT8u9A21svY8XmVuRfzpyLkBH7uu+Tk7Po2LEcTy1sxB1PrUdLh8o18lUZeWtxiq4l/XVYseJ1bCmk3cmqpy1OdhdN2PELRqc4YuFOEiABBwIUVRygcBcJkEByCWiEgogqnPLj7mfhpc9YSSIvcxpQrW984kDZvT7xiE4CrCvJqwm+Ra0kD1UsSsTolFi4iUaSQGQIUFSJjCtoCAmQQBAE9LXJfCht+bTlbp2IUPLsGRk4JGlRkU0GubWWjwPlJNUMf8vCuuIv3zBT9z5qJczS+J13O95+6Mf4+uDB0NdAF1vvf/oCLHMIrPHaQkaneE2U6ZFAOghQVEmHn1lKEiABADrdQ6ITuFRGQAYKMhBM4tsOtF5I+WqpGxwoV1an0nw060qyvc+olXL924HWJydidEREFUanlOs3HkcCJGAnQFHFToTbJEACiSUgb7SRiIukRVsE5bAk89MIJhnsVjsNiAPloGpi/PNhXYm/D8spAaNWyqEU/jGMTgnfB7SABOJOgKJK3D1I+0mABMoioNEISYy0KAuABwclmaEIbSK4yWC32mlAHCh7UMlSkgTrSkocDeREfBVt5belWtE2PcSCLSmjU4LlzdxIIKkEKKok1bMsFwmQQDcC8hYbT6JU2v6GOROGYPDgIzDipufQYrzcIJfhhw/hlu/shd6nNAUy/7tbIQPYkGgVGRgkcdEpTjLgrWYaEAfKSawV/pSJdcUfrlFOlVEr0fIOo1Oi5Q9aQwJxJ0BRJe4epP0kQAJlERBBRYSVmpfNDRhnWbmIBivzY5y+6t3uSXY0YvoAC9aA6Wjs6P5VErbk1coyIEzim4DEP3pHWcpY6R1lDpSTUMODKQPrSjCco5YLn7USDY9IxKpGJjJ6NRo+oRUkEHcCFFXi7kHaTwIk4EpAp62IIFDzYooqloXdTpyPF8xolYSLKnJ3TwaESe2I2qcBVVJfOFCuhFa6j2VdSbf/GbUSjv/lZsCQIUNybZhEXSb15kA4dJkrCaSbAEWVdPufpSeBVBCQOdMyiBFBoOZFRZUTfoPLx34UljUCox5uQUFXKSqqdKBt492496YzMLm+HvX1p+PkmQuw8I33u0zKrsEzs6Zi6v2v4L225/HknydibH09jr3odix4U47LomPbw7hv5rjO869/CEtaP+w6v/BJjmvG366fkDu/vv4XOGPus1jTXrCycGQ1H2T6j0R0JHUxpwFVIh5xoJzUGuF9uVhXvGcatxQZtRKsx+S3XK47iVCRPgEXEiABEvCSAEUVL2kyLRIggUgS0M6UJ8apqDLur3jl+VPxvYyFuqNvxP1tecHCUVTpwDtLj8eITH7akE4fsizUjbgEN7Xk5wnpud8+C788Ya9cB1AHX3UjLsZfll6OC7+5h7E/gz3H3Y6/t5sly6L9lYtx1qFyXF/sPfwojDpgd1hWBnuOmYOH1U7zlAo/yx2+oUOHVnhWvA43pwGVezdTfSVrLiRQigDrSik66fqOUSv++tseneLJzRV/TWbqJEACMSTAnl8MnUaTSYAEKiPgj6gyHyuyr+LBsz8GyxqEAxo3YJeYpcJIt2eqdKD1ydPx3+fNxbx125GLTelYjxev/wr6WH3w8WtXIKeL6LkigPz4Gty0Zjvad76ARy/pj0xOiOmHT02eh4VvvIf2txdg1vESKfMNHNm8tQtI+2Lc9N2PwBp4Ck5f9lY+r3X4x++/hD7WPtjnz6tR66Ne/v3f/71wx0/EB7nrV67w0GVotD9Jx1vn3Eu4eDkLB8rlUOIxQoB1hfXAJMCoFZOGd5+17Wd0indMmRIJkIAzAYoqzly4lwRIIEEEtGPlSZEKkSrzsUIm5GxswE/6WLAGXYDrtn5YRFRxzjm7djJGWxY+cvGTaJVDVFTpOwVXbu2SPnatOh0jRVQ54kYsKkzhace2e76JPlZf9P3jqrxQksX7Tx2LIVYffGzmcnR7hO7263BOXwvWcbfj2RpnAX3605/uNijUAaJ0XJMksui0MSmf1CG3RTnImgsJlCLAulKKTnq/Y9SKN75ndIo3HJkKCZBA+QTY8yufFY8kARKIKQE/RRWgBS9ePRAZax98/urn0KbCSLdIlTy4jg1Y88BMzL769NxzVaZOHoyhIpaM6xRoCqKK/VybkKNu6FhajwGWhV6XP9MZkYL38fq8A2FZfbD3j85Ffe7ZLfL8lnpccP4wHCXijz1tTayCtUz/kegN4SqfzQGi+TkJIotZPrdoHLPsFeDkoSkkwLqSQqeXWWRGrZQJqshh2t4zOqUIIO4mARLwhQBFFV+wMlESIIEoEfD0NcBOAse2a3HufnWw+pyGhvUPOrxSOYv2TdfiklEyXUeEjeEYcPjh+P7IT+ZEEe9FlQx6DTsGgwcPtv19HUOnNmNNjZEqKpaYPpY3LCVRZKlkGhAHymaN4OdSBFhXStHhd0KAUSuV1QNGp1TGi0eTAAl4S4Ciirc8mRoJkEAECUhnSwYxnr5SWaNLcuVtw+bbD8o9H6XPRZfhlwPsESH/xKPnfxyWNRwjmtZhu4oadoGmWJSL/bg84+KRKvtg4G3ru95I5KFPRGQQlm5vTyhHZJF0JBJExBg5PqpLudOAOFCOqgejZxfrSvR8EkWLGLVSnlcYnVIeJx5FAiTgHwGKKv6xZcokQAIRIuAUXVGVeUUEDugDYnMPlLWJKtnHcOvR8jaeiWjYrM9KyaJ91Rn4nqfTfwB9/spuJ87HCyreVFVQ55NUYHCbCmM/O+4ii04DknpU7O0RHCjbvc7tYgRYV4qR4X4nAmbUyvjx4yFiCxfkHpAuU1HlepLf6GK/zWRFAiRAAn4ToKjiN2GmTwIkEAkC0hGVjlfNndFiogo+wNsPH42DnUQVaKTKV7H/zPsxb8E8PDb/Jzh1iLzq2MtnqsiTc5/FXRP2zr2R6PO/mI1rFzVjwYJ5aF54Hi4/dTC+Mru2t/9IB7Z///41+zRuIos5DUg6704LB8pOVLjPiQDrihMV7itFwIxaEXFXhJY0L4xOSbP3WXYSiB4BiirR8wktIgES8IGATgGSjlhNS8s0TMwYQoiZWHYlHjnvs7nXH9f9aC6WFSJFbM9UESEl8w0c+NvzMLGfhbqJd2ONpOMy/adwXD7Pzuk/Gew18zl8YNiRbb0Pc8/s3/m8FhV5LAt1B52Ck598q+ppQSKEyGCwZoaGrfpR/CNRMPL2IBkwmINO83OY04W0Ey/2OE1/Mu3UcnFNAk4EWFecqHBfOQTkd1iEbalD8ntZ842CcjKN0DHSVjA6JUIOoSkkQAI5AhRVWBFIgARSQ0AG5DJgr60TuhM7Nq3Eyq1tzuJExxZsXrEWa3e09+Ta8Tr++eSdaGx8FI+8KefvROumVcaxnWmv2Nyaf5tPPonsDmxdudI4Lr8/l9er2Ni2q2dekvaGR9Dc2IjGxgew6KXXsaWjoPI4HO++yxt+7vnIEVEVWbQz7zQNiAPl8nzLo9BNNCQPEqiUgLRhkyZNytWjNEWtqLAtZXYStivlyONJgARIwCsCFFW8Isl0SIAEIk9Ao1Xk7h6Xygjos1T8iFIpx5KoiCxah0RAsU8DoqhSjid5jBBgXWE98IJAWqJW5HdXBW353eWzU7yoPUyDBEjASwIUVbykybRIgAQiT0Dv7nnyJqDIl9YbA6VDK3cGpVMblaUakaW2CKWukuvdUhkYm3dLOVDuYsRPpQmwrpTmw2/LJ5D0qBX9vWV0Svl1gkeSAAkET4CiSvDMmSMJkECIBKQDKuKAdNBkYM6lNIG48CpXZBHfi7AmD3msRWTRu6ZSj/SuKQfKpesSv+0iwLrSxYKfvCGQtKgV+U3X31lGp3hTR5gKCZCAfwQoqvjHlimTAAlElIB01mQwTGGltINUUJEBYNwie/wWWSR9HRjrNCDdlnWQy67103D6/iNw+J3roS/sDjJ/v/NyKl+2bSNWrtyKHbU9Jshv04umH1ZdKWoQv0gEAfnN1mhMad/i+oYgRqckojr2KIQIf/InEZ7iY/mT9rOcPz1e1ppOjwy4gwRCJBBszy/EgjJrEiABEjAJUFgxafT8HGdBpWdpuj/4Vt+cYQ5s9XMlkSzSudPzZPCin2Vd2bIdL984EHX7nojJq3ZWdqq8NGppfe5NT70uf6b7A44rTqnYCR1oXToOR+9bh7qDzsOMTQ4PYS52qgf7e5ZvNR6c3AeWNQzDF7d4kEPwSVRfV4K3lTnGj0Bco1akXWZ0Svzqm91iid6UGzEqmojAZ/7mmZ/F326iitYJ8zz9LGnL+SImSp5Sh7iQQBgEKu35hWEj8yQBEiABXwiYwop0Qrl0EpAOkXZi4hahUq4PtdM3fvz4wutJtZNmroVDqelCKtDYO43l2tF53BY8M+2TsKzhqF/6TmWnBiKqrMSin+2V7xQPwH63rYPT+6YqNrzME3qKKhvw9CWfR13d0ahf+naZqfhz2K5Xf43xe/bDvrNXoRKpyaxj/ljGVNNOIG5RKypSy2+p+ayqtPsxDuWX9lR8Ji8BsLeF0obKfvGv3HyQvpYcX+0i9VrSkLQkTWnDtb+iv6tig+QpNlFkqZY0z6uUAEWVSonxeBIggUQRUGFFGmN25JDrrGinKKmCilMFrlZkkc6dduTMtVMexfdFXFR5cxp+2sfC7iNHYWTGQt0xt+DvAaoqPUWV4iSD/qZa26qvK0GXkPnFnYD8Rqn4KwNNGZRGaZE2WAfFEnFQy4A7SuVKui3iN7nhoHVLftNMMUPqXdCL2CT9OPvNErFRbJXvuZCAXwQoqvhFlumSAAnEhoB04rRTF8VOZ1AgzTuFYXSIgipnOflUIrL813/9Vw9hpZw8uo4pLqpkW5/GY385E5Pr61FfPxZjpt2BOza+C/NRIubAvu2NhbjjsrH5Y+dj4Rvvd2VT1ac2bL79IPSxhmL44mdx1yn/Bsuqx+lO05Sya/DMrKmYev8raGt/Gcv+L2/35Jn47dNvwJzYlG1ZiD813IBZq99Bu4vNZvk6S7MTW56SOflzsbDFjA/Jov2Nu9A082SMFV6S7xMbsT0HqwNtG+/GvTedkWd5Ok6eucCRT1Hbfr8YS1o/zFNsxebHZ2Du1MHoa1nYfewVuGDGDDTMuAfNhWOKA6eoUpwNv/GeQFSjVsw2hzc1vPe71ylKuyh+MoUU6TvJvigKFiqyaP9OfnfFdql3FO+8rh1Mj6IK6wAJkAAJ5AnInQy925KmDp55J1PuFEbtTmYUKmi5IosOliuz2UlUyaJ901W48Jt79BBsrAE/wDEPv1GYgqOiw+7/MwY//kJdt+PrRvwG124y5YzKLEN2CebW94LV93xct/0DvNk0DH2sPvjYzOV4155URyOmD7Bgffss/PIEnS5kddqT+TZGLX6tIKx02twPn/3ZJJzoYrOWr+uZMU682tH6/Jk90rKsr+IrjWuxfenxGJHJ22J1retGXIKbWro/3re4bRnsOWYOHm4TleYF3D3ho91Yd/p+FMb8owcZO6lu5/X4kjtIwCcC5m99mDcQZLCrA11Gp/jkbA+TlXoj0R/avokwIX2kOAkTKghpvZOyyDWQ9htIHlaT1CdFUSX1VYAASIAETAJmp1Ma3yQ3uNLJkE6FdC4kbDdNQpLp8//f3rtASVWdaf+nXY6XZY9ZfPnMCpNgyPAxMQyGpSTL8TJf8G+8RGPQSVpzAcdEJypOVCYxGmMGMyYhKpHoaHQmGkZJPrS9AGoiGAXv4hUvBAVxkIAKCA4QbbRb6vmvp7rfqt3Vp+7n1Nnn1HPWKqr61Dl7v/u3N7Xf/ex379PIZ1dkGTFiRMHZNKezvjRDRILehfjVF3ZB0Pl5HHnLcqztywG5zXjtwZNx4rAAwT4X4upN/VETJjoEwT7Y+4fzsWhzL9CzHE/84pMYFnRi9x88gDfqM6hw9Y6Xp+K4jg7s8W+PYjPPDiwFCg66EvPfc+NluLnLgKgSdGLXoy/G9GfX48+5Ldjw2KlVbJ6HBRt6kHNtPvdevDpghZWvoqjyzk247ICdEAz7OiY/yOiUHPq2PoFH/uOz+OsZT+F/HpuC/+/8Obj5lS39m/n2rcYLv/xUXiD64FXLBu2HYvkFwTiMvvguLNr8Hvq2LcKtZ3Jz3LEYP28dcmD6r+BPdx6JkUGAXS5cgKWvvIJlq2p7IpG1E77rEIFWEkg6akXRKa2s7ebyov9D0ct+ryis+BiRUm8pWQaWxZY6s4xZ9vXq5aPrGyOg3rwxbrpLBEQg4wTo+GW1w6Ug4M468bOiUxpr0OQ2duzYgtNpzmd9qZWKKjvwzsPHYSyXlZy9AKsHaRdr8eg0bmo7DgfetT6fjYkAO59+J15yr91yNb43PBiIMmlkE5StWHHtqPwGul98yPZhWIX7vrNnybmB0pqoMvwcTH/DXZbzKh64gIIElxC9Wdnmt6/DD0cMttnKV15UMV6dRfGnhgrIrZqKiRRELn4M25zrLb/BPHPY/vDEvIBStKPxJy9ZO5Go4oDXx5YScCcQWhG1ouiUllZvU5m5Ygr9IPpDWfQRWKYs+3pNNQLdXDcBiSp1I9MNIiAC7UKgtMNl5Ao3b02rc8Hd8i0yhYM5iikUWHQ0RoDtwA0lbnygXCqq9GDNb/ZFEIzCmO4/lRj3HjbOPQCdQSf+cuazeK/S039ySzDny7sgCE7DtNcGL3EpSTT8z/fm4ooDd0Iw9qeY/Y6pNX3Yes9hGB6ECBgmqoy6DN2DshtaHhMuXIEib0SIzUOvrYeXU7S+NVh5z0zMunJKfl+VH00dg/FcCnTSbVjmXlbmEdVD7ZCo4mDTxxQS4G+Yu+yVfUQch6JT4qAafZpsDzbhkmUxpZQcy+2KK/ST5BuVUtLf1QhIVKlGSN+LgAi0PQHrcG1zNjobdDzickCjBM7ZQXeHfrNdDkNzlNkmygkq9UcflIoE9neYqDI0YiJssN9fuqdx69d3bVBUyeG9pyfjIIoOoyZg1GGHYcyYMfnXPxyxF0bxfH6fFScCpqyo8i5ev3n/QSJRPTYPvdb42COo7e8wXiTB/Wmuwo+PGtgDZaA8hXJIVGnuP4PuTj2BuKJWFJ2SnqZBf4b+QTtPuLBfd0VGLYlOT/v1wVKJKj7UgmwQARFIDYHSaA8TKXieHbIPBx1kV0ihk5T2KBsfuJoN1QSV5kUVEyFG4GOzXi5sSNufv0V9FL8bKjoMWLrjXlx/2M4IOr+N6RvsqTVWimrvtsxoNPY64viCoEJhZfz4T+L4A3YDN4E96HdvFJ9EVFZUsWVE+2D/eevyGddj89BrTUQxUcWYjMTo36wu2lMo4n/jge9/ML9k6dC5rww8DQjAa9NwkiJVCpT0ob0JlA4om500UHRKOtoT690iWDlxRP+h3Y9SMdAX367d68X38ktU8b2GZJ8IiICXBNjJcimQOSMcSJt4QUGD37FjjvtgxAmdXzqw7oZyZkvaduiPm1ez6bPewyJULGTa2kF9+diTZCbilOffyUdWWJRIx4mz8Yi7PUnvw5gziREXxccam+jQceyVuJmb1OaPHHqXn4mJfOLNEddjsRNQUpNtb9+Ii/+2o2Tpj91pe5gE2Om0O7GisDJoYKPazonoenBD/4awvMU23Q2z+XOX4cZNlW228hWXCpWKKsWomp1Ovg3Pmz3Me9uj+P0Ts/Bfx/IpSu4yqBx6XzwTX2xSVNnx4hQcwb1vzr0PrxueGt6tnfBdhwj4RKDZqJXSAamiIn2q3cG2sK4sApd+i8SDwXxcYbAV/tzg3PVX2gioN09bjcleERABLwlQ2KBTUipsmLhB8YUdNEUOOq181dJJ0yG16ynUMA0O4JmPheraAI2DfX6X5n1fvKzcAaNKBZVRo7iJa7+Yxnqyz3yvfqzFIz/8NCZc9mv89rovoiv/RJ+LcN3WAfUj9zTuOJUbwo7AXqdfhem/W4yHfv9jXPWtD6MzGIEPXfQQ1gyIByY6MN+Oz56DU25aiPvvPAvn5h/HPB6fnvunkmiXatZV2DfFbjXRZdgZmLZ2QBSxSBUy6TwcB/78Nsxf8AvMOuuv8nvA7PatO/BCAzZb+cqLKhRuFuGGLkbP7IO9v/ufmHHH7/D7//omvnv47ug47Vr8Nh+psh/GzrwbN8+7GQ/e9g18a9zO/XXWxPIfbLocZ+fr7nSccudCzL/oPPxy9btGqex7fW2lbDL6QgRiIcDfOvZnbKfsZ2qNWnEHoVo6EUvVRJYo65R1yxd9Bh3hBOh/ma8lTuGMdLafQC2en1iJgAiIgAjUSYAdMZ1KE1psNsgdTDX6mR08RRUKKHRimZdmmOqsoDovLxVUjj322IKIwjrg4dZn9eRfx9IZI9E5IMrw0clHLfwTtjs35rb9HnPO+lj//iWF6w7C2EsW4YXeYjhGv+gwGp+8dBau+scPOmkegvHXPYcNxUud1Ct9tCf8HIWuJVvKXPganvzpX+VFDFvSU3ik8shzMOOqA/AZRsnk7R6OD5wyG3dvKy5BMqFkl+9cif/8ZmWb7dqKogofcbzuWlx6fKdTD53Y9Yjv44Ln3hq8p0pe9DkE+//sfJw2IkDHaXdipVPKofn1f/n+M5OwXxCgaAfPb8RL1+2P0YX6ORFTXuxxUgv/WF9bCU9DZ0UgbgLsW6zv4sSA9TM8z5dNDPDdIvjYNyk6Je6aaS59igP8DWLdWh02l2K272Z7tvYtYSXbdd1M6SSqNENP94qACIhAnQTCIk84KC/3qjeypU5zdHkNBEoFFYsUolNKgcsGGnUPlHNbsOHZO9Dd/QDuX98TshcIjduObWvux+LubnTPfxxLNm0fel3fRry27HVs7MsBfa/jvx+7vUqa1Qrdh543X8KyVZuwtYIgk+tZi1XLXsXanoHoGotUyT/9Zwd6/nQv5nfPx/xn3xiSjitc9OU2Y+3jFWzOl28VVm0tLhPq2/oKllmZ3eIUmM7H/KVr+5nY90PYbMe2dS866Q5cOCS/gfO5rdi0fPnQ61lHqxZifvc9WLBqS3HZk+Ub8l53WwlJQ6dEoBUE+PtmUSt77rknRo4c6QiX/ft12W+holNaUSPN5WGCCkUC67uaS7E97nb9AAkr7VHn9ZZSokq9xHS9CIiACIhA2xBwHSkOHCiocIbWBsUWpUIgdo7vbXkMElUqE3BFleqLZSqnlcZv276tpLHS2txm/u51drqRYBaJFuATn/iEolNS0D4kqDRXSa4/IGGlOZZZvLtNPb8sVqXKJAIiIAIiECUB14HiIJiCCg/bN8eNUuF5vwfKvXjrvq/h7wYei2yPRw57HztlHp6qd2NbApCokm8ftfzjd1uppQS6ph0JHHzwwYN+56wdu+JyO3JJQ5m5zId9liJUmqst1y+g0KhDBIyARBUjoXcREAEREAERcAi4T3YyQYWb+9lAonSmys7z3b+jD9seOw0T4xRVdjyFu79/ArouWICnq4gyO1ZfjQu6JuPku19Fn3+wYrfI77YSe/GVQUoJmKDM30P+Ph5wwAH530P7fUxpsTJvNoUA7p9CUUV7qDRf3eRJlnxp/6DmeWYlBR89v6ywVTlEQAREQARSSoCDBBv4ugMG27SR76WHXe+nqFJqrf5OkoDaSpL0lXejBExUscgU+5vvOvwlYBMEtT7Fyd+S+GMZxSn+jqvt+1MnSVsiUSXpGlD+IiACIiACXhEoJ6jYenQ6UqVRKiyABspeVaPXxqiteF09MhtFuz8AACAASURBVK4MARNRJKqUAeThaYuu5GbDOqIlwP8H/C3XBs3Rck1rahJV0lpzslsEREAERCByAuUEFWZkUSpckx52aKAcRkXnwgiorYRR0TnfCZSKKjao1Gy9vzXHfosvLlnRET0B+gNcBiS+0bNNW4oSVdJWY7JXBERABEQgFgKVBBUbPHAwXG5zOg2UY6mWTCaqtpLJas18oUxUsagH+12UqOJn1Vt0ZVhkpZ8Wp88qexog/y/oaG8CElXau/5VehEQAREQASD/ZB8b6Lp7qBCObUrH7ysNHux+vusQgUoE1FYq0dF3vhIwUcV+ByWq+FpT/XZZlIrfVqbfOv5/ULRK+uux2RLI82uWoO4XAREQARFINYFKESosmA0cOBAuF6XC6zRQTnUzaKnxaistxa3MIiJgG55KVIkIaIzJ2F4qilKJEfJA0mIdP+M05CBRJQ21JBtFQAREQARiIeAKKjZQcDNyo1Q4oKh0aKBciY6+cwmorbg09DktBExgtt9K+7vcPlNpKVcW7bS+TXt9tKZ2GRVUzUdojSXKJSkCElWSIq98RUAEREAEEiVgTicHuBwUhDmf7jWrV6+uaK8GyhXx6EuHgNqKA0MfU0PARJRSUYXtWYdfBLgcxetB/uZrceGn/gK7/eOteGoH2e3AO09/G8ePGYMxg14TMeH8/8DMJ9ZhS84vxq415iu45/S5vQjoV7C96lulFQEREAERKNlDpZygQhHFBr90mKoddq0GGNVI6Xu1FbWBNBKQqJKOWlu6dKn/j/p9bRpOCgIEoy5Ddx+5vovXb94/b3fH/kfjk+PH45BDPoGj9t15oB/eB3tP+wNe6PVTWbElQJWWCKej9cjKRglIVGmUnO4TAREQARFIJQGbUeLAtpygwoK511WLUuH1GiinsjkkYrTaSiLYlWmTBEpFFRtIsj3r8IeA1YvXA/wKosqulzyJdw1nbgs2PnspLjm+E0EwAh+evgRveKir2CQM/4/oaE8C+hVsz3pXqUVABDwhwBklOj72ojPETrmWl91j70xLR2UCrlBSSVCxmT4OFmp1kjRQrsxe3xYJqK0UWehTegjwt5Bt15b/sO+xtpyeUmTfUqsnr0taq6gyUIjc+hmY+jcdCDq/ifNffc/LovH/gj1u3EsDZVSsBCSqxIpXiYuACLQrAe7PQYeTO+/TwWFHS0eUL3NC43znemrLj3nTBtpCm8L2DmmHeqpVUCELq6d6HpPo1mc78FQZGyegttI4O92ZHAEbrLP98pCoklxdVMrZ6qnSNYl/V6eoAryBJ3/64Xy0ysdmvYz8NiyJF2KwAeZzDT6rv9qFgESVdqlplVMERCAWAiae0InhoN0G4+6giZ/DRA7ew8gUOqb2qifaxO6xdzfKpRYRh7bS5pkzZ2ZebKlHUCFPqz/WUa2H3cN3HSJQiYDaSiU6+s5XAjZYt98497fSV5vbzS76JPQ3WEdeT6DULar0YvNdf49hQYBBy4M8qmCJKh5VRgKmyPNLALqyFAERSC8Bih4UIThI5yP03MGRCScWGUKHsx6RJG4qtIU2VRKAuCTGhBafbG+GTT2CCvMxYayeKBXe57aFZuzVvdknoLaS/TrOYglLRZTSv7NY5rSViRGp9vtSy15giZWvblEF6FvShVFBgJ3PvQ+vJ2Z4+YwlqpRn0w7fSFRph1pWGUVABBomQKeEIgofTWizP3RYTEChQEHH0mvnpUrpabtFudApKC0ny05HLY1lrFdQIQdzSFnmeg67j+86RKASAbWVSnT0na8ESkUU929+1pE8AU6M2O9L8tZUsKBuUaUPW+85DMM9jlThRJvXj7GuUB36qnkC8vyaZ6gUREAEMkaAERqMNnEjUSg0cIDOgXZWIjgqVRvLGCYm0WEjmzQwqFdQIQ+rc77Xe5gjK1GlXnLtd73aSvvVeRZK7IooLI/7t0SV5GuY/bL725Kt5T9bseLaUV7vqUL29SwZTr7FyIIoCUhUiZKm0hIBEUgtATojpUIKBQQKC2kQEOIGTwZ0FtxZMAoPZOZjBEsjgoobNl1vlAr5u85s3PWh9NNNQG0l3fXXrtZv2rQJt99+Ox555JE8gt7eXqxcuTL/6unpaVcs3pSb/TF/W/bYY4/8u9dCV72RKr2/wzWH7owg6MKUF7d7w9wMMUGrEd/B0tB7uglIVEl3/cl6ERCBJghwFocdoCsUmJDio1DQRFEjvZVsKDa53LhsyBdnohFBhYAsSoXlauTQQLkRau15j9pKe9a7Si0CcRKwpbtf/epX86KK11ETdYgquZ4ncO+/jkRn0Indz7obK3JxUmwsbfo//F3XJFxj/LJwl0SVLNSiyiACIlAXAYoCdDbMAeFgmn9LSKkLY/5iMuPsmLHkO1kmFXbMvG3ASnGkVjvc+xqd3bN8+a5DBCoRUFupREff+UCAkScrVqzIDxJvu+02lHude+65CHs9/PDDPhSjbWxw9wNjH8b+r9EJgpZAqyCq7PT5s/Clb34TXV1d+MHUQ/AP+zJCpRO7TZqFu7e93xLz6s3E9t2r9z5dnx0C8vyyU5cqiQiIQBUCFADcKAafoiuqmJ6Kr92onyTEFZsp4oC1HkGFwouJQmwTjR4aKDdKrv3uU1tpvzpPW4kpqLjttN7PFFp0tI4AB/WsI9sPzJYCeTtZtGE6TusMEBxyDRbkdZJebF74OYwOgpJ2Nxx7fm4KTpj9OF7o2dE6oHXkRB+C7Olf6mhfAhJV2rfuVXIRaBsC7PAYieAOnBuNRmgbaE0UlGwpTtDJMHGlieRqurVRQYWJRxGlwnTcQUdNRuuitiWgttK2VZ+agoeJKhy4h0Wl2Dm3Xf/kJz9JTVnTbiiFE2PPpbk87BzFFZ8OszOKd1/KReYsj/xKX2okGTskqiTDXbmKgAi0iABDYm2vDA701em1CPzAkyFMXGEdxMW+GUHFjVJp9lGIrpPYOsrKKY0E1FbSWGuyOYwAlwlxaZDbpk899VRo49owWvGcs0E968CNTGH/y4kN9nO+HG47afazL2Wif+P1UitfQGXcDokqGa9gFU8E2pUAnQg3HJbiio5kCFD0sCghzppF6eA1I6iQhrsczHVGGyHlOoiN3K972oeA2kr71HWWS8p9Uz7zmc8UBBV+XrhwYZaL7GXZbOKodGKAExn8rWE0po54CFikK30RHe1NQKJKe9e/Si8CmSTA3dfjGsRnElgLClUqckWxQ36zgoqFR9PpjGIttAbKLWhIGclCbSUjFdmmxeDSIEajuO34hhtuUHRKAu3BhBPWRdjkkUWLRtHnJlA8r7OkD0Ffk4x1iIBEFbUBERCBTBGwgTY7ujAHI1OFTWFhWCesG76amdmxeqYjWc+mtC6yKKNUmK47wHDz0WcRKCWgtlJKRH+ngcDmzZvBvVLc9sv9VNauXZsG8zNpo/Vj7FPDDhv4a3lKGJ3mzkmwao5f1u6WqJK1GlV5RKCNCdhAm85Ds0s52hhj7EXnjBnriI55I8KK1TPvZ9hzI8uJaIMNDKIKjbb0+K5DBCoRUFupREff+UYgbN8ULjVR9EOyNcW+j2IKf08qbUhre65UuibZkqQvd2Malf+QPgKyuJSAPL9SIvpbBEQglQRsoN1o1EIqC51io+kMNiKsWD3TiaQz2ahTbzNMTKMRUSYMvQbKYVR0LoyA2koYFZ3zkQD3TbH9ydhuuW8KN6bVkTwBtz+s1hdaHfIeHc0RYMQt/y/Qh9EhAkZAooqR0LsIiEBqCbgdXFQD5NTCSJHhrrBSy5OBXAeyGUHFXYMe5SyTBsopanwJm6q2knAFKPuaCPz7v/97IaKPbZZ/cwmQDj8I2ORALYP7evtbP0ronxUUr+h/NBol61+JZFFUBCSqREVS6YiACCRCwF0vLEElkSpoKlPWGR2UahEjUQkqNNYc0Wp51lswDZTrJda+16uttG/dp6nkbjvlxrTcP6X0VbphrXtPmsqaNlvp+xjrWqNP3P62WmRL2ni0wl4TVOg7iF8riKcrD4kq6aovWSsCIlBCwAbIaejgdqyejiljD8Vht69GX0k52vlPixwp9wSeKAUVi2qiM1qrI1pr3ZiDy3cdIlCJgNpKJTr6zhcCbjtt5LMv5ciiHdwfxeqkngklEwZ4b9R9YBY5W5nop9gEUBr8TbNb760jIM+vdayVkwiIQMQEbDAe5RKOuk3s+QNmnzoOY8aMKb7+7ms46me3YN76dwcl17ekC6OCALte8iQGfzPosrb8wxzEUmclSkGFYBmyS2eS71Ef5uDyXYcIVCKgtlKJjr7zhQD3TimNTOGjk3k+7MX9V/i4ZXv5Uo4s2mF9WbnJiEplZj9re5pxw1UdlQmYH6IIlcqc2v1beX7t3gJUfhFIMQFGqUS9hKNuHK9Nw0lBgKBzPD56zLE45JBP4Kh9d+6fQRp9Bs5f+U4hSYkqBRRDPlhYsusgmiPDAWgUzoybHj9HfWigHDXR7KantpLdulXJRCBuAm7EJSeXGjnY55qwwk1s64l2aSS/NN5DJvbIarLSUyXTWIuts1miSutYKycREIEICdh64sQfEWiiyqjL0G1revpewTO/+CSGBQF2Ovk2PJ/rL7hElcoNwJwXXuUKIFEIKkzTZvZq2dSvsqXh32qgHM5FZ4cSUFsZykRn0kFg3bp1WLlyJdavX583mFEpt99+Ox566KF0FCADVtqTfKKIuLQoUabVqECTAaRDiuBG89A3keg0BJFOlBCQqFICRH+KgAikg4ANukuXi7Tc+jBRhUZsuRrfGx4gGP59XL1lR94sV1TpeWM+bvnpZHR1TcakXyzEo9veDzG9F39+5f/h5vx1Xejq+i7OnLMEL/T0p9d/w3ZsfHwmps1YiEd7tmPDE5fisqknoKvre5h610psHBB0BiXe9yqW3/0DXDSZaU7GpOm3Yf4byS9Istm38847r7BWPCpBhUvEbCAbl+No6es9KLAWi+osBv3f1B8i4DkB28eM7zzst9X+9tz81JvHwb39rka19Jl9L/tapkuRpZ0FBJbd2jSZxBHVmvpGqAKEEpCoEopFJ0VABHwnYJ1e4naWE1Xevg4/HBEuqux8/CR87f90FByjIOjEbpNmY1GPq4Bsw2sLjsWhnaWDsk7sevQluG5970DRN+LJ6XshCI7BqVPHYDSXIhVe+2Hs9X/EFhdS78OYN+XD6AwCdOx/NLom7Jn/HIw+DVOX/9m9suWfXWeRZYhKUGG65jDG6fgXubt1oM/iUrkNtPw/mjIUgSYISFRpAl4Et3IPFPtNjXI5CvtJi4BpVzGBAopFtLKdR8k3gqpXEp4TkKjieQXJPBEQgXAC7PzjWsYRnmOZs6GiSi+2PvwlHEjh4itz8FTJ8p8gGIfRF9+FRZvfQ9+2Rbj1zGEIgrEYP28d+i/NoXf5mZjYGaDj0Gn4yR835ze2zfU8i0cu2wfDgk7sfu69eDVvkokqAYLRX0fXvOVY29eLbSun4Zy/6UAw7GxMX2/rkjbjpWs/gc5gP4y95ims6WNuPXjryW/hxGEBOo67AY+4QTBlihznaXMWoxJUaKsJcEw7rigV5mO2672yiCA+g/nE+f9JaYtA1ARsuYgJ1Pb76kV/HHVhPUzPHfTHYR77SMuD7+0QqcEys/2yb2KZGbmjQwTqJSBRpV5iul4ERMALAnTozKlL1CATVUacjakPPooH7piBGy+bgKM/3oGgcyJOWLJ5QCgBbPnPzqffiZcKQSk5bH94IkYOeirQWjw6jdEn++Gg371RuD9fzrdvxMV/S7HkO7h8E5cMmagyDp+euxZFTeQ1PHbRBxEEE9C1ZCAC5d2bcem+HQgOuhLz3ysYAGAV7vvOngiCb+D8NRYBkwxVOjW77rorolrW5UapuJvgJlM65SoCIiAC6SZgIor1v/Y3f7t1xEuA/aKJ0nGLHW7Uhokr7E+zdLhl5EQO27IOEWiUgH4BGyWn+0RABBIlYI5cokYwcxNVCktuOAvdiV2P+B7OfGAdtjsGmqhS+kjlIedzSzDny7sgCE7DtNcsysQSeh53nro7guAoTHrmbUdUccST/KUmtjjnzdbxJ+HIf/kXdHVxT5UunHnmF/HPR+w6WICx7Fr8TocxSsfGNr9lugrlbXFlKjsREIHMEbC+V6JK66vW+jMKAK06SoUHRipFNenRqjK4+dAPYBnIkH4BBSO26awJRm6Z9bk1BCSqtIazchEBEYiYgK0rTnygbELFQKRKd/c9WPDim9jqBoIMlH2IeFLufF83LhtFcSZMVCmNQAkRT/Lphpw3W0dNwKjDDsOYMWMGvyZe6uzVEnGF1ZAcQ3Dp5EQVesu2wfT4UpRKDRWgS0RABESgCoFSUcU2GOfvrI54CZgQkER/xnqmkGZ9KpfL0A9L3AerATltpK22xIdlYFnijvapwTRdkiEC+gXMUGWqKCLQTgRswMyOMtGjIFQ4j1QuY1DNogqexq1fZ+TI1zF1VclTeQpRLPZdiHiSzz/kvNl64k14OkT0KWN2y07bWv2oZozcWb00OH4tA62MREAERKBBAqWiionhElUaBFrjbRQATNBIMlKEfSnbACM8zB6KFey/2RZ8OWgL7XSFFNpMO+UP+FJL2bJDokq26lOlEYG2IsDOkp1koocJFaOiFFU24tkZH0UQjMLoX69wlhDl0Lf6Apw8LEBwxPVYnN9AJUQ8yQMJOb/jXlx/2M4Ihp2BaWuT3TultM5s7xNuQBzF4a49p2OlQwREQAREoHkCJqrYEhSJKs0zrSUFixKh3+PLwX62VLiwKBCKFxSCWiEAMQ9G0tAW41Qq+LTCDl/qRXYkQ0CiSjLclasIiEAEBGzmJtEQzlhEFSC37ic4g49d7jwcB/78Nlx37wLce9M3cdbBf4Gg8xhMfGjjwAa2IeJJnm3Y+R68PvdgjOaeL0dfiKl33I/u7m48cM8VuOFHEzD6mBsTe/qPOepRzXSZY0XHP6rIlwiarJIQAREQgVQTsN9qDlp5SFSJvzotMpfME4/OLVNc9rMUNiimuNEhrrjBfpnthy9ey7ZjrzLJFr7ndSac8H6mVS4fRqnSL1RESjmqOh8HAYkqcVBVmiIgAi0jwE410YHzhuk4rTNAcMg1WMCH8VQ4yi3/ef+ZSdhv0NN/mEgvtj33A5x7ODelLT6CtePTp2DSfWud6JUw8YT3b8LSGX81dPPZ3Dq8cOPn+p9O5KQbdB6EsTOXYE0Cy4Lo+LAO6SRFcbhOPp0vHSIgAiIgAtEQsMkMiSrR8KwlFfZj5gekaZKAfTHbSyURxMpV7zt9P/oMFHEoNDEvHSKQJAGJKknSV94iIAJNE2BIJzvjqAbk9Ru0HVvXLcfyTT2DH30cllDfRry2bBVWbS1ZepPbik3Llw89zzT6NmDt0jvyESW3PP4y1vQUH5rcn0UOfVtfwbJlr2Nj32BFJNezFqtCzgM59G1bhucW3TKQ7gqsLLUpzP4YztFBNGEsqlkltgW2CS4NS5MDGgNeJSkCIiACkRJwRWsm7P6tgW2kqAuJ2f4lSWxQWzAi4g9sK/ZyI1AowLivWiNaIjZPyYlA3QQkqtSNTDeIgAj4RoCzFBxEZ8nh8I1xXPbYZrJRLeFyZ1GjSjOusitdERABEUgbAVdEoe3u3/ysI1oCFBUsioOfdYiACPhJQKKKn/Uiq0RABOokYINzCSt1gkvwcqszhu9GddiMXuIbGEdVIKUjAiIgAh4RcEUUmuXu9yFRJfqKsn5SfVr0bJWiCERJQKJKlDSVlgiIQKIEzPngu5Z9JFoVFTNn3dgSHdZVVIeiVKIiqXREQAREIJxAqajCqyySQqJKOLNGz7KvNLZRTj40ao/uEwERKE9Aokp5NvpGBEQghQRMWOE+HVHt0ZFCDN6azD1wWDd0FLluOqqDzqdFqSS3v05UpVE6IiACIuAnAVdUsT7WBv4SVaKtM3eiwFhHm4NSEwERiIqARJWoSCodERABbwiYI8Inyvj6+EFvYLXQENv7hvUS9X4nFGjk2LewMpWVCIhAWxJwRRUTUfTbG09TsAkITRTEw1epikCUBCSqRElTaYmACHhDwI2IoEOiWZ7kqoZ1Yct96CTy7ygPRqlQqKFjL+czSrJKSwREgARMNNB7IBZBfQwa/R/EftLaW9STEI3apPtEQATKE5CoUp6NvhEBEcgAATeCgWuSOQDX0RoCFLJsORZFjyiX+7glcOvYZk7d7/VZBERABJohYINbvdcnKIhX48Ms+ivkx75Tfksz/3t1rwi0hkDj/9tbY59yEQEREIGmCXBwb5ESNriXk9I01rIJkDeFDosemThxYmyRQszL8oly09uyhdMXIiACbUdA4oDElEbbQKP/WdSvNUpO94lAMgQkqiTDXbmKgAgkQIBRDK64wkE4B+U6oiFAlhaZQgeUrOOOHHHzU11GU49KRQREYDABd0A9+Jv2/ItLU2xjcLKhAKAlKsW20Gx7sX3hmE7Uy2WLVuqTCIhAlAQkqkRJU2mJgAikgoArrtBpYSTF3LlzU2G7j0bSATSxynjGLaaQA0UUc14VpeJjy5BNIpANAvY7w3cdRQL8nedLkZ9FJvzUbHuhT8I0KFzpEAERSAcB9Q7pqCdZKQIiEAMBi6ywMFu+c3CumaHqsClCkZXLjmvAWxktYlEqtKGV+VanoytEQASyRKDZQXKWWKgs1Qk0017cyQI9vbA6a10hAr4QkKjiS03IDhEQgcQIcJaN0RY2O2QzRBy0K4Klv1rIqFRIIScySyLsm7Oj5rjGtQFuYg1SGYuACHhFwH5r+K5DBKoRaKa9uBuva7KgGml9LwL+EFDv4E9dyBIREAEPCNCJ4eyQK7DQQeLfPN9OUSwULujguUt7jAWFlCRDvs0mRqkkaYcHTVYmiIAIxEygmUFyzKYpeQ8JNNNebK8a+hw6REAE0kNAokp66kqWioAItJiARbAwYsUcHXOWOKin4MDojSzMJrEMLEuYiMKyW9SODwKGolRa/B9B2YlAmxOw332+6xCBagQabS9u36Yo2WqU9b0I+EVAvYNf9SFrREAEPCZA4YERGhQYxo0bV1h+QgeKERMmtDCihc6RDwJEKU6WgbbRRu6BQpttXxRzBFk2lpFl9VEwsigVij0+Mi5lrr9FQATSTcB+G/muQwSqEWi0vbDf5b3sk3WIgAiki4B6h3TVl6wVARHwiAAH9BQoGN0RJrSYY0WRgkIARQxea6IL7+UrqsPS4zvzYF4mnJSKQGYb7aLtZlNUtsSVDoUes52fdYiACIhA3ATsN4fvOkSgGoFG2gv9CZvgYL+tQwREIF0E1Dukq75krQiIQAoIWDQIRQ2+KFzwZQ6T63CV+8woDLuv9L10KVK5NHieedr9rqDjYwRKLVVrZee7DhEQARFoBQH3N7YV+SmPdBNopL24EwZp7Z/TXWuyXgSaIyBRpTl+ulsEREAE6iZgES4WWWLii/tuESYmiLjvFvHiXs/Plh7fs7gsxnU6FaVSd7PTDSIgAg0SaGSQ3GBWui0DBBppLxZNyncdIiAC6SMgUSV9dSaLRUAERKDtCFAksigVCkw6REAERKBVBBoZJLfKNuXjH4F62wsjU+weTRj4V5+ySARqISBRpRZKukYEREAERCBRAozEMaeTkTg6REAERKBVBOy3h+86RKAagXrbC6NPeQ+X62YxyrQaL30vAlkgoN4hC7WoMoiACIhAhgnQybT9aBSlkuGKVtFEwFMC9Q6SPS2GzGoRgXrbi/Vv3DRehwiIQDoJSFRJZ73JahEQARFoGwKKUmmbqlZBRcBLAvUOkr0shIxqGYF62svcuXMVhdmymlFGIhAfAYkq8bFVyiIgAiIgAk0S4FpzzeI1CVG3i4AINEWgnkFyUxnp5kwQqKe9TJw4MS+q6Il2mah6FaKNCUhUaePKV9FFQAREwHcCDIc2B1WPmfS9tmSfCGSTgP0G8V2HCFQjUGt74dJWu5YRmTpEQATSS0C9Q3rrTpaLgAiIQKYJuE9E0FrzTFe1CicCXhOwga9EFa+ryRvjam0vM2fOLIgqmjTwpvpkiAg0RECiSkPYdJMIiIAIiEDcBCxKhct/5HDGTVvpi4AIlCNQ6yC53P06314Eam0vXPLDa7kESIcIiEC6CUhUSXf9yXoREAERyCQBPjbZHFOFRWeyilUoEUgNAfst4rsOEahGoJb2snTp0kIfN2vWrGpJ6nsREAHPCah38LyCZJ4IiIAItCMBPjqZjimjVLjuXIcIiIAIJEWglkFyUrYpX/8I1NJe3EhM/0rQGosoLHEChU9A4uQJX2effTbY/7svi+hxuYZ9pr/g3sfP5GxpU7xifnzpEIGoCUhUiZqo0hMBERABEWiKgKJUmsKnm0VABCIm4A7gIk5ayWWQQLX2wokCe6odRYQsHxROTDShwEGhw8rucnI/VxJGTCAJe29EkLG8mJ6JLlmuD5UtPgISVeJjq5RFQAREQAQaIEAnhw4WZ6cUpdIAQN0iAiIQKQF3wBdpwkoskwSqtRcO3u0aig5ZOTghws13KZ6MGzeuUEYrq0WSWPSIiRitihzh3mzMy0QeE2HCbKX/wb1uKLbwHvkiWWml8ZVDokp8bJWyCIhAxglY6Co7XHfWxGZjbAakkXc3vVY7HklWm+ts8rMOERABEUiagA0K+a5DBKoRqNZebOKAg/k0H+b7WHms3CaepC36w42qoaBSuuyI9UX/jr6JNs9Pc8uNx3b1DvFwVaoiIAIZIUCngR0onQN2snQeqoWusiNuREhx7zHnpNw7O3dez5kW2kY7s9DJmxPDdx0iIAIi4AMB93fYB3tkg98EKrUX9tP2PaM60nTQdtpM38PKwHf6I/RFsig2MEKlnHhk5c5StFGa2qNvtkpU8a1GZI8IiEAiBOgsWEgoHQYb3LuOg4klJmTQgWBny1ecR1hEjAkwrn322cQW2pemzp72Whn4WYcITzeOBwAAIABJREFUiIAI+EDAfpf4rkMEqhGo1F7oP9j3aVhSYkIKBQSzm74QIzboM6WhDNXqq97v6fOxHl0mnGwzJvWmp+uzQUC9QzbqUaUQARGok4A5CuwESwUU/m1raek0+C5M2EwKZ5DY0ZfOItER4jmLaKkTVUsuZxmsHmirDhEQARHwhYANJvmuQwSqEajUXqyfo+/h68H+mBMbrmigqIzw2qIvSVb0Ga3eWcf0xfidjvYhoN6hfepaJRWBtiZAJ4ECSamIwtkFE1A4+8DrsnJQDGJnzzK7zhE7fgoXFGF86fQp+JhDEnfkT1bqV+UQARFoDQH7beK7DhGoRqBce6EPYt/xs28H/QH6C7bE2cQB3yeWfOEYJkbR1/Kxrn1hliU71DtkqTZVFhEQgUEErINzZxDo0Jig0G6OgvEoFZaSdpxolzlxilIZ1IT1hwiIgAcEbCDMdx0iUI1AufbCvpffsc/16eBEBvtes5s+k4SA5mqIAhWjVcy3YZ1rWXNzTH2/W72D7zUk+0RABOomQGfAnBc6CezU+DfPcwCvo58ARSVGq7hRLPzMc63kpCgVtUgREAGfCdhgk+86RKAagbD2wj7VzrPP8+GgD+CKKfSTfIle9YFPFDaw3ulTUVRh/UtciYKqn2mod/CzXmSVCIhAnQTYcdFRsY6LnZcJKXUm1ZaX05EK4xf3UhzmazM5rC8dIiACIuAbARsM812HCFQjENZeOLC280kLF/SX2N+aPYyo4Dkd8RJgpIr5qBSz4vav4i2NUi8loN6hlIj+FgERSBUBOid0DmxgbrMAchAar0Z29K7Dxc4/rlBgN5+kHc3GielOERCBLBOwwSffdYhANQJh7cUiQtmfJnmwLzd/if2v+t3W1wYnsKwOJGi1nn9cOap3iIus0hUBEYiVQOlMi1T/6HHT2XI7fzqFUc6sMH1zPunc6RABERABHwnY75REFR9rxz+bStsLl9nYuaT21aDPZPvLcfIpyr7cvxrw3yL6P259tNsef/7XUP0WSlSpn5nuEAERSJiAO9CXmBJ/ZdAZK2UexeyWRalwxiaK9OInoRxEQATakYANiCWqtGPt11/m0vbi9nVJRNFywG7LThQZUX99xnmHGzmUlOAWZ/naKW2JKu1U2yqrCKScAGdWzDGQmNL6yjRxxRxGCi2NHqzLKNJpNH/dJwIiIAK1ErDfKr7rEIFqBErbiy31SCIik30t8+crrmW81Xjo+8oEOKlky8MoeulIJwH1DumsN1ktAm1HgB0NHRU6BlLzk61+OgAUtVgfdAQaCVu1+1mfSczcJUtQuYuACKSJQOkgOU22y9bWE3DbC/0V+7uRvrIZ6y1v9rOtzrsZu9vxXvpBthwoCfGtHZlHXWaJKlETVXoiIAKREmBHYwo+B+IagEeKt6nE+DQDOmv1Cl2KUmkKu24WARFoMQEbFPNdhwhUI+C2FxsoM8q2lQdFFPbN9J/kN7WSfHN52VKxZiKBm7NAdzdKQL1Do+R0nwiIQOwEzCmgg8IBvA7/CLCOTPSqtY4sSoVOppw9/+pUFomACAwm4A6SB3+jv0RgKAG3vdjnWvvHoanVf4b9qk14KEKlfn5J32E+kpZrJV0T9eUvUaU+XrpaBESgRQRMUKFjoI6lRdAbzIYOnAkr1cJWLRyZjqaWcTUIXLeJgAi0lIANjPmuQwSqEXDbi31u5QSCRccwKlRH+giwrXDSif5vK9tN+kj5ZbF6B7/qQ9aIgAgA+SfBaJYlfU3BwlYrzcjZRsOtDoVOH01ZLAIi4AsBGxinV1T5M1697QsYO/Z7mL763Xix5rbizRffxNZctWx6se25C3HB8R/Cxzv2x96nXo9523YAKHe+Wnr+fO+2F36myNGqw5bXZnb5SG4rNi3/b6ztYVup7cj1rMXy5ZtqaJO1pdeKq6weq01UtcIW5VEbAYkqtXHSVSIgAi0iYFEPFFUUttoi6BFmYxErYdFFilKJELSSEgERaBkBd5DcskxLMnr/xSk4suNv8PFZL6K35Lvqf27Ek9P3QhBMQNeSP1e/vN4rcm9g1V3nYNrk4RgVBAMbs47GXv9wAab87mVsDBFYcut+gjP+TweCUUdg/ymnYvKHz8b0De+j3Pl6TUryere98HNYfxiXfeyDW7O0dgd6lv8AZ/zdGIwZU3yN/dp3cMoNT2Flb0ilN13oXmxe+DmMDjqx23fvxZqa0luBe6cOQxAciAkLN9R0hy8X2UQVHw6gw38CElX8ryNZKAJtRcCe8qOlIems9nJhq3aeDibXC+sQAREQgbQQcAfJSdnct6QrL1jsesmTqD/WJEZRpXcp7v3hX/eLKZ3jsffJ38U3Tzse5/7jSIzvpMAyAh/6wX1YOWiM3YvNd/09hgUj8LFZL6MYc1DufFLUG8vXbS+tjMrkRBTzrhQt2liJwu56F6/fvH8+v479j8Ynx4/Hscd8dKDOO7HbSTfhkfrVv7CMnHN9+POSr+LQjr/Ch366BCaR7Hj1X/GPu40oIziuwRM/3hsdHceia8lbTlr+f6SYwvrUY5b9rytaKFElHfUkK0WgLQiYQ9DKUNmmwO54HPNOH4exU+bhqaJXGJ5kPdeGp5Cas2FhqwxFNkdT67xTU5UyVAREgM5yIfoiObfZT1GlB6/PPRijgwA7nXAVblz7NoraSR96Vs/AD//+L/JRAgfftc4RT2xAPgpjuv/ktLFy551LUvDRbS+tHBDbpFRr9uGwugpQFPpy6Nvcjau/vBuCYB/s273GqfP4Kq65/xvx2RVFyhZ5FEVaSiNeAsn1DvGWS6mLgAikkAAjGFq+Mde2mzDzqN0RdP5fHHzn2vocgL5uXDYqQDDqMnT3VQFez7VVkkrD127YKh081isdTUWppKH2ZKMIiIBLwB0ku+db+bnswDG3AasXTcdlU09AV1cXuqbOxM8eXostRXUDgBupsgkbnrh04Prv4sw5Tze+VOO9ubjiwJ0QdH4NU158OwRHL7Ys+gLGBgE6vjIHT9Gm3hfwyK9/iP88eziCYDj2mnoNpk2bgUsefAwPhZ1/fEOxX+57Fcvv/gEumtyFrq7JmDT9Nsx/ozRuZzs2Pj4T02YsxKPvbMbym07H5K4pOHXuSmwJsTCOU257aeXSDfavretjw0QV0uzD1nsOw/AgwM7n3ofXXcA1tVUg1/McHvt/Z2Eq2/Pki3D+Hc9h1cByotyG+fg128vjG5DDNrz20AzM+dGY/vwmX4oLZ8zAtBl3YfG29wdyHmgP0+Zg/obBoTO5bU/gwd8O5JNvT7fglkHCINCf3zW4bsWf0fvGfNzy08n9be8XC/FoIQ+3kNF+tgmp1ghl0drebqlJVGm3Gld5RcBTAsmEOb6HTXd9Nt8Z0wkqOH21MqpHKKnn2lrz9/g6tz7NKSBjRal4XGkyTQREIJSAO0gOvaAFJ0NFld6l+MN5H0GnE0nTb+s+2Puixc6SGxNV9sHfHvHxfGRJsUwj8KEL7sELDeyBseP5U3AI8554Ix4dJOI4QN6+Dj8cESDo/HZ+zxRsuhxnD7N9V4rvu57xzzgt7Lwtd+p9GPOmfDhfVi436ZqwZ3+5R5+GqcvdfWKsrJ/HyafuXWRz0m1Y5pgV58ci22L5WnkuzrIV0y4nquzA24s/jxGlokqtbbVnIW74+l/mBbc9JxyH4w/oj3rZf966fNbu/4M+PI87T919UCRZP+ejMOkZE/msPbj7CeXQu+6KgSiqkjoa9SUct+iNgpDXn98IfOSfz8bJ3AOo8H+tE7tNmo1FPeUafpFUM58s8le+UzMUW3OvRJXWcFYuIiACVQhwDTA7q1bO6iD3HO74pz0QDD8URx66C4LOSZj6cumsVwXD6xFK6rm2QpZp+orLuD7ykY8UolS0i32aak+2ioAIGIHiQCo5t9kdTPb3Upvx0rWfQCf3LPn+PCzazFn4Pmxf+2tckV9+cRAOvYez+TxsYMnIyi/hi7f+EWv73sf29b8dWKpxCI5cvMmKW+P7e9g494C8aFFc/hFya24J5nx5FwTBRJzy/DsAtmPb689i6TWfRBCMxKhrn8SyZauwaus7Zc6zXFbW/TD2mqewpo+l6sFbT34LJw4L0HHcDXiksATXKWvn53HkLUvx0upHsfCp9dgeYl4cp9z2ksTnOMo0NM0yokpuNR69iFFIo/A3v3llQJyw+qvWVi3KZQT2/o/l/fWV24INT83G7BX9wtng/wc59G19BX+680iMDALscuECLH3lFSxb5T7px9qDI6r0LsSvvkCfj+1jOdayPeU247UHT863p2CfC3H1pv5IF8svCMZh9MV3YdHm99C3bRFuPZOb347F+HnrnCVvQyk1e0aiSrMEW3d/cr1D68qonERABFJAgAPwVm7oRiS5tdPwjWEMUV2AFXMPxLBgOIb/54sIX8nD9eGzcf2FX0VX1xSc8sv7sOKt35ZZ/lPbtcWw0i3YtuyyfEjzCRfdiUfyMx9cm7wYf/jlqZjMENiu8mHalUJl6WT3rL11IGS1CydM+zWufmZDS5xLE8rMqWypYJaCNi8TRUAE0kHAfsP4ntRhg7uCgPH2jbj4bzsQDD8Xl29ye60deOfh4/JLbnY6awFezRtsA8tx+PRcd5mrDWJDlmpULWiZQfWQ+57GrV/fteTJQ3ZvjXuqvHszLt23A8FBV2L+e25kwCrc9509EQTfwPlrbGmHlXUk9r7y2ZYt+XGL7baXJD67tsT32eowwF+cdSN+e/dtWHDTBbjy2x/Lb1rc8bnLcfPWgSU4NbfV9wc2MB6OD1/+DN5yq3qgIEP+H1BKrLiJs7UHE1WK/z92PnsBVg/KYy0encanZI3DgXetz+doae98+p14qXBtDtsfnpgXcgr/H2MCLVElJrAxJJtc7xBDYZSkCIhAegm0di0wOb2NNbM/hc5gPCYsfBNYPx2nM/R4iNPGa3ux7bmzSkI/A3Qc/Fn8X94zaE+V2q/t76xH4CPfPAlfzD8lgWGop2Haa73offlinHMwN/gbjj0nHIOj9t0ZAR8jWBpuWjFUdge2L/9Ov92d4/HRYw7GZz/eUQzDjrm5zJkzpxAqqyiVmGEreREQgdgIuAPj2DKpkrAN7mwQl1tzPk7kUoSwZS0bpuM09in7XYH5+XFt6cCymFnFdIqXhXwqDqrNppCLAJioYpEqvMrurVFUeW0aTmJZx5+EI//lX/r3junqwplnfhH/fESpYFO+rOH2RX82qfbSWj/K6rBk+UywDz767esxe10xLqhiGytpq7nNv8bF+c2Nh+MDX/0pzlswEEkyUE2l/w94OuxcsVZL20MP1vxm33wkzeBNknmHRV914i9nPov3KqRdOc9i7s1+sskpTUo1SzL++yWqxM9YOYiACNRAgE4I995o2bHjftx47C4Ixv4Us99h6OfAUqDgGEx6xl2fDeCdm3DZAdyM70s4YRE3AOzFtpXX4Bdf4brfElGljmutU84/cvL7c3H3qtVYtvB5bHhnQX9o6uh/wpSn3ux/fGbfK3jmF5/EsGAkRv7XioFoGptlLBcqa7N4X8WUFxl2DeS2r8Az19+DR2NeB8y8zjvvvDyfPfbYo7XLulrWiJSRCIhAOxBIapDssrX+wgQM+ztUVNk+Gz8e6fZNpQNLJ2UTLMLEGeeyoR+Le2cUI2KGXgWzZdh3cPnAkoqGRZVREzDqsMMwZsyYwa+Jl+K69aWRKhaZEGJTzKeSai/29J+YizeQfFFU6Y9UuRvd8x/Hkk3bhyyHqa+t5tC7fi66f/QpfCY/2dSJXY+ejqvX9S96s7Ts/wGNCTtXZFDa9u3vUkGPdwyNQCmXdrnzxXyj+ZREFHc0lrdfKhJV2q/OVWIR8JIAl/608lHKO16cgiOCTuzxb49ic56ICRTuOX6Rw7uPn4Bx3HStNFR0y9U4jxvwFSJV6rm26Ah0HHst7i6IHJbGMPyvmUthW63lTdxyNb43PEBw4k14Oh+G2lslVPZFLDizE0FwHCY/vXWIoxN3Q7BIlYsvvjjurJS+CIiACMRGIKlBslugIYM4E0NCNoktRAYUvrOB5FChob8vDNBx2p1Y6WZYw+fcumk4mQPffS7CdVsLm5o4d+7AO0tOxIFDNoK3AXnpwLbMeStroe9zshjysXxZh1wa04mk2svcuXPzExmzZs2KqWRuslZX7iOV3e+dz1Z/hfZY/G5oW7XvuAR6Ef7ws337H9l92p1YkSv6TY2LKmb3CHxs1suFDWn7c7UoluJ3Q/7fDZhX7rxZH8U7n/jDtqRI3yhoxp+GRJX4GSsHERCBGgi0Nmx1I56d8dH8Gu8vPvQ/RetMtLDolfw31gGPxOjfrB4sTAzZfLaea8Odg+IM3jDs+ZXzCmHOfFTmhd8/EMeULDeqHCr7Ht566Ms4lE5v50EYe9Fs/GrZ5v7Il2KpY/tkDt7SpUtjy0MJi4AIiEDcBJIaJBfLZcsShuGDVy1DPiaj8DjjkzH15eJSC2ArXp29f8keYSY0jMTelz02sNErU7cNRCvtJ1a0Ysin3Au4+8wP5Dec3XvGU9hQ2HOi/8rctnn45ZBNc/md9ZU1iio77sX1h+2MYNgZmLbWIlKGWDNwwso6VEAqd0fU55NsL5ygas3+dFaHNYgqdbTV3Lvv5pfdFOrE/KyBpWxhYoYJg0Me4ZxPpLQ95PDe05NxEIW+E2fjEbc59T6MOZP4NKEuTHmx//9UWH5Mttz5gt0RfLAnJ8qHigBmC5KQqNICyMpCBESgOgELW6UyH/thHXwwGnsdcXwhjPjww/+6f88R22clb4g5DqXOH3vV7pKNauu5tlynbGl0YtcDjyvYVgx3/juM/5H7qMzKobLAn7HhiR9h+lf+18CjJffB3tP+0NDjM+utF86u0LnUIQIiIAJpJpDMIHkH3nnoa/jEGZfj5/9xDv7teD5a1n1KTw9en3twfha/47Pn4JSb7sV99/0Kc39+ECZ0Bug49BLcuHlgo1D36T/BCOx1+lWY/ru7sfDaQ/tF99FTMX2dO7qstbZy6F09DafnHzU7HB84cRrOuPI6TJ/+r/j1z7+AyeO4F9gIfOgH9zmPd2ba1s+V9qvlzltZuRTkQky94350d3fjgXuuwA0/moDRx9wY8vSf9hRVGKXC9sq9OOI9rK5qEFVg9RegclvdhGcvG4WPfpvtczHuuedGLLzqIHwm6MTuP3gAb5QTM+wx3fucjlPuXIj5F52HX662JzmWiioMQH4ad5zKDY7t/8JiPPT7H+Oqb/GR3SPwoYsewpoBgbCceFLufFTMuYfKBz7wAXDCUUc6CMjbTUc9yUoRyDwBi2qIP2zVdn4PFy3+4Yi98jvXF5f6mOMQMpNXVlSp5dpqokpIZEzFVhAeKlu8pQf/88crMDO/D0z8jwFkvnQIWrmkq1hWfRIBERCB6AgkJar0PHUSDs/vK8HNQEfgQxfcM1gQz63DCzd+DkdzA3Lu75V/cYPPK/CrgT0o+ikMDCw7T8KkWefgW3mxo//6jk9/G1Of+5/BUZh1oePT7q7GzIJwb3ZwaexEHPqrx7GytySEpSCq7IP9561zcrP+tvQ8B8JhZR2Iwpy5pDAILj4+uj1FFcIcN25cvv+Nd3PTkOgppyaHfAytv9K2uh0bFnXh2NL2fMps3L1t8COO3eU/rPOXrts/LzDm/w90nogpL/YMmBAiqrA5bfs95pzV/6Siwv8dRvResmjQ/7Fy4sn7z0zCfkEtgtIQEjWdoJhCu+Ktw5pM0UU1EpCoUiMoXSYCIhA/gdaErdoj8yZg0NIfK549+m/Y2Zi+vv8xlTuePwWHDFkT/jY23Hd8/yxfYU8VoJ5ry3XWFsq608m34flSX9TsHHivHCqbw7vvuo/aNCGnuLN9SXKR/WmzZRTLdIiACIhAmgkUBl0tj7zrw/b1D2Fx93zMf/YNbA3tD3Lo27YMzy26Bd3d92DBi2+GXJdD39ZXsOy1bXgX/LwUj8/vRvfiP2JVT9heKI3U1nZse31Jf7q0d+lqrK2Qdq5nLVYtex0b+wYXqtz5fovcsnbjlsdXYOXW0gibgbKGpN1IqRq5J7n20m8tl4twUoPiSqzRv30b8dqyVyvW82B+bv2Va6tArmclni/XnvN5rsKqIfW+HdtWLcR8/h9YtcVZ5lypPWzHtjX3Y3F3d9lNdlEuv9xWbFq+PMSOwSVu5C+L8o0/2qgR63RPOQISVcqR0XkREIGWE7CBeKwdSei+KW5RTXTZB/t2r+nfxKx3EW7oYuj1OIy+cA5+9YdiiHXeeXJEFdRxbTlRpRiaug/2/u4sXLVgMebNuxmL55+PS741Bp+aZU//qRwqu/X9ebj8fx+KCTNuxXX33ocH75mJX53+v0tCyN2yR/OZThwdutas647GZqUiAiIgAuUIJD1ILmeXzvtJwIf2Yv5U7MKKn1WQWqus3rQ5bfqqUKJK+upMFotApgnEG7ZqT/gZhmE/ewJvhZJ0nlZQeBpCDr3rrsKPj+IGZgOhzZ2H46Ab5+G/vrG78/QfJlj7tWVFlXKhqYyW+fQ/4ZTH3hwI1a4SKptbjgem/XV+OVPR7kMw/rrnhmwoGIqiwZM2y7J48eIGU9BtIiACIuAPgcLvZ8sjVVrNYCXu/9fxIXt5lTzCeMzhOOz21RgcB9lqW/3Nz5f2YgN0CSv+thXXMttbkPWlI30EJKqkr85ksQhkmgDDVumQxOUE9IcWVwlXZVjnqmVYvqln8Drzvtfx34/dju7uB3D/en7nhlSXVEst15YLKy0k5YSmMqT1j0NDpXlpxVBZWPh4hfDWQn7NfzAnjs6BDhEQARHIAgFfBsnxs1yDJ35+kESVJkH71F6sT6ZPpafINFmxMd3O6F6bjOI+dLEu2YqpDEoWkKiiViACIuAdAdcJUOfiXfWUNcitt7IX6QsREAERSBkBnwbJKUPXlub61l7YN3NJLl/8rMMfAhS6KHixzWjJjz/10oglElUaoaZ7REAEYicwbdq0WCNWYi9Am2XgCioSwtqs8lVcEcg4Ad8GyRnHnfri+dhe3ME7oyH0VJnkm5n5uRK7kq+LKCyQqBIFRaUhAiIQCwFuWEvnhCq+HIBYEEeSqDkGcS3ZisRIJSICIiACDRLwcZDcYFF0WwsI+NpeOOFh+3ZwIM++W0frCXC/OW7kz3bCRyfLv219HcSRo0SVOKgqTREQgcgIWAQEHQA9njcyrJEkRAeNDoE5BopQiQSrEhEBEfCMgK+DZM8wyZwBAr63Fw7qbckJB/daEtSapkvu5jPRp431SZetKZJycQhIVHFg6KMIiICfBBi2aqq+NvHyo44ocNEpoPOo2S4/6kRWiIAIxEPA90FyPKVWqo0SSEt7oZhivpXElUZru/p9rphiPpMmoapzS9sVElXSVmOyVwTalAA7IAoq7JA4mNfMSjINgWGqNtNCJ4zOgg4REAERyDKBtAySs1wHaSpb2tqLK67Qv+JEiZakNN/iyNUigtgmuBGtuDbP1dcUJKr4WjOySwREIJQAB/E2s8LOSoP6UEyRn6QjYI/8o3NAp0szLZFjVoIiIAIeEkjbINlDhG1lUlrbS6kIwIksTWDV13QZWU1fySJ5TaSSv1QfxzReLVEljbUmm0VABPKDeuu0GDmh/VbiaRSlYoqeGhAPZ6UqAiLgL4G0DpL9JZpty9LeXsKEAQoF8rPC2y15cQNgm/Bj/UuQCmeV5bMSVbJcuyqbCGScAJV/RkyYuMIOjRt/aUag+YpnBJAbmULhSlFBzXNVCiIgAukjkPZBcvqIp9viLLUXRqrY0msrF/+mr9WuS1noY1Jgoo/kCimMnm5nLun+X9u89RJVmmeoFERABBImwA6OHZl1bhRZ2NlJBKivYugguRzpQJFjuzpO9dHT1SIgAlklYINJvusQgWoEstheXCHBJrJYTvpd9BMovjBiI4uHlZ3RKO4eKSx/uwtMWazvRsuk3qFRcrpPBETASwKcPXBnVdjhsyPMamffbCVQMKEzZJvPmpNEcYWOhA4REAERaHcCWRwkt3udxln+dmgv9KnoJ9B3cEUWfuY5RhGnUWihT8QJOdpPX9Im66xOKarQp9RSqDj/B6UzbYkq6aw3WS0CIlCFgEWvuLMKFsHCzrCdBQM6Q3QYStlIfKrSqPS1CIhAWxKwARXfdYhANQLt2F5MZGHUiutbGAueM7GFYgyFi6SiiWkr86boY+KJO7FkNlNQobDCa5KytVpb0/f+EFDv4E9dyBIREIGYCNiyFjeChZ0mO3mbcciyyGLODsvvzigpiiemBqdkRUAEMkXABll81yEC1QiovfQTcoULihZhYouxoj/Ca/gyIYNihvvihBjTDHu519lnCjyWZi150x80wSfLPmG19qvvGyOg3qExbrpLBEQgxQTYMbPzLO1kS2cl0tipUkDh7AvLR2fCHBa+U1Chs8LvtU9KihuwTBcBEWgpAfd3tKUZK7NUElB7qVxt9K0ojNAXq1cAcdlW+2xLkUxYsbzoAzF/+ks6RCAqAhJVoiKpdERABFJJwDp3drbseN1IDnbY1ilTpOA1NlOSpOBioaucUTG7SwUi2s7y0G6JKKlsmjJaBETAEwLu4M0Tk2SGxwTUXuKpHPN9wiJV4slRqYpA7QQkqtTOSleKgAi0CQF3ozILHy0VW8xpckNWTXgpnQ0JcwDKnbN77d1mWPhueZa+U1Dh97yHAopmX9qkoaqYIiACLSHg/ua2JENlkmoCai+prj4ZLwINEZCo0hA23SQCItCuBEwMMdGDy2lM+CgnvLgOVr2fTTAx0cSEE9qhJTzt2gpVbhEQgVYScH+3W5mv8konAbWXdNabrBaBZghIVGmGnu4VAREQgQoELOLFhJha3iskp69EQAREQAQSIKBBcgLQU5yl2kuKK0+mi0CDBCSqNAhOt4mACIiACIiACIiACGSfgAbJ2a/jKEuo9hIlTaX147JpAAAFU0lEQVQlAukgIFElHfUkK0VABERABERABERABBIgoEFyAtBTnKXaS4orT6aLQIMEJKo0CE63iYAIiIAIiIAIiIAIZJ+ABsnZr+MoS6j2EiVNpSUC6SAgUSUd9SQrRUAEREAEREAEREAEEiCgQXIC0FOcpdpLiitPpotAgwQkqjQITreJgAiIgAiIgAiIgAhkn4AGydmv4yhLqPYSJU2lJQLpICBRJR31JCtFQAREQAREQAREQAQSIKBBcgLQU5yl2kuKK0+mi0CDBCSqNAhOt4mACIiACIiACIiACGSfgAbJ2a/jKEuo9hIlTaUlAukgIFElHfUkK0VABERABERABERABBIgoEFyAtBTnKXaS4orT6aLQIMEJKo0CE63iYAIiIAIiIAIiIAIZJ+ABsnZr+MoS6j2EiVNpSUC6SAgUSUd9SQrRUAEREAEREAEREAEEiCgQXIC0FOcpdpLiitPpotAgwQkqjQITreJgAiIgAiIgAiIgAhkn4AGydmv4yhLqPYSJU2lJQLpICBRJR31JCtFQAREQAREQAREQAQSIKBBcgLQU5yl2kuKK0+mi0CDBCSqNAhOt4mACIiACIiACIiACGSfgAbJ2a/jKEuo9hIlTaUlAukgIFElHfUkK0VABERABERABERABBIgoEFyAtBTnKXaS4orT6aLQIMEJKo0CE63iYAIiIAIiIAIiIAIZJ+ABsnZr+MoS6j2EiVNpSUC6SAgUSUd9SQrRUAEREAEREAEREAEEiCgQXIC0FOcpdpLiitPpotAgwQkqjQITreJgAiIgAiIgAiIgAhkn4A7SNbnAGJQO4Ps/+9QCUVABEhAooragQiIgAiIgAiIgAiIgAiUISARoXYRQawGsyrTpHRaBEQgYwQkqmSsQlUcERABERABERABERCB6AhIKBgsFIhH7Tyia4VKSQREwGcCElV8rh3ZJgIiIAIiIAIiIAIiIAIiIAIiIAIi4C0BiSreVo0MEwEREAEREAEREAEREAEREAEREAER8JmARBWfa0e2iYAIiIAIiIAIiIAIiIAIiIAIiIAIeEtAooq3VSPDREAEREAEREAEREAEREAEREAEREAEfCYgUcXn2pFtIiACIiACIiACIiACIiACIiACIiAC3hKQqOJt1cgwERABERABERABERABERABERABERABnwlIVPG5dmSbCIiACIiACIiACIiACIiACIiACIiAtwQkqnhbNTJMBERABERABERABERABERABERABETAZwISVXyuHdkmAiIgAiIgAiIgAiIgAiIgAiIgAiLgLQGJKt5WjQwTAREQAREQAREQAREQAREQAREQARHwmYBEFZ9rR7aJgAiIgAiIgAiIgAiIgAiIgAiIgAh4S0CiirdVI8NEQAREQAREQAREQAREQAREQAREQAR8JiBRxefakW0iIAIiIAIiIAIiIAIiIAIiIAIiIALeEpCo4m3VyDAREAEREAEREAEREAEREAEREAEREAGfCUhU8bl2ZJsIiIAIiIAIiIAIiIAIiIAIiIAIiIC3BCSqeFs1MkwEREAEREAEREAEREAEREAEREAERMBnAhJVfK4d2SYCIiACIiACIiACIiACIiACIiACIuAtAYkq3laNDBMBERABERABERABERABERABERABEfCZgEQVn2tHtomACIiACIiACIiACIiACIiACIiACHhLQKKKt1Ujw0RABERABERABERABERABERABERABHwmIFHF59qRbSIgAiIgAiIgAiIgAiIgAiIgAiIgAt4SkKjibdXIMBEQAREQAREQAREQAREQAREQAREQAZ8J/P8Z5ddRJjTp9QAAAABJRU5ErkJggg==;" vertex="1" parent="1">
          <mxGeometry x="121" y="80" width="729" height="376" as="geometry" />
        </mxCell>
        <mxCell id="8KFNnKX_J-wl7DnsQvvH-3" value="&lt;u&gt;CNAME&lt;/u&gt;" style="whiteSpace=wrap;html=1;align=center;" vertex="1" parent="1">
          <mxGeometry x="263" y="528" width="100" height="40" as="geometry" />
        </mxCell>
        <mxCell id="8KFNnKX_J-wl7DnsQvvH-4" value="CAddress" style="whiteSpace=wrap;html=1;align=center;" vertex="1" parent="1">
          <mxGeometry x="363" y="528" width="100" height="40" as="geometry" />
        </mxCell>
        <mxCell id="8KFNnKX_J-wl7DnsQvvH-5" value="&lt;b&gt;COMPANY&lt;/b&gt;" style="text;html=1;strokeColor=none;fillColor=none;align=center;verticalAlign=middle;whiteSpace=wrap;rounded=0;" vertex="1" parent="1">
          <mxGeometry x="277" y="506" width="40" height="20" as="geometry" />
        </mxCell>
        <mxCell id="8KFNnKX_J-wl7DnsQvvH-6" value="Date" style="whiteSpace=wrap;html=1;align=center;" vertex="1" parent="1">
          <mxGeometry x="255" y="652" width="100" height="40" as="geometry" />
        </mxCell>
        <mxCell id="8KFNnKX_J-wl7DnsQvvH-11" style="edgeStyle=orthogonalEdgeStyle;rounded=0;orthogonalLoop=1;jettySize=auto;html=1;entryX=0.5;entryY=1;entryDx=0;entryDy=0;" edge="1" parent="1" source="8KFNnKX_J-wl7DnsQvvH-7" target="8KFNnKX_J-wl7DnsQvvH-3">
          <mxGeometry relative="1" as="geometry" />
        </mxCell>
        <mxCell id="8KFNnKX_J-wl7DnsQvvH-7" value="CNAME" style="whiteSpace=wrap;html=1;align=center;" vertex="1" parent="1">
          <mxGeometry x="355" y="652" width="100" height="40" as="geometry" />
        </mxCell>
        <mxCell id="8KFNnKX_J-wl7DnsQvvH-8" value="&lt;b&gt;INTERVIEW&lt;/b&gt;" style="text;html=1;strokeColor=none;fillColor=none;align=center;verticalAlign=middle;whiteSpace=wrap;rounded=0;" vertex="1" parent="1">
          <mxGeometry x="272" y="630" width="40" height="20" as="geometry" />
        </mxCell>
        <mxCell id="8KFNnKX_J-wl7DnsQvvH-12" value="Contact_name" style="whiteSpace=wrap;html=1;align=center;" vertex="1" parent="1">
          <mxGeometry x="555" y="652" width="100" height="40" as="geometry" />
        </mxCell>
        <mxCell id="8KFNnKX_J-wl7DnsQvvH-13" value="Contact_phone" style="whiteSpace=wrap;html=1;align=center;" vertex="1" parent="1">
          <mxGeometry x="655" y="652" width="100" height="40" as="geometry" />
        </mxCell>
        <mxCell id="8KFNnKX_J-wl7DnsQvvH-14" value="&lt;u&gt;SSN&lt;/u&gt;" style="whiteSpace=wrap;html=1;align=center;" vertex="1" parent="1">
          <mxGeometry x="249" y="758" width="100" height="40" as="geometry" />
        </mxCell>
        <mxCell id="8KFNnKX_J-wl7DnsQvvH-15" value="Name" style="whiteSpace=wrap;html=1;align=center;" vertex="1" parent="1">
          <mxGeometry x="349" y="758" width="100" height="40" as="geometry" />
        </mxCell>
        <mxCell id="8KFNnKX_J-wl7DnsQvvH-16" value="&lt;b&gt;INTERVIEW&lt;/b&gt;" style="text;html=1;strokeColor=none;fillColor=none;align=center;verticalAlign=middle;whiteSpace=wrap;rounded=0;" vertex="1" parent="1">
          <mxGeometry x="266" y="736" width="40" height="20" as="geometry" />
        </mxCell>
        <mxCell id="8KFNnKX_J-wl7DnsQvvH-18" value="Phone" style="whiteSpace=wrap;html=1;align=center;" vertex="1" parent="1">
          <mxGeometry x="449" y="758" width="100" height="40" as="geometry" />
        </mxCell>
        <mxCell id="8KFNnKX_J-wl7DnsQvvH-19" value="Address" style="whiteSpace=wrap;html=1;align=center;" vertex="1" parent="1">
          <mxGeometry x="549" y="758" width="100" height="40" as="geometry" />
        </mxCell>
        <mxCell id="8KFNnKX_J-wl7DnsQvvH-22" style="edgeStyle=orthogonalEdgeStyle;rounded=0;orthogonalLoop=1;jettySize=auto;html=1;entryX=0;entryY=0.5;entryDx=0;entryDy=0;" edge="1" parent="1" source="8KFNnKX_J-wl7DnsQvvH-20" target="8KFNnKX_J-wl7DnsQvvH-14">
          <mxGeometry relative="1" as="geometry">
            <Array as="points">
              <mxPoint x="505" y="727" />
              <mxPoint x="229" y="727" />
              <mxPoint x="229" y="778" />
            </Array>
          </mxGeometry>
        </mxCell>
        <mxCell id="8KFNnKX_J-wl7DnsQvvH-20" value="App_ID" style="whiteSpace=wrap;html=1;align=center;" vertex="1" parent="1">
          <mxGeometry x="455" y="652" width="100" height="40" as="geometry" />
        </mxCell>
        <mxCell id="8KFNnKX_J-wl7DnsQvvH-21" value="" style="endArrow=none;html=1;" edge="1" parent="1">
          <mxGeometry width="50" height="50" relative="1" as="geometry">
            <mxPoint x="281" y="684" as="sourcePoint" />
            <mxPoint x="529" y="684" as="targetPoint" />
          </mxGeometry>
        </mxCell>
        <mxCell id="8KFNnKX_J-wl7DnsQvvH-23" value="&lt;u&gt;ID&lt;/u&gt;" style="whiteSpace=wrap;html=1;align=center;" vertex="1" parent="1">
          <mxGeometry x="817" y="649" width="100" height="40" as="geometry" />
        </mxCell>
        <mxCell id="8KFNnKX_J-wl7DnsQvvH-24" value="Position" style="whiteSpace=wrap;html=1;align=center;" vertex="1" parent="1">
          <mxGeometry x="917" y="649" width="100" height="40" as="geometry" />
        </mxCell>
        <mxCell id="8KFNnKX_J-wl7DnsQvvH-25" value="&lt;b&gt;JOB OFFER&lt;/b&gt;" style="text;html=1;strokeColor=none;fillColor=none;align=center;verticalAlign=middle;whiteSpace=wrap;rounded=0;" vertex="1" parent="1">
          <mxGeometry x="813" y="630" width="90" height="20" as="geometry" />
        </mxCell>
        <mxCell id="8KFNnKX_J-wl7DnsQvvH-26" value="Date" style="whiteSpace=wrap;html=1;align=center;" vertex="1" parent="1">
          <mxGeometry x="1017" y="649" width="100" height="40" as="geometry" />
        </mxCell>
        <mxCell id="8KFNnKX_J-wl7DnsQvvH-30" style="edgeStyle=orthogonalEdgeStyle;rounded=0;orthogonalLoop=1;jettySize=auto;html=1;entryX=0.5;entryY=1;entryDx=0;entryDy=0;" edge="1" parent="1" source="8KFNnKX_J-wl7DnsQvvH-27" target="8KFNnKX_J-wl7DnsQvvH-7">
          <mxGeometry relative="1" as="geometry">
            <Array as="points">
              <mxPoint x="1167" y="712" />
              <mxPoint x="405" y="712" />
            </Array>
          </mxGeometry>
        </mxCell>
        <mxCell id="8KFNnKX_J-wl7DnsQvvH-27" value="CNAME" style="whiteSpace=wrap;html=1;align=center;" vertex="1" parent="1">
          <mxGeometry x="1117" y="649" width="100" height="40" as="geometry" />
        </mxCell>
        <mxCell id="8KFNnKX_J-wl7DnsQvvH-28" value="App_ID" style="whiteSpace=wrap;html=1;align=center;" vertex="1" parent="1">
          <mxGeometry x="1217" y="649" width="100" height="40" as="geometry" />
        </mxCell>
      </root>
    </mxGraphModel>
  </diagram>
</mxfile>
